<svg xmlns="http://www.w3.org/2000/svg" width="50" height="50" viewBox="0 0 50 50">
  <title>icon_vakancii_man_active</title>
  <g>
    <rect width="50" height="50" style="fill: none"/>
    <path d="M34.19,3.92A38.61,38.61,0,0,0,25,3c-3.45,0-3.83,0-8.74.88a1.94,1.94,0,0,0-1.78,1.81v5.19a.56.56,0,0,0,.56.55H35a.56.56,0,0,0,.56-.55V5.25A1.43,1.43,0,0,0,34.19,3.92ZM27.35,9h-4.7a1.48,1.48,0,0,1-1.48-1.48,1.74,1.74,0,0,1,1.76-1.71h4.14a1.74,1.74,0,0,1,1.76,1.71A1.48,1.48,0,0,1,27.35,9Zm9.06,8.36a1.27,1.27,0,0,1-.68,1.23l-.06,1.89v0a15,15,0,0,1-1.58,5.56,6.5,6.5,0,0,0-.77,3c0,2.13.16,3.29,1.25,4.82a8.74,8.74,0,0,1,.48.88,4.57,4.57,0,0,1,.48,2v8.31A1.9,1.9,0,0,1,33.61,47H16.39a1.9,1.9,0,0,1-1.91-1.87V36.77a4.55,4.55,0,0,1,.42-1.92l.54-1a7.08,7.08,0,0,0,1.28-4.82c0-.18,0-.36,0-.54a5.44,5.44,0,0,0-.64-2.26,14.65,14.65,0,0,1-1.7-5.77l-.06-1.71a.27.27,0,0,0-.11-.2,1.46,1.46,0,0,1-.68-1.32,1.16,1.16,0,0,1,.67-1.12.27.27,0,0,0,.12-.21V14.48a.26.26,0,0,1,.26-.25h20.9a.26.26,0,0,1,.26.25V16a.24.24,0,0,0,.11.2A1.24,1.24,0,0,1,36.41,17.36ZM12,39.86v5.52A1.64,1.64,0,0,1,10.34,47H6.89a3.47,3.47,0,0,1-3.5-3.43A3.42,3.42,0,0,1,5.33,40.5L9.6,38.41A1.66,1.66,0,0,1,12,39.86Zm34.61,3.71A3.47,3.47,0,0,1,43.11,47H39.66A1.64,1.64,0,0,1,38,45.38V39.86a1.66,1.66,0,0,1,2.4-1.45l4.27,2.09A3.42,3.42,0,0,1,46.61,43.57Z" style="fill: #e51313"/>
  </g>
</svg>
