<svg xmlns="http://www.w3.org/2000/svg" width="351" height="180" viewBox="0 0 351 180">
  <title>bosch-logo</title>
  <g>
    <path d="M350.5.5v179H.5V.5h350M351,0H0V180H351Z" style="fill: gray"/>
    <path d="M317.78,41.53V22.31h13.6V73.76h-13.9V53.65H302.12v20.4h-13.9V22.31h13.6V41.53Zm-44.94-2.07,11-7.09a24.2,24.2,0,0,0-13-10.06,23.66,23.66,0,0,0-25.13,7.1c-7.1,8.57-8,22.77-3,32.81a24.76,24.76,0,0,0,21.88,12.72c6.21,0,15.07-3.55,19.22-10.94l-11-7.1a10,10,0,0,1-5.91,5c-2.95,1.18-7.68,0-10.35-2.66-4.43-4.73-5-13-2.65-18.63,1.77-3.84,5.91-7.09,10-7.09,3.84,0,7.09,2.66,8.86,5.91ZM189.47,62.53a24,24,0,0,1-21.58,12.41c-6.8-.29-15.67-5-19.52-12.72-1.48-3.83-3.25-9.16-3.25-13.59C145.71,35,151,27.34,160.2,23.2c6.5-2.95,16.26-2.36,23.36,3.55a20.2,20.2,0,0,1,4.73,5.32A32,32,0,0,1,189.47,62.53Zm-12.12-24a8.66,8.66,0,0,0-6.8-4.14c-3.55-.58-6.51,0-9.17,3-2.36,3-3.25,6.79-3.55,10.64a20.4,20.4,0,0,0,2.07,8.57c2.08,3.55,5.62,6.21,9.76,5.61,3.84,0,7.39-3.24,8.87-6.49,2.37-6.2,1.77-12.72-1.18-17.15ZM140.68,64.89c-2.36,5.32-8.27,8.87-15.07,8.87H99V22.31h24c6.21,0,11.23,2.08,14.19,6.8s3,10.65.29,14.49a17.14,17.14,0,0,1-4.13,3.84c1.47.3,2.66.89,4.72,3A13.19,13.19,0,0,1,140.68,64.89Zm-29-22.17H122a4.18,4.18,0,0,0,3.55-2.37,5,5,0,0,0-.3-5,4.44,4.44,0,0,0-4.13-2.07h-9.47v9.44Zm15.08,12.41a4.74,4.74,0,0,0-4.14-2.07H111.71v10h10.35c2.07,0,3.84-.29,5-2.36a4.93,4.93,0,0,0-.27-5.57ZM234.7,28.52a27.83,27.83,0,0,0-8-5c-10.65-4.44-19.23-2.37-24.84,2.95-4.73,3.85-5.92,10.35-4.14,16a15.78,15.78,0,0,0,9.75,9.16c5.33,1.78,8,2.07,11.24,3a4.26,4.26,0,0,1,3.54,6.21,5.44,5.44,0,0,1-4.72,3c-5.32.29-10.64-3.55-14.49-6.51l-8.28,8.58a29.94,29.94,0,0,0,13.31,8c6.8,2.07,17.44,1.78,23.06-4.14,4.43-4.14,5.61-10.06,4.13-16-2.65-8.57-12.12-10.34-15.07-10.93-5.62-1.19-8.87-1.48-10.05-4.74A3.78,3.78,0,0,1,211.61,34c5-3.26,11.24,0,15.38,3l7.68-8.28Z" style="fill: #ec1c24;fill-rule: evenodd"/>
    <path d="M47.86,18A30,30,0,1,0,77.73,48.16,30,30,0,0,0,47.86,18Zm0,56.47A26.46,26.46,0,1,1,74.17,47.86v.3A26.44,26.44,0,0,1,47.86,74.47ZM70.33,46.39a24.21,24.21,0,0,0-11.53-18V39H36.93V28.35A23,23,0,0,0,25.39,50.82c1.19,6.8,5,13.3,11.54,16.85V57.32H58.8V67.67C66.79,63.24,70.63,55.26,70.33,46.39ZM34,61.46a8.1,8.1,0,0,0-1.48-1.77c-.3-.6-1.48-2.37-2.07-3.25-3-6.51-2.07-15.08,2.66-20.4A4,4,0,0,0,34,34.85l-.3,3.26V59.4Zm24.8-7.39H36.93V42.25H58.8ZM65,56.44a12.3,12.3,0,0,1-2.07,3.25c-.3.59-1.19,1.18-1.19,1.48L62,59.4V38.11l-.3-3.26c0,.6.6.6.89,1.19C67.38,41.36,68.26,49.93,65,56.44Z" style="fill: #231f20;fill-rule: evenodd"/>
    <path d="M0,90H351v90H0Z" style="fill: #1a3062"/>
    <path d="M55.05,132.6H51.27V128H40v4.57H36.2v-7.9h1.35a13,13,0,0,0,2.19-4.89,30.67,30.67,0,0,0,.66-6.89v-2.7H53.08V124.7h2Zm-5.88-7.9V113.4h-4.9v.3a22.77,22.77,0,0,1-2.37,11Zm11.28-14.48v3H56.9v-3Zm0,4.91V128H56.9V115.1ZM75.25,128h-3.6a5.33,5.33,0,0,1-.25-1.25,5.65,5.65,0,0,1-4.17,1.62,5.06,5.06,0,0,1-3.38-1,3.51,3.51,0,0,1-1.22-2.86,4.47,4.47,0,0,1,.21-1.45,2.28,2.28,0,0,1,.7-1,7.7,7.7,0,0,1,.92-.7,4.42,4.42,0,0,1,1.21-.45c.52-.12.94-.2,1.25-.26s.76-.12,1.33-.19a11.32,11.32,0,0,0,2.51-.52,1,1,0,0,0,.64-1c0-1.15-.77-1.72-2.33-1.72a3,3,0,0,0-1.8.43,2.34,2.34,0,0,0-.75,1.54H63.2q.3-4.35,6-4.35T74.8,119v5.58A9.88,9.88,0,0,0,75.25,128Zm-3.87-6.28a8.06,8.06,0,0,1-2.5.67,5,5,0,0,0-2.06.63,1.8,1.8,0,0,0,0,2.56,2.08,2.08,0,0,0,1.44.46,3.32,3.32,0,0,0,2.28-.76,2.68,2.68,0,0,0,.87-2.11Zm16-3.9H81.17V128H77.65V115.1H87.4ZM101,128H97.47v-5.4h-5V128H89V115.1h3.5v4.67h5V115.1H101Zm15.7-6.46a6.89,6.89,0,0,1-1.81,5,7.18,7.18,0,0,1-9.69,0,6.83,6.83,0,0,1-1.83-5,6.75,6.75,0,0,1,1.85-4.94,6.53,6.53,0,0,1,4.88-1.88,6.4,6.4,0,0,1,4.79,1.88,6.86,6.86,0,0,1,1.81,5Zm-3.55,0a4.78,4.78,0,0,0-.84-3,2.74,2.74,0,0,0-2.31-1.09,2.66,2.66,0,0,0-2.25,1.1,6,6,0,0,0,0,6.08,2.94,2.94,0,0,0,4.59,0,5.13,5.13,0,0,0,.81-3.07Zm18.17,1.5a5.89,5.89,0,0,1-2,3.9,6.3,6.3,0,0,1-4.21,1.4,6.43,6.43,0,0,1-4.78-1.82,6.66,6.66,0,0,1-1.8-4.86,7,7,0,0,1,1.82-5,6.33,6.33,0,0,1,4.81-1.9,6.47,6.47,0,0,1,4.2,1.31,5.09,5.09,0,0,1,1.85,3.57h-3.48a2.36,2.36,0,0,0-2.5-2.23h0a2.66,2.66,0,0,0-2.26,1.11,5.19,5.19,0,0,0-.81,3.09,4.9,4.9,0,0,0,.79,3,2.59,2.59,0,0,0,2.21,1.06c1.55,0,2.47-.87,2.75-2.6Zm12.53-5.2H139.6V128h-3.53V117.85h-4.25v-2.72h12ZM157.5,128h-3.4v-8.7l-4.6,8.7h-4V115.1h3.4v8.72l4.6-8.72h4Zm15.92,0h-4.3l-3.72-5.56-1.58,1.6v4h-3.47v-12.9h3.47v5.09l4.73-5.09h4.17l-5,5Zm13.18,0H183a5.33,5.33,0,0,1-.25-1.25,5.66,5.66,0,0,1-4.18,1.62,5,5,0,0,1-3.37-1,3.53,3.53,0,0,1-1.2-2.87,4.22,4.22,0,0,1,.22-1.45,2.28,2.28,0,0,1,.7-1,7.7,7.7,0,0,1,.92-.7,4.42,4.42,0,0,1,1.21-.45c.52-.12.94-.2,1.25-.26s.76-.12,1.33-.19a11.32,11.32,0,0,0,2.51-.52,1,1,0,0,0,.64-1c0-1.15-.78-1.72-2.33-1.72a3,3,0,0,0-1.8.43,2.34,2.34,0,0,0-.75,1.54h-3.32q.3-4.35,6-4.35t5.63,4.2v5.58A9.73,9.73,0,0,0,186.6,128Zm-3.88-6.28a8.06,8.06,0,0,1-2.5.67,5,5,0,0,0-2.05.63,1.8,1.8,0,0,0,0,2.55h0a2,2,0,0,0,1.43.46,3.34,3.34,0,0,0,2.29-.76,2.63,2.63,0,0,0,.86-2.11Zm24.1-3.9h-4.25V128h-3.52V117.85H194.8v-2.72h12ZM220,128h-3.6a5.33,5.33,0,0,1-.25-1.25,5.66,5.66,0,0,1-4.18,1.62,5.09,5.09,0,0,1-3.37-1,3.52,3.52,0,0,1-1.23-2.86,4.22,4.22,0,0,1,.22-1.45,2.28,2.28,0,0,1,.7-1,7.7,7.7,0,0,1,.92-.7,4.42,4.42,0,0,1,1.21-.45c.52-.12.94-.2,1.25-.26s.76-.12,1.33-.19a11.32,11.32,0,0,0,2.51-.52,1,1,0,0,0,.64-1c0-1.15-.78-1.72-2.33-1.72a3,3,0,0,0-1.8.43,2.34,2.34,0,0,0-.75,1.54H207.9q.3-4.35,6-4.35t5.63,4.2v5.58A9.91,9.91,0,0,0,220,128Zm-3.88-6.28a8.06,8.06,0,0,1-2.5.67,5,5,0,0,0-2,.63,1.8,1.8,0,0,0,0,2.55h0a2,2,0,0,0,1.43.46,3.34,3.34,0,0,0,2.29-.76,2.63,2.63,0,0,0,.86-2.11Zm16.53-6.62v1.59a4.61,4.61,0,0,1,4-1.94,5.14,5.14,0,0,1,4.17,1.87,7.52,7.52,0,0,1,1.58,5,7.29,7.29,0,0,1-1.54,4.86,5,5,0,0,1-4.06,1.84,4.6,4.6,0,0,1-4-1.92v6.17h-3.52V115.13Zm3.12,2.5a2.7,2.7,0,0,0-2.26,1,5.67,5.67,0,0,0,0,5.86,3.05,3.05,0,0,0,4.52,0,4.61,4.61,0,0,0,.81-2.88,4.72,4.72,0,0,0-.83-3,2.66,2.66,0,0,0-2.3-1ZM256.7,124a5.83,5.83,0,0,1-2.21,3.22,7.08,7.08,0,0,1-8.63-.7,6.68,6.68,0,0,1-1.81-4.9,7,7,0,0,1,1.82-5,6.09,6.09,0,0,1,4.65-2,5.82,5.82,0,0,1,4.65,2A7.9,7.9,0,0,1,256.9,122v.34h-9.3a3.83,3.83,0,0,0,.81,2.56,2.82,2.82,0,0,0,2.21.87,2.67,2.67,0,0,0,2.63-1.87Zm-3.4-3.81a3.63,3.63,0,0,0-.83-2.08,2.42,2.42,0,0,0-1.95-.82,2.63,2.63,0,0,0-2,.78,3.44,3.44,0,0,0-.92,2.12ZM274.17,128h-3.35v-9.81h-.07L268.22,128h-3.35l-2.52-9.81h-.08V128h-3.35V115.1h5.15l2.43,9.37h.1L269,115.1h5.15Zm15.7-6.46a6.87,6.87,0,0,1-1.81,5,7.18,7.18,0,0,1-9.69,0,6.88,6.88,0,0,1-1.82-5,6.71,6.71,0,0,1,1.85-4.94,6.51,6.51,0,0,1,4.87-1.88,6.36,6.36,0,0,1,4.79,1.88,6.8,6.8,0,0,1,1.81,5Zm-3.55,0a4.78,4.78,0,0,0-.84-3,2.74,2.74,0,0,0-2.31-1.09,2.66,2.66,0,0,0-2.25,1.1,4.93,4.93,0,0,0-.82,3,5,5,0,0,0,.82,3.08,2.94,2.94,0,0,0,4.59,0,5.13,5.13,0,0,0,.81-3.07ZM304.27,128h-3.52v-5.4h-5V128h-3.52V115.1h3.52v4.67h5V115.1h3.52ZM318,117.85h-4.3V128h-3.53V117.85h-4.25v-2.72h12ZM41,140.22v3H37.45v-3Zm0,4.91V158H37.45V145.1ZM55.87,158H52.35v-5.4h-5V158h-3.5V145.1h3.52v4.67h5V145.1h3.52Zm8.63-5.43L61.37,158H57.2l5-8-4.4-4.9h4l4,5.12V145.1H69.2v5.12l4-5.12h4l-4.47,5L77.9,158H73.72l-3.12-5.4-1.38,1.55V158H65.87v-3.88ZM90.85,154a5.83,5.83,0,0,1-2.21,3.22,7.08,7.08,0,0,1-8.63-.7,6.68,6.68,0,0,1-1.81-4.9,7,7,0,0,1,1.82-5,6.11,6.11,0,0,1,4.65-2,5.82,5.82,0,0,1,4.65,2,7.9,7.9,0,0,1,1.73,5.39v.34H81.8a3.83,3.83,0,0,0,.81,2.56,2.82,2.82,0,0,0,2.21.87A2.65,2.65,0,0,0,87.45,154Zm-3.4-3.81a3.63,3.63,0,0,0-.83-2.08,2.44,2.44,0,0,0-2-.82,2.67,2.67,0,0,0-2,.78,3.44,3.44,0,0,0-.92,2.12Zm18.8,7.81H102l-3.73-5.56L96.7,154v4H93.17v-12.9h3.48v5.09l4.72-5.09h4.18l-5,5Zm12.1-10.18H114.1V158h-3.53V147.85h-4.25v-2.72h12Zm14.07,3.72a6.87,6.87,0,0,1-1.81,5,7.18,7.18,0,0,1-9.69,0,6.88,6.88,0,0,1-1.82-5A6.75,6.75,0,0,1,121,146.6a6.51,6.51,0,0,1,4.87-1.88,6.36,6.36,0,0,1,4.79,1.88,6.8,6.8,0,0,1,1.81,5Zm-3.55,0a4.85,4.85,0,0,0-.83-3,2.76,2.76,0,0,0-2.32-1.09,2.66,2.66,0,0,0-2.25,1.1,4.93,4.93,0,0,0-.82,3,5,5,0,0,0,.82,3.08,2.94,2.94,0,0,0,4.59,0,5.13,5.13,0,0,0,.81-3.07Zm9.23-6.42v1.59a4.64,4.64,0,0,1,4-1.94,5.16,5.16,0,0,1,4.17,1.87,7.52,7.52,0,0,1,1.58,5,7.29,7.29,0,0,1-1.54,4.86,5,5,0,0,1-4.06,1.84,4.61,4.61,0,0,1-4-1.92v6.17h-3.52V145.13Zm3.12,2.5a2.68,2.68,0,0,0-2.26,1,5.64,5.64,0,0,0,0,5.85,3.05,3.05,0,0,0,4.52,0,4.61,4.61,0,0,0,.81-2.88,4.72,4.72,0,0,0-.83-3,2.66,2.66,0,0,0-2.24-1ZM162.1,158h-3.53v-5.4h-5V158H150V145.1h3.53v4.67h5V145.1h3.53Zm14.82,0h-3.4v-8.7l-4.6,8.73h-4v-12.9h3.4v8.72l4.6-8.72h4Zm14.33-12.9-4.25,6,4.77,6.88h-4.05L185,153.85,182.3,158h-4l4.7-6.81-4.27-6.09h4.05l2.3,3.44,2.27-3.44Zm21.1,7.92a5.91,5.91,0,0,1-2,3.9,6.33,6.33,0,0,1-4.22,1.4,6.42,6.42,0,0,1-4.77-1.82,6.66,6.66,0,0,1-1.8-4.85,7,7,0,0,1,1.81-5,6.33,6.33,0,0,1,4.81-1.9,6.47,6.47,0,0,1,4.2,1.31,5,5,0,0,1,1.85,3.57H208.8a2.38,2.38,0,0,0-2.52-2.23h0a2.63,2.63,0,0,0-2.26,1.11,6.16,6.16,0,0,0,0,6.09,2.59,2.59,0,0,0,2.21,1.06c1.55,0,2.47-.87,2.75-2.6Zm14.12,5h-3.4V149.3l-4.6,8.73h-4v-12.9h3.4v8.72l4.6-8.72h4Zm15.05-5a5.89,5.89,0,0,1-2,3.9,6.3,6.3,0,0,1-4.21,1.4,6.43,6.43,0,0,1-4.78-1.82,6.66,6.66,0,0,1-1.8-4.85,7,7,0,0,1,1.81-5,6.35,6.35,0,0,1,4.82-1.9,6.54,6.54,0,0,1,4.2,1.31,5.09,5.09,0,0,1,1.85,3.57H238a2.36,2.36,0,0,0-2.5-2.23h-.05a2.66,2.66,0,0,0-2.26,1.11,5.19,5.19,0,0,0-.81,3.09,5,5,0,0,0,.78,3,2.62,2.62,0,0,0,2.22,1.06c1.55,0,2.46-.87,2.75-2.6Zm12.53-5.2H249.8V158h-3.53V147.85H242v-2.72h12ZM267.3,154a5.76,5.76,0,0,1-2.22,3.22,7,7,0,0,1-8.62-.7,6.68,6.68,0,0,1-1.81-4.9,7,7,0,0,1,1.82-5,6.11,6.11,0,0,1,4.65-2,5.82,5.82,0,0,1,4.65,2,7.9,7.9,0,0,1,1.73,5.39v.34h-9.25a3.83,3.83,0,0,0,.81,2.56,2.82,2.82,0,0,0,2.21.87A2.65,2.65,0,0,0,263.9,154Zm-3.4-3.81a3.63,3.63,0,0,0-.83-2.08,2.42,2.42,0,0,0-1.95-.82,2.63,2.63,0,0,0-1.95.78,3.44,3.44,0,0,0-.92,2.12ZM284.82,158h-3.35v-9.81h-.07L278.87,158h-3.35L273,148.22h-.08V158h-3.35V145.1h5.15l2.43,9.37h.1l2.42-9.37h5.15Z" style="fill: #fff"/>
  </g>
</svg>
