<svg xmlns="http://www.w3.org/2000/svg" width="283.46" height="65.3" viewBox="0 0 283.46 65.3">
  <title>motul-evo-logo</title>
  <g>
    <rect width="283.46" height="65.3" style="fill: #fff"/>
    <rect width="176.44" height="65.3" style="fill: #e52429"/>
    <path d="M283.46,0V65.3h-107V0ZM49.94,15.7V47.8H38.84l.6-14-6.1,14h-7.4l-2.2-14.2-3.6,14.2H8.74L18,15.7h12.2l1.9,13,5.4-13Zm62.6,10.2-5-.2-2.6,22.1H92.84l2.7-22.1-4.6.2-7.7-10.2h30.4Zm15.6-10.2-2.3,19.9a3,3,0,0,0,1.5,2.9,3.27,3.27,0,0,0,3.3-.6,4,4,0,0,0,1.2-2.5l2.8-19.7h11.6l-2.5,21.9a12.11,12.11,0,0,1-4.8,8.1c-4,2.9-9.4,3.4-14.6,2.6-4.1-.8-8.8-3.4-10.2-7.6a13.75,13.75,0,0,1-.5-5l2.5-20Zm30.8,21.9h9.5l-2.8,10.2h-20.4l4.3-32.1h12.1ZM79.34,16.9l1.2.9,7.1,9.1c.8,1.5.8,3.5.8,5.4a16.79,16.79,0,0,1-9.7,14.5c-6.8,3.2-16,1.7-21.3-3.6-4.9-4.5-5.8-12.1-3.3-17.9A17.42,17.42,0,0,1,70.74,15a20.44,20.44,0,0,1,8.6,1.9m-7.4,8.8a6.27,6.27,0,0,0-6.3,3.2,6.74,6.74,0,0,0-.2,6.6,5.65,5.65,0,0,0,4.4,3,6,6,0,0,0,5.7-3,7.34,7.34,0,0,0,.3-6.9,5.28,5.28,0,0,0-3.9-2.9" style="fill: #fff"/>
    <path d="M184.34,15.7h22.3v7.2h-13.1v5.6H204v6.6h-10.5V41h13.8v7.2h-23.1V15.7Zm25.1,0h10L226,38.4l6.6-22.7h8.7l-10.6,32.4h-10.5ZM241.64,32v-.3c0-9.9,7.4-16.5,17.1-16.5,9.9,0,17.2,6.2,17.2,16.2v.4c0,10-6.8,16.7-17.3,16.7S241.64,41.8,241.64,32Zm24.6-.1v-.4c0-5.7-2.9-9.1-7.5-9.1s-7.4,3.3-7.4,9.2V32c0,5.9,3,9.3,7.5,9.3S266.24,37.7,266.24,31.9Z" style="fill: #e52429"/>
  </g>
</svg>
