<svg xmlns="http://www.w3.org/2000/svg" width="198.43" height="61.93" viewBox="0 0 198.43 61.93">
  <title>kyb-logo</title>
  <g>
    <path d="M122.86,0a11.27,11.27,0,0,0-7.11,2.85L103.13,13.52a11.66,11.66,0,0,1-7.47,2.85H91.57l10.49-8.72-3-4.8A6,6,0,0,0,93.52,0H65.79a11.32,11.32,0,0,0-7.12,2.85L44.27,15A11.2,11.2,0,0,1,37,17.8H32.54L53.7,0H32L21.87,35.59H38.94l4.62-15.84,8,13a6,6,0,0,0,5.51,2.85H72.72L61.7,17.8,79.12,3.2,92.63,24.91l-3,10.68h17.6l3-10.68L137.8,1.78l-9.61,33.81h4.45a11.56,11.56,0,0,0,7.29-2.85l14.22-11.92a10.88,10.88,0,0,1,7.29-3h4.45L144.73,35.59h16.89c8.18,0,15.47-3.2,17.07-9.08,1.6-5.33-3-8.36-8-8.71h0c5-.54,10.67-4.1,12.09-8.9C184.38,3.74,181,0,175.31,0a11.49,11.49,0,0,0-7.47,3L155.22,13.52a10.94,10.94,0,0,1-7.29,2.85h-4.27L163,0Z" style="fill: #e51636"/>
    <path d="M8.18,53c-.71,3-1.42,6-5.16,6-1.77,0-3-.53-3-2.31A27.06,27.06,0,0,1,.71,53C1.6,50,2.31,47,6.05,47c1.6,0,3,.36,3,2.14A14.21,14.21,0,0,1,8.18,53ZM5.87,48.22c-1.25,0-1.78.9-2.31,2A26.58,26.58,0,0,0,2,56.41c0,.89.35,1.25,1.24,1.25,1.25,0,1.78-.71,2.31-1.78a27.86,27.86,0,0,0,1.6-6.41A1.12,1.12,0,0,0,5.87,48.22Zm9.24,9.08a5.41,5.41,0,0,0-.35,1.6H13l.35-1.07A2.84,2.84,0,0,1,11,58.9c-.89,0-1.6-.35-1.6-1.42a1.59,1.59,0,0,1,.18-.89l1.6-5.87H13l-1.6,5.34a2.2,2.2,0,0,0-.18,1.06c0,.54.18.71.71.71,1.07,0,1.6-1.06,2-1.95l1.42-5.16h1.78Zm7.65-5.16a.18.18,0,0,0-.18-.18,2.5,2.5,0,0,0-2.49,2.14l-1.24,4.8H17.07L19,52.14a4.13,4.13,0,0,0,.36-1.42H21l-.18,1.06a2.42,2.42,0,0,1,2.31-1.24h.18Zm13.16-1.6c-.72,2.85-2.14,3.2-4.45,3.2H30.23L28.8,58.9H27l3.21-11.74h3c1.42,0,2.84.18,2.84,2a4.1,4.1,0,0,1-.17,1.42Zm-3.2-2.14H31.65l-1.07,3.92h.89c1.6,0,2.31-.36,2.67-2a1.32,1.32,0,0,0,.18-.89C34.32,48.58,33.43,48.4,32.72,48.4Zm8.53,3.74c0-.18-.18-.18-.36-.18-1.24,0-2,.89-2.31,2.14l-1.42,4.8h-1.6l2-6.76c.17-.53.17-.89.35-1.42h1.6l-.35,1.06a2.87,2.87,0,0,1,2.49-1.24h.17ZM47.65,55H43.56A7.82,7.82,0,0,0,43,57c0,.71.18.88.89.88.89,0,1.42-.88,1.6-1.6h1.6a3.47,3.47,0,0,1-3.56,2.85c-1.24,0-2.13-.53-2.13-2A9.29,9.29,0,0,1,41.78,55c.71-2.32,1.6-4.45,4.27-4.45,1.25,0,2.13.35,2.13,1.6A15.86,15.86,0,0,1,47.65,55Zm-2-3.38c-1.24,0-1.6,1.42-1.95,2.31h2.49a4.11,4.11,0,0,0,.35-1.42.83.83,0,0,0-.89-.89Zm10,1.78h-1.6a7.13,7.13,0,0,1,.18-.89.84.84,0,0,0-.89-.89c-1.42,0-2,2-2.13,3a10.73,10.73,0,0,0-.54,2.31c0,.54.18.89.89.89,1.07,0,1.42-.88,1.6-1.77h1.6c-.53,1.95-1.24,3-3.38,3-1.24,0-2.48-.36-2.48-1.78A8.71,8.71,0,0,1,49.43,55c.53-2.32,1.24-4.45,4.09-4.45,1.07,0,2.31.18,2.31,1.42C55.83,52.5,55.65,52.85,55.65,53.39Zm2,5.51H55.83l2.49-8.18h1.6Zm2.84-10H58.67l.54-1.6H61Zm-2.84,10H55.83l2.49-8.18h1.6Zm2.84-10H58.67l.54-1.6H61Zm6,4.09H64.9a1.67,1.67,0,0,0,.17-.89c0-.36-.35-.53-.71-.53a1.21,1.21,0,0,0-1.24,1.24c0,1.07,2.67,1.6,2.67,3.21,0,1.95-1.6,2.84-3.38,2.84-1.07,0-2.31-.35-2.31-1.42a2.79,2.79,0,0,1,.17-1.25h1.6a7.5,7.5,0,0,1-.17.89c0,.54.35.71.89.71A1.53,1.53,0,0,0,64,56.41c0-1.24-2.67-1.78-2.67-3.38,0-1.78,1.42-2.49,3.2-2.49,1.07,0,2.14.18,2.14,1.42A2.24,2.24,0,0,1,66.5,53Zm2.13,5.87H66.85l2.49-8.18h1.6Zm2.85-10H69.7l.53-1.6H72Zm-2.85,10H66.85l2.49-8.18h1.6Zm2.85-10H69.7l.53-1.6H72Zm6.4,5.69c-.72,2.49-1.07,4.45-4.09,4.45a2,2,0,0,1-2.31-2A5.4,5.4,0,0,1,72,54.81c.71-2.49,1.24-4.27,4.09-4.27,1.06,0,2.31.35,2.31,1.78A6.24,6.24,0,0,1,77.88,54.63Zm-2-3c-1.42,0-1.78,1.24-2.13,2.49A16.27,16.27,0,0,0,73.08,57a.83.83,0,0,0,.89.88c1.24,0,1.6-1.06,2-2.13l.53-1.6c0-.54.18-1.07.18-1.6s-.18-.89-.71-.89ZM86.41,53,84.63,58.9H83l1.43-5.51a2.69,2.69,0,0,0,.35-1.07c0-.54-.35-.71-.89-.71-1.06,0-1.6,1.24-2,2.13L80.54,58.9h-1.6l1.78-6.76a12.66,12.66,0,0,0,.54-1.42h1.6l-.18.89a2.5,2.5,0,0,1,2.13-1.07c1.07,0,1.78.35,1.78,1.24C86.59,52.32,86.41,52.67,86.41,53Zm1.07,7.47H86.23l1.6-3.38h1.78Zm13.15-6.23L99.39,58.9h-2l1.43-4.63-1.07-7.11h1.78l.53,5.51L104,47.16h2Zm10.32.36c-.71,2.49-1.25,4.45-4.09,4.45-1.25,0-2.49-.53-2.49-2a11.33,11.33,0,0,1,.53-2.31c.71-2.49,1.25-4.27,4.09-4.27,1.25,0,2.31.35,2.31,1.78a12,12,0,0,1-.35,2.31Zm-2.13-3c-1.43,0-1.78,1.24-2.14,2.49a15.7,15.7,0,0,0-.53,2.85c0,.53.17.88.89.88,1.24,0,1.42-1.06,1.78-2.13l.53-1.6a5.48,5.48,0,0,0,.35-1.6A.83.83,0,0,0,108.82,51.61Zm9.24,5.69c-.18.53-.36,1.07-.53,1.6h-1.6l.17-1.07A2.5,2.5,0,0,1,114,58.9c-.89,0-1.78-.35-1.78-1.42,0-.36.18-.53.18-.89l1.78-5.87h1.6l-1.42,5.34a2.48,2.48,0,0,0-.36,1.06c0,.54.36.71.89.71,1.07,0,1.6-1.06,1.78-1.95l1.6-5.16h1.6Zm7.65-5.16c-.18-.18-.18-.18-.36-.18-1.24,0-1.95.89-2.31,2.14l-1.42,4.8H120l2-6.76a4.13,4.13,0,0,1,.36-1.42h1.6l-.36,1.06a2.87,2.87,0,0,1,2.49-1.24Zm10.13,6.76V56.06h-3.73l-1.43,2.84h-2l6.75-11.74h2.14V58.9ZM133,54.63h2.84l.18-6.05Zm2.84,4.27V56.06h-3.73l-1.43,2.84h-2l6.75-11.74h2.14V58.9ZM133,54.63h2.84l.18-6.05Zm12.26,2.67c-.17.53-.35,1.07-.53,1.6h-1.6l.36-1.07a2.78,2.78,0,0,1-2.14,1.07,1.6,1.6,0,0,1-1.78-1.78,5.41,5.41,0,0,1,.54-2.31c.53-2.31,1.06-4.27,3.38-4.27a1.79,1.79,0,0,1,1.77.89l1.25-4.27h1.6Zm-1.42-5.69c-1.24,0-1.78,2.13-2.13,3.2a9,9,0,0,0-.36,2c0,.53.18,1.06.71,1.06,1.43,0,2-1.95,2.14-3a9.71,9.71,0,0,0,.53-2.14C144.73,52,144.55,51.61,143.84,51.61Zm6.76,7.29h-2l.18-8.18h1.6l-.36,6.58,3.38-6.58H155Zm10.67-5.69a53.14,53.14,0,0,0-1.43,5.69h-1.6l.18-1.07a2.61,2.61,0,0,1-2.31,1.07,1.49,1.49,0,0,1-1.6-1.6c0-2.67,2.13-3.56,4.62-3.56h.36a4.35,4.35,0,0,0,.35-1.42c0-.54-.18-.71-.71-.71a1.37,1.37,0,0,0-1.42,1.24h-1.78c.54-1.78,1.6-2.31,3.38-2.31,1.07,0,2.13.18,2.13,1.42a2.77,2.77,0,0,1-.17,1.25ZM159,54.81c-1.43,0-2.67.71-2.67,2.31a.65.65,0,0,0,.71.71c1.42,0,2-1.95,2.31-3ZM169.62,53l-1.78,5.87h-1.6l1.43-5.51a2.69,2.69,0,0,0,.35-1.07c0-.54-.35-.71-.89-.71-1.06,0-1.6,1.24-1.95,2.13l-1.43,5.16h-1.6l1.78-6.76a3.34,3.34,0,0,0,.36-1.42h1.78l-.18.89A2.5,2.5,0,0,1,168,50.54c1.07,0,1.78.35,1.78,1.24,0,.54-.18.89-.18,1.25Zm6-1.25h-1.42L173,56.59a.65.65,0,0,0-.18.53c0,.54.36.54.72.54h.53l-.36,1.24h-1.06c-.71,0-1.61,0-1.61-1.07a2.2,2.2,0,0,1,.18-1.06l1.43-5H171.4l.36-1.06H173l.36-1.43,1.95-.71-.71,2.14H176Zm6.75,1.43a55.57,55.57,0,0,0-1.6,5.69h-1.6l.36-1.07a2.85,2.85,0,0,1-2.31,1.07,1.49,1.49,0,0,1-1.6-1.6c0-2.67,2.13-3.56,4.44-3.56h.54a4.35,4.35,0,0,0,.35-1.42.64.64,0,0,0-.71-.71,1.56,1.56,0,0,0-1.6,1.24h-1.6c.36-1.78,1.6-2.31,3.2-2.31,1.07,0,2.31.18,2.31,1.42A2.63,2.63,0,0,1,182.42,53.21Zm-2.49,1.6a2.19,2.19,0,0,0-2.48,2.31.64.64,0,0,0,.71.71c1.42,0,1.77-1.95,2.13-3Zm8.72,4.45a3.18,3.18,0,0,1-3.56,2.67c-1.07,0-2.31-.18-2.31-1.43v-.89h1.78v.72a.65.65,0,0,0,.71.71c1.6,0,1.78-2.14,2.13-3.21a2.51,2.51,0,0,1-2,.89c-1.25,0-1.78-.53-1.78-1.77a9.28,9.28,0,0,1,.35-2.14c.54-2.14,1.25-4.27,3.56-4.27.71,0,1.42.18,1.6,1.07l.36-.89h1.6c-.89,2.84-1.6,5.69-2.49,8.54Zm-.71-7.65c-1.43,0-2,2.13-2.32,3.2a8.27,8.27,0,0,0-.35,1.78c0,.71.18,1.07.89,1.07,1.24,0,1.78-2,2.13-3a6.28,6.28,0,0,0,.36-2c0-.53-.18-1.06-.71-1.06ZM197.89,55H193.8a7.82,7.82,0,0,0-.53,2c0,.71.35.88.89.88,1.06,0,1.42-.88,1.78-1.6h1.6c-.72,1.78-1.6,2.85-3.74,2.85-1.24,0-2.13-.53-2.13-2A4.79,4.79,0,0,1,192.2,55c.54-2.32,1.42-4.45,4.27-4.45,1.25,0,2,.35,2,1.6a15.89,15.89,0,0,1-.54,2.85Zm-1.78-3.38c-1.24,0-1.77,1.42-2,2.31h2.31a4.11,4.11,0,0,0,.35-1.42C196.82,52,196.65,51.61,196.11,51.61Z"/>
  </g>
</svg>
