<svg xmlns="http://www.w3.org/2000/svg" width="162" height="91" viewBox="0 0 162 91">
  <title>motul-expert-logo</title>
  <g>
    <rect width="162" height="91" style="fill: #fff"/>
    <path d="M65.61,16.59a5.73,5.73,0,0,0-5.81,2.86,6,6,0,0,0-.19,5.94,5.08,5.08,0,0,0,4,2.67,5.56,5.56,0,0,0,5.24-2.67,6.49,6.49,0,0,0,.29-6.22A4.9,4.9,0,0,0,65.61,16.59ZM0,0V44H162V0ZM45.41,7.56v29H35.14l.56-12.68L30.11,36.6H23.26l-2-12.86L18,36.57H7.44l8.62-29H27.24L29,19.35,34,7.56Zm35.3,15a15.12,15.12,0,0,1-8.94,13.09,18.26,18.26,0,0,1-19.61-3.23c-4.36-4.08-5.25-11-3-16.24A16.17,16.17,0,0,1,64.54,6.94a18.72,18.72,0,0,1,7.83,1.68l1.1.84L80,17.74a9.93,9.93,0,0,1,.71,4.85ZM103,16.76l-4.62-.18L96,36.57H84.81l2.54-19.95-4.25.14L76,7.54h28Zm24.28,18c-3.69,2.64-8.62,3.05-13.39,2.4-3.79-.69-8.11-3.12-9.35-6.91a13,13,0,0,1-.44-4.51l2.21-18.16h11l-2.08,18a2.71,2.71,0,0,0,1.42,2.64,3,3,0,0,0,3.06-.53,3.87,3.87,0,0,0,1.14-2.24l2.49-17.91H134l-2.31,19.87a11,11,0,0,1-4.44,7.31Zm24.51,1.85h-18.7l3.89-29h11.11L145.6,27.46h8.78Z" style="fill: #ed252f"/>
    <path d="M159,50V88H3V50H159m3-3H0V91H162ZM28.51,56.28v6h-13v3.09H27.3V71.1H15.5v3.61H28.86V81H8.05V56.28Zm27.41,0L48,67.88,56.89,81H47.73l-2.39-4a31,31,0,0,1-1.81-3.54,39.14,39.14,0,0,1-2,3.65L39.2,81H30.42l9-13.12-8.15-11.6h8.88L42,59.54a35.53,35.53,0,0,1,1.83,3.65c.63-1.32,1.17-2.41,1.63-3.26l2-3.65Zm2.91,0H69.58q10.78,0,10.79,8.78a7.57,7.57,0,0,1-2.55,6.2,10.25,10.25,0,0,1-6.75,2.1H66.36V81H58.83Zm7.53,6.08V67.6H70c2.08,0,3.12-.87,3.12-2.6S72,62.36,69.86,62.36Zm37.74-6.08v6h-13v3.09h11.79V71.1H91.09v3.61h13.35V81H83.63V56.28Zm4.23,0h13.28a13.15,13.15,0,0,1,3,.35,10.54,10.54,0,0,1,2.81,1.13A5.82,5.82,0,0,1,129.61,60a7.36,7.36,0,0,1,.81,3.54,7,7,0,0,1-1,3.65,6,6,0,0,1-2.66,2.39,3.8,3.8,0,0,1,2.53,2.22,11.69,11.69,0,0,1,1.08,3.89l.24,2.61a6.5,6.5,0,0,0,.63,2.67h-7.5a8.09,8.09,0,0,1-.45-2.33l-.1-1.38a19.19,19.19,0,0,0-.26-2,6,6,0,0,0-.57-1.53,2.55,2.55,0,0,0-1.25-1.11,5.68,5.68,0,0,0-2.12-.34H115.8V81h-7.49ZM115.82,62v5.07H120c2.06,0,3.09-.86,3.09-2.57s-1.17-2.5-3.5-2.5Zm38.23-5.73v6.35h-6.94V81h-7.56V62.63h-6.91V56.28Z" style="fill: #ed252f"/>
  </g>
</svg>
