<svg xmlns="http://www.w3.org/2000/svg" display="none">
    <symbol id="motul-evo-logo" viewBox="0 0 283.46 10">
        <g>
            <rect width="176.44" height="65.3" style="fill: #e52429"/>
            <rect x="176.44" width="107.02" height="65.3" style="fill: #fff"/>
            <path d="M49.94,15.7V47.8H38.84l.6-14-6.1,14h-7.4l-2.2-14.2-3.6,14.2H8.74L18,15.7h12.2l1.9,13,5.4-13Zm62.6,10.2-5-.2-2.6,22.1H92.84l2.7-22.1-4.6.2-7.7-10.2h30.4Zm15.6-10.2-2.3,19.9a3,3,0,0,0,1.5,2.9,3.27,3.27,0,0,0,3.3-.6,4,4,0,0,0,1.2-2.5l2.8-19.7h11.6l-2.5,21.9a12.11,12.11,0,0,1-4.8,8.1c-4,2.9-9.4,3.4-14.6,2.6-4.1-.8-8.8-3.4-10.2-7.6a13.75,13.75,0,0,1-.5-5l2.5-20Zm30.8,21.9h9.5l-2.8,10.2h-20.4l4.3-32.1h12.1ZM79.34,16.9l1.2.9,7.1,9.1c.8,1.5.8,3.5.8,5.4a16.79,16.79,0,0,1-9.7,14.5c-6.8,3.2-16,1.7-21.3-3.6-4.9-4.5-5.8-12.1-3.3-17.9A17.42,17.42,0,0,1,70.74,15a20.44,20.44,0,0,1,8.6,1.9m-7.4,8.8a6.27,6.27,0,0,0-6.3,3.2,6.74,6.74,0,0,0-.2,6.6,5.65,5.65,0,0,0,4.4,3,6,6,0,0,0,5.7-3,7.34,7.34,0,0,0,.3-6.9,5.28,5.28,0,0,0-3.9-2.9" style="fill: #fff"/>
            <path d="M184.34,15.7h22.3v7.2h-13.1v5.6H204v6.6h-10.5V41h13.8v7.2h-23.1V15.7Zm25.1,0h10L226,38.4l6.6-22.7h8.7l-10.6,32.4h-10.5ZM241.64,32v-.3c0-9.9,7.4-16.5,17.1-16.5,9.9,0,17.2,6.2,17.2,16.2v.4c0,10-6.8,16.7-17.3,16.7S241.64,41.8,241.64,32Zm24.6-.1v-.4c0-5.7-2.9-9.1-7.5-9.1s-7.4,3.3-7.4,9.2V32c0,5.9,3,9.3,7.5,9.3S266.24,37.7,266.24,31.9Z" style="fill: #e52429"/>
        </g>
    </symbol>
    <symbol id="sachs-service-logo" viewBox="0 0 175.75 175.53">
        <g>
            <polygon points="0 0 175.75 0 175.75 106.92 0 106.92 0 0 0 0" style="fill: #009fe3;fill-rule: evenodd"/>
            <polygon points="0 110.27 175.75 110.27 175.75 175.53 0 175.53 0 110.27 0 110.27" style="fill-rule: evenodd"/>
            <path d="M175.75,110.27H0v-3.35H175.75Z" style="fill: #fff;fill-rule: evenodd"/>
            <path d="M94,39.51a6.11,6.11,0,1,0-6.12,6.1h0A6.13,6.13,0,0,0,94,39.51Zm1.84-4.17a9.81,9.81,0,0,1,3,6.63c0,6.77-9,12.57-22,15.4-.9.15-.82.44,0,.44,16.29-.44,29.91-4.91,34.74-11a2.79,2.79,0,0,0-.07-3.64c-2.75-3.43-8.19-6.33-15.33-8.26-.44-.08-.67.22-.44.44Zm-16.3,8.78c.37.15.67-.15.37-.44a9.51,9.51,0,0,1-3-6.63c0-6.77,8.93-12.57,22-15.32.81-.23.81-.52,0-.52-16.37.44-30,4.91-34.75,11a2.89,2.89,0,0,0,0,3.64c2.75,3.43,8.26,6.33,15.4,8.26ZM74.7,82.22,66.59,67.93H61.53l-8,14.29-1.86,3.27h5.65L58.63,83H69.57l1.26,2.53h5.73Zm-10.64-10,4,7.74h-8L64,72.22Zm53.13,2.86h-11V67.93h-5.06V85.49h5.06V78.35h11v7.14h5.06V67.93h-5.06v7.15Zm30.36,5.5c0-2.68-2.46-3.87-6.55-5.06-3.72-1.11-7.89-1.86-9.52-2.68-1.34-.59-1.42-2.53,4-2.53,2,0,5.51.38,5.51,1.86h5.8c0-3.42-5.43-4.76-11.38-4.76-4.54,0-10.57,1.19-10.57,4.91,0,4.24,12.13,5.51,15.41,6.92,1.19.52,1,2.16-1.27,3h0a9.24,9.24,0,0,1-3.57.59,12.58,12.58,0,0,1-3.5-.59h-.07c-1-.3-1.86-.89-1.86-1.64H124.1a3.24,3.24,0,0,0,.52,1.71h0c1.79,2.83,8,3.43,11.16,3.43,6.18,0,10-1.49,11.24-3.43h0a3,3,0,0,0,.52-1.71Zm-95.91,0c0-2.68-2.46-3.87-6.55-5.06-3.72-1.11-7.89-1.86-9.52-2.68-1.34-.59-1.34-2.53,4-2.53,2.09,0,5.51.38,5.51,1.86h5.8c0-3.42-5.43-4.76-11.38-4.76-4.54,0-10.57,1.19-10.57,4.91,0,4.24,12.21,5.51,15.41,6.92,1.19.52,1,2.16-1.27,3a8.93,8.93,0,0,1-3.5.59A12.38,12.38,0,0,1,36,82.22h-.07c-1-.3-1.79-.89-1.79-1.64H28.27a3.22,3.22,0,0,0,.45,1.71c1.79,2.83,8,3.43,11.24,3.43,6.17,0,9.89-1.49,11.16-3.43h0A3,3,0,0,0,51.64,80.58ZM87.43,70.39c4.09,0,5.73,1.56,5.73,2.45h5.58c0-1.11-1.94-5.43-11.31-5.43-8.78,0-12.06,4.76-12.06,9.15a8.7,8.7,0,0,0,2.16,5.73h.08c1.86,2,5,3.43,9.82,3.43,6.17,0,9.08-1.86,10.41-3.43h0a3.85,3.85,0,0,0,.9-2H93.16c0,.53-.67,1.42-2.24,1.94h-.07a10.44,10.44,0,0,1-3.42.52,6.52,6.52,0,0,1-2.76-.52H84.6a5.84,5.84,0,0,1-3.79-5.66c0-3.57,2.75-6.17,6.62-6.17ZM31.25,131a4.41,4.41,0,0,0,.67,2.67,2.37,2.37,0,0,0,3.33.39,2.87,2.87,0,0,0,.39-.39,5.06,5.06,0,0,0,.6-2.67,4.44,4.44,0,0,0-.67-2.68,2.1,2.1,0,0,0-1.79-1,2.21,2.21,0,0,0-1.86,1A4.38,4.38,0,0,0,31.25,131Zm-2.16-.08a5.27,5.27,0,0,1,1.27-3.64A4.6,4.6,0,0,1,33.78,126a4.85,4.85,0,0,1,3.42,1.27,6.4,6.4,0,0,1,0,7.44A4.54,4.54,0,0,1,33.78,136a4.43,4.43,0,0,1-3.42-1.34,5.43,5.43,0,0,1-1.27-3.8Zm13-.52H43.3a3.52,3.52,0,0,0,1.57-.3,1.28,1.28,0,0,0,.44-1,1.35,1.35,0,0,0-.44-1.12,2.6,2.6,0,0,0-1.57-.29H42v2.75ZM40,135.87V126h4.09a4,4,0,0,1,2.53.67,2.58,2.58,0,0,1,.3,3.43,2.46,2.46,0,0,1-1.42.82,1.9,1.9,0,0,1,1.19.52,2.32,2.32,0,0,1,.45,1.34l.22,1.41a4.24,4.24,0,0,0,.15,1,2.87,2.87,0,0,0,.3.67H45.54a.93.93,0,0,1-.15-.45c-.08-.22-.08-.45-.15-.74l-.15-1.49a2.67,2.67,0,0,0-.22-1.12,2.82,2.82,0,0,0-1-.15H42v4Zm9,0V126h2v9.83Zm12.57-5.21v4.54a5,5,0,0,1-1.71.59,9.68,9.68,0,0,1-2.08.23,5.48,5.48,0,0,1-3.8-1.27,5,5,0,0,1-1.41-3.65,4.86,4.86,0,0,1,4.48-5.2c.21,0,.43,0,.65,0a4.53,4.53,0,0,1,2.83.81,2.59,2.59,0,0,1,1,2.24v.15H59.6a1.8,1.8,0,0,0-.52-1.34,2,2,0,0,0-1.49-.52,2.63,2.63,0,0,0-2.16,1,4.85,4.85,0,0,0-.74,2.75,3.76,3.76,0,0,0,.82,2.6,3,3,0,0,0,2.38.9,3.22,3.22,0,0,0,.82-.08,2.89,2.89,0,0,0,.82-.15v-2.08H57.66v-1.56Zm1.79,5.21V126h2v9.83Zm3.94,0V126h3l3.7,7.93V126h1.93v9.83H73l-3.79-8.11v8.11Zm9.6,0L80.4,126h2.45l3.43,9.83H84.15l-.74-2.09H79.54l-.74,2.09Zm3.2-3.72h2.83L81.55,128l-1.49,4.17Zm7.22,3.72V126H89.4v8.19h4.39v1.64Zm14.81-3.2h2.08a2.14,2.14,0,0,0,.45,1.48,2,2,0,0,0,1.48.45,1.82,1.82,0,0,0,1.27-.37,1.11,1.11,0,0,0,.44-1c0-.59-.74-1.19-2.3-1.71h-.22c0-.07-.08-.07-.15-.07a6.05,6.05,0,0,1-1.86-.9,1.6,1.6,0,0,1-.67-.74,2.32,2.32,0,0,1-.23-1,2.42,2.42,0,0,1,1-2.09,4.29,4.29,0,0,1,2.68-.81,4.09,4.09,0,0,1,2.53.74,2.58,2.58,0,0,1,.9,2.08v.08h-1.86a1.38,1.38,0,0,0-.52-1.12,1.46,1.46,0,0,0-1.2-.44,1.73,1.73,0,0,0-1.11.37,1.05,1.05,0,0,0-.45.89c0,.6.82,1.12,2.38,1.64a.26.26,0,0,0,.15.07,7.58,7.58,0,0,1,2.46,1.19,2.93,2.93,0,0,1-.48,3.87,4.7,4.7,0,0,1-2.9.72,4.23,4.23,0,0,1-2.9-.82,3.07,3.07,0,0,1-1-2.38v-.15Zm8.4,3.2L114.1,126h2.46l3.42,9.83h-2.15l-.67-2.09h-3.87l-.75,2.09Zm3.28-3.72h2.82L115.26,128l-1.49,4.17Zm15,.74a2.8,2.8,0,0,1-1.11,2.31,4.16,4.16,0,0,1-2.83.82,4.32,4.32,0,0,1-3.35-1.27,5.42,5.42,0,0,1-1.11-3.72,5.36,5.36,0,0,1,1.19-3.79,4,4,0,0,1,3.27-1.34,4.53,4.53,0,0,1,2.83.81,3,3,0,0,1,1.11,2.16h-1.93a1.56,1.56,0,0,0-.52-1.11,2.63,2.63,0,0,0-1.42-.38,2,2,0,0,0-1.78.9,4.38,4.38,0,0,0-.67,2.68,4.52,4.52,0,0,0,.67,2.75,2,2,0,0,0,1.86.89,1.77,1.77,0,0,0,1.26-.45,1.55,1.55,0,0,0,.6-1.26Zm1.42,3V126h2.08v4H136v-4h2v9.83h-2v-4.32h-3.72v4.32Zm9.3-3.2h2.08a2.14,2.14,0,0,0,.45,1.48,2.25,2.25,0,0,0,1.49.45,1.7,1.7,0,0,0,1.26-.37,1.09,1.09,0,0,0,.45-1c0-.59-.75-1.19-2.24-1.71h-.22a.26.26,0,0,0-.22-.07,6.05,6.05,0,0,1-1.86-.9,1.6,1.6,0,0,1-.67-.74,2.31,2.31,0,0,1-.22-1,2.4,2.4,0,0,1,1-2.09,4.21,4.21,0,0,1,2.68-.81,4.09,4.09,0,0,1,2.53.74,2.62,2.62,0,0,1,.89,2.08v.08H145a1.32,1.32,0,0,0-.45-1.12,1.63,1.63,0,0,0-1.19-.44,1.82,1.82,0,0,0-1.19.37,1.05,1.05,0,0,0-.45.89c0,.6.82,1.12,2.46,1.64a.07.07,0,0,0,.07.07h0a6,6,0,0,1,2.46,1.19,2.55,2.55,0,0,1,.59,1.71,2.63,2.63,0,0,1-1,2.16,5,5,0,0,1-3,.75,4.23,4.23,0,0,1-2.9-.82,3,3,0,0,1-1-2.38v-.15ZM33.78,154.39v.15a2.2,2.2,0,0,0,.67,1.71,2.24,2.24,0,0,0,1.71.67,3.7,3.7,0,0,0,2-.52,1.37,1.37,0,0,0,.67-1.26c0-.82-1-1.49-2.83-1.94-.44-.15-.82-.22-1-.29A10.22,10.22,0,0,1,30.66,151a3.82,3.82,0,0,1-1.2-3.05,4.28,4.28,0,0,1,1.87-3.5,8.4,8.4,0,0,1,5-1.34,8.3,8.3,0,0,1,4.91,1.19A4.16,4.16,0,0,1,43,147.88v.29H38.39v-.07a2.06,2.06,0,0,0-.52-1.56,2.45,2.45,0,0,0-1.56-.52,2,2,0,0,0-1.56.52,1.43,1.43,0,0,0-.6,1.19c0,.82,1.19,1.49,3.57,2.08a13,13,0,0,1,1.49.37,6.47,6.47,0,0,1,3.28,1.71,4.23,4.23,0,0,1,1,2.91,4.16,4.16,0,0,1-1.94,3.79,9.56,9.56,0,0,1-5.5,1.34,7.66,7.66,0,0,1-5-1.44,4.88,4.88,0,0,1-1.79-4.1Zm15,5.29v-16.3h12v3.13H53.13v3.27h7.21v3.13H53.13v3.49h7.81v3.28Zm21.72-9.3h1.79a3.78,3.78,0,0,0,2.16-.45,1.74,1.74,0,0,0,.59-1.56,1.58,1.58,0,0,0-.59-1.49,3.42,3.42,0,0,0-2-.45h-2v3.95Zm-4.5,9.3v-16.3h7.36a7.59,7.59,0,0,1,4.54,1,3.45,3.45,0,0,1,1.57,3.13,3.87,3.87,0,0,1-1,2.75,4.79,4.79,0,0,1-2.9,1.27v.07a3.65,3.65,0,0,1,2.15.6,3,3,0,0,1,1.15,1.8,19.84,19.84,0,0,1,.37,2.31,29.63,29.63,0,0,0,.67,3.35H75.08a25.78,25.78,0,0,1-.38-2.76c-.14-1-.22-1.63-.29-1.86a2,2,0,0,0-.67-1.34,2.61,2.61,0,0,0-1.49-.37H70.46v6.33Zm23,0-5.65-16.3H88.1l3.79,11.83,4-11.83h4.46l-5.8,16.3Zm15.55,0v-16.3h4.54v16.3Zm25-5.29v.15a4.71,4.71,0,0,1-1.93,4,9.39,9.39,0,0,1-5.51,1.41,8,8,0,0,1-6-2.08,8.48,8.48,0,0,1-2.09-6,9,9,0,0,1,2.16-6.47c1.42-1.49,3.43-2.24,6.18-2.24a8.34,8.34,0,0,1,5.13,1.42,5,5,0,0,1,1.94,3.94h-4.62a2,2,0,0,0-.81-1.56,3,3,0,0,0-1.94-.6,2.62,2.62,0,0,0-2.45,1.34,7.75,7.75,0,0,0-.9,4.09,6.35,6.35,0,0,0,.9,3.73,2.71,2.71,0,0,0,2.53,1.26,3.12,3.12,0,0,0,1.93-.6,2.66,2.66,0,0,0,.82-1.71Zm5,5.29v-16.3h12v3.13H139v3.27h7.22v3.13H139v3.49h7.81v3.28Z" style="fill: #fff;fill-rule: evenodd"/>
        </g>
    </symbol>
</svg>