<?xml version="1.0" encoding="utf-8"?>
<!-- Generator: Adobe Illustrator 15.1.0, SVG Export Plug-In . SVG Version: 6.00 Build 0)  -->
<!DOCTYPE svg PUBLIC "-//W3C//DTD SVG 1.1//EN" "http://www.w3.org/Graphics/SVG/1.1/DTD/svg11.dtd">
<svg version="1.1" id="Ebene_1" xmlns="http://www.w3.org/2000/svg" xmlns:xlink="http://www.w3.org/1999/xlink" x="0px" y="0px"
	 width="50px" height="50px" viewBox="0 0 50 50" style="enable-background:new 0 0 50 50;" xml:space="preserve">
<style type="text/css">
<![CDATA[
	.st0{fill:#484848;}
]]>
</style>
<path class="st0" d="M45.944,11.415c-1.9-1.992-4.798-3.133-7.949-3.133c-2.603,0-5.031,0.793-6.838,2.232
	c-3.506,2.793-4.062,5.967-4.39,8.599c-0.56-0.168-1.153-0.26-1.768-0.26c-0.426,0-0.841,0.043-1.243,0.126
	c-0.576-2.763-0.768-6.044,0.55-8.629c1.458-2.859,1.567-5.686,0.299-7.755c-1.008-1.645-2.793-2.589-4.9-2.589
	c-2.611,0-5.555,1.438-8.292,4.051c-3.771,3.599-4.201,10.647-0.901,14.788c2.793,3.506,5.965,4.062,8.598,4.389
	c-0.168,0.56-0.26,1.153-0.26,1.768c0,0.427,0.043,0.843,0.126,1.245c-1.245,0.26-2.593,0.441-3.938,0.441
	c-1.821,0-3.399-0.334-4.692-0.993c-1.528-0.779-3.029-1.174-4.461-1.174c-2.494,0-4.513,1.24-5.402,3.318
	c-1.296,3.031,0.038,7.049,3.569,10.749c1.9,1.991,4.798,3.133,7.949,3.133c2.603,0,5.032-0.792,6.839-2.232
	c3.505-2.792,4.062-5.966,4.389-8.599c0.561,0.169,1.153,0.262,1.768,0.262c0.426,0,0.842-0.044,1.243-0.126
	c0.576,2.762,0.768,6.043-0.55,8.629c-1.458,2.858-1.567,5.685-0.299,7.755c1.008,1.645,2.794,2.589,4.9,2.589
	c2.61,0,5.556-1.439,8.292-4.051c3.771-3.6,4.199-10.647,0.9-14.788c-2.793-3.506-5.967-4.062-8.599-4.39
	c0.168-0.561,0.261-1.153,0.261-1.768c0-0.427-0.043-0.843-0.127-1.245c1.245-0.259,2.593-0.441,3.938-0.441
	c1.821,0,3.4,0.333,4.692,0.993c1.528,0.779,3.029,1.175,4.461,1.175c2.493,0,4.513-1.241,5.401-3.318
	C50.811,19.132,49.477,15.114,45.944,11.415z M25,28.253c-1.796,0-3.253-1.456-3.253-3.253c0-1.796,1.457-3.252,3.253-3.252
	c1.797,0,3.253,1.457,3.253,3.252C28.253,26.797,26.797,28.253,25,28.253z"/>
</svg>
