<?xml version="1.0" encoding="utf-8"?>
<!-- Generator: Adobe Illustrator 15.1.0, SVG Export Plug-In . SVG Version: 6.00 Build 0)  -->
<!DOCTYPE svg PUBLIC "-//W3C//DTD SVG 1.1//EN" "http://www.w3.org/Graphics/SVG/1.1/DTD/svg11.dtd">
<svg version="1.1" id="Ebene_1" xmlns="http://www.w3.org/2000/svg" xmlns:xlink="http://www.w3.org/1999/xlink" x="0px" y="0px"
	 width="50px" height="50px" viewBox="0 0 50 50" style="enable-background:new 0 0 50 50;" xml:space="preserve">
<style type="text/css">
<![CDATA[
	.st0{fill:#484848;}
]]>
</style>
<path class="st0" d="M13.047,36.109l6.412,4.74c0.16,0.117,0.354,0.182,0.554,0.182h17.606c0.515,0,0.933-0.418,0.933-0.932v-5.943
	h3.081v4.262c0,0.516,0.418,0.932,0.933,0.932h4.797c0.323,0,0.624-0.168,0.794-0.443C48.231,38.785,50,35.836,50,28.826
	c0-7.011-1.769-9.959-1.845-10.082c-0.169-0.275-0.47-0.442-0.793-0.442h-5.4c-0.515,0-0.932,0.417-0.932,0.932v3.808h-1.8v-5.49
	c0-0.515-0.417-0.932-0.932-0.932h-4.22l-2.344-2.613c-0.177-0.197-0.429-0.31-0.693-0.31h-4.965v-1.534h2.177
	c0.882,0,1.598-0.715,1.598-1.597c0-0.882-0.716-1.598-1.598-1.598H15.396c-0.882,0-1.598,0.715-1.598,1.598
	c0,0.882,0.716,1.597,1.598,1.597h2.177v1.534h-4.286c-0.268,0-0.521,0.115-0.699,0.315l-2.887,3.271H6.02
	c-0.515,0-0.932,0.417-0.932,0.932v5.429H3.195v-5.452c0-0.882-0.716-1.598-1.598-1.598C0.715,16.596,0,17.311,0,18.193v14.367
	c0,0.883,0.715,1.598,1.598,1.598c0.882,0,1.598-0.715,1.598-1.598v-5.453h1.893v8.07c0,0.514,0.417,0.932,0.932,0.932H13.047z"/>
</svg>
