<?xml version="1.0" encoding="utf-8"?>
<!-- Generator: Adobe Illustrator 23.0.2, SVG Export Plug-In . SVG Version: 6.00 Build 0)  -->
<svg version="1.1" id="Слой_3" xmlns="http://www.w3.org/2000/svg" xmlns:xlink="http://www.w3.org/1999/xlink" x="0px" y="0px"
	 width="50px" height="50px" viewBox="0 0 1919.4 1921.2" style="enable-background:new 0 0 1919.4 1921.2;"
	 xml:space="preserve">
<style type="text/css">
	.st0{fill:#484848;}
</style>
<g id="XMLID_1_">
	<g>
		<path class="st0" d="M1662,775.9l-154.9,154.9c-7.8,7.8-20.7,7.8-28.5,0l-32.5-32.5l-298.5,298.5l22.4,22.4
			c5.2,5.2,7.8,12,7.8,18.8c0,6.8-2.6,13.6-7.8,18.8c-10.4,10.4-27.3,10.4-37.6,0l-22.4-22.4l-393.1,393.1c-4.7,4.7-12.3,4.7-17,0
			L554.5,1482c-0.4,0.5-0.9,1-1.3,1.4l-103.5,103.6l7.5,7.5c11.7,11.7,11.7,30.8,0,42.4l-15.6,15.7c-11.7,11.7-30.8,11.7-42.4,0
			l-7.5-7.5l-266.9,267.2c-11.7,11.7-30.8,11.7-42.4,0l-73.6-73.5c-11.7-11.7-11.7-30.7,0-42.4l266.9-267.2l-8.4-8.4
			c-11.7-11.7-11.7-30.8,0-42.4l15.6-15.7c11.7-11.7,30.8-11.7,42.4,0l8.4,8.4l103.5-103.6c0.5-0.5,1-0.9,1.5-1.4L292.4,1220
			c-4.7-4.7-4.7-12.3,0-17l393.1-393.1l-21.8-21.8c-5.2-5.2-7.8-12-7.8-18.8c0-6.8,2.6-13.6,7.8-18.8c10.4-10.4,27.3-10.4,37.6,0
			l21.8,21.8l298.5-298.5l-31.9-31.9c-7.8-7.8-7.8-20.7,0-28.5l161.9-161.9c7.8-7.8,20.7-7.8,28.5,0L1366,437.4l103.6-103.6
			l-7.5-7.5c-11.7-11.7-11.7-30.8,0-42.4l15.7-15.7c11.7-11.7,30.8-11.7,42.4,0l7.5,7.5l267-267c11.7-11.7,30.8-11.7,42.4,0
			l73.6,73.6c11.7,11.7,11.7,30.8,0,42.4l-267,267l8.4,8.4c11.7,11.7,11.7,30.8,0,42.4l-15.7,15.7c-11.7,11.7-30.8,11.7-42.4,0
			l-8.4-8.4L1482,553.4l180,180C1673.7,745.1,1673.7,764.2,1662,775.9z"/>
	</g>
	<g>
	</g>
</g>
<g>
</g>
<g>
</g>
<g>
</g>
<g>
</g>
<g>
</g>
</svg>
