<?xml version="1.0" encoding="utf-8"?>
<!-- Generator: Adobe Illustrator 15.1.0, SVG Export Plug-In . SVG Version: 6.00 Build 0)  -->
<!DOCTYPE svg PUBLIC "-//W3C//DTD SVG 1.1//EN" "http://www.w3.org/Graphics/SVG/1.1/DTD/svg11.dtd">
<svg version="1.1" id="Ebene_1" xmlns="http://www.w3.org/2000/svg" xmlns:xlink="http://www.w3.org/1999/xlink" x="0px" y="0px"
	 width="50px" height="50px" viewBox="0 0 50 50" style="enable-background:new 0 0 50 50;" xml:space="preserve">
<style type="text/css">
<![CDATA[
	.st0{fill:#484848;}
]]>
</style>
<g>
	<path class="st0" d="M47.984,7.2H2.016C0.902,7.2,0,8.102,0,9.215v31.569C0,41.897,0.902,42.8,2.016,42.8h45.968
		c1.113,0,2.016-0.902,2.016-2.016V9.215C50,8.102,49.098,7.2,47.984,7.2z M45.968,11.231v2.646h-1.021v0.155h1.021v2.606h-1.021
		v0.155h1.021V19.4h-1.021v0.155h1.021v2.606h-1.021v0.155h1.021v2.606h-1.021v0.155h1.021v0.061l-0.939,2.193l-3.36-6.371
		c-0.16-0.303-0.485-0.48-0.826-0.452s-0.632,0.259-0.739,0.584l-1.255,3.83h-1.155v0.155h1.104l-0.854,2.606h-0.251v0.155h0.2
		l-0.305,0.929l-1.728-6.452h0.624v-0.155h-0.665l-0.461-1.722c-0.096-0.355-0.407-0.609-0.774-0.631
		c-0.368-0.021-0.707,0.195-0.843,0.537l-0.721,1.816h-0.163v0.155h0.101l-0.634,1.597l-0.756-4.358h0.08V19.4h-0.106l-0.452-2.606
		h0.559v-0.155h-0.585l-0.452-2.606h1.037v-0.155h-1.063l-0.017-0.092c-0.065-0.379-0.377-0.667-0.76-0.704
		c-0.382-0.037-0.742,0.188-0.878,0.547l-0.095,0.249h-0.813v0.155h0.756l-2.03,5.368h-1.144v0.155h1.085l-0.985,2.606h-0.1v0.155
		h0.041l-2.03,5.368h-0.429v0.155h0.371l-1.339,3.54l-0.537-3.54h0.297v-0.155h-0.32l-0.395-2.606h0.715v-0.155h-0.739l-0.395-2.606
		h1.134v-0.155H20.82l-0.91-5.999c-0.06-0.395-0.386-0.695-0.784-0.723c-0.4-0.028-0.763,0.224-0.877,0.606l-1.827,6.115h-0.489
		v0.155h0.443l-1.369,4.582l-0.314-1.82h0.031v-0.155h-0.058l-0.45-2.606h0.508v-0.155h-0.535l-0.224-1.297
		c-0.065-0.381-0.38-0.67-0.765-0.704c-0.385-0.035-0.746,0.195-0.877,0.559l-0.522,1.442h-0.703v0.155h0.647l-1.29,3.564
		L9.4,22.316h0.489v-0.155H9.354l-0.49-1.656c-0.105-0.354-0.426-0.601-0.795-0.611c-0.37-0.008-0.703,0.219-0.827,0.567
		c-0.176,0.496-0.381,1.071-0.604,1.7H6.263v0.155h0.32c-0.567,1.596-1.249,3.518-1.902,5.368H4.032v-2.606h1.022v-0.155H4.032
		v-2.606h1.022v-0.155H4.032v-2.606h1.022V19.4H4.032v-2.606h1.022v-0.155H4.032v-2.606h1.022v-0.155H4.032v-2.646H45.968z
		 M4.032,29.523v-1.685h0.594C4.423,28.412,4.224,28.978,4.032,29.523z M4.032,38.768v-2.646h1.022v-0.155H4.032v-1.258
		c0.103-0.307,0.262-0.768,0.463-1.348h0.56v-0.155H4.549c0.471-1.354,1.152-3.289,1.887-5.367h1.036v-0.155H6.49
		c0.303-0.856,0.614-1.735,0.923-2.606h0.059v-0.155H7.468c0.169-0.478,0.338-0.954,0.504-1.42l1.237,4.182H8.681v0.155h0.575
		l0.3,1.015c0.105,0.354,0.424,0.6,0.792,0.61c0.371,0.012,0.702-0.216,0.828-0.562l0.385-1.062h0.747v-0.155h-0.69l1.215-3.359
		l1.057,6.12h-0.373V30.6h0.4l0.029,0.167c0.067,0.39,0.395,0.683,0.79,0.706c0.394,0.023,0.755-0.228,0.868-0.607l0.904-3.026
		h0.636v-0.155h-0.589l2.242-7.502l0.3,1.979h-0.743v0.155h0.767l0.395,2.606h-1.162v0.155h1.186l1.233,8.128h-0.001v0.155h0.024
		l0.227,1.495c0.058,0.384,0.368,0.68,0.753,0.72c0.386,0.043,0.75-0.184,0.887-0.546l0.631-1.669h1.103v-0.155h-1.044l0.986-2.606
		h0.059v-0.155l0,0l2.029-5.367h0.389v-0.155h-0.33l2.03-5.368h0.718V19.4h-0.659l0.849-2.246l1.347,7.769h-0.328v0.155h0.355
		l0.365,2.107c0.034,0.2,0.139,0.373,0.285,0.499h-1.006v0.155h1.209v-0.023c0.082,0.037,0.171,0.062,0.264,0.071
		c0.38,0.039,0.739-0.179,0.881-0.533l0.904-2.276h0.369v-0.155h-0.308l0.617-1.555l1.156,4.316h-0.257v0.155h0.298l0.698,2.605
		h-0.996V30.6h1.037l0.369,1.378c0.098,0.365,0.423,0.622,0.8,0.633c0.376,0.013,0.717-0.229,0.834-0.588l0.467-1.423h0.119v-0.155
		h-0.068l1.76-5.367h0.727v-0.155h-0.677l0.455-1.387l2.188,4.148h-0.757v0.155h0.839l0.986,1.869
		c0.153,0.291,0.464,0.469,0.789,0.455c0.328-0.014,0.62-0.214,0.749-0.517l0.076-0.178v0.976h-1.021V30.6h1.021v2.606h-1.021v0.155
		h1.021v2.605h-1.021v0.155h1.021v2.646H4.032z"/>
	<rect x="20.769" y="13.877" class="st0" width="1.209" height="0.155"/>
	<rect x="8.681" y="13.877" class="st0" width="1.208" height="0.155"/>
	<rect x="6.263" y="13.877" class="st0" width="1.209" height="0.155"/>
	<rect x="40.11" y="13.877" class="st0" width="1.209" height="0.155"/>
	<rect x="37.692" y="13.877" class="st0" width="1.209" height="0.155"/>
	<rect x="15.934" y="13.877" class="st0" width="1.209" height="0.155"/>
	<rect x="35.275" y="13.877" class="st0" width="1.209" height="0.155"/>
	<rect x="18.352" y="13.877" class="st0" width="1.208" height="0.155"/>
	<rect x="11.098" y="13.877" class="st0" width="1.209" height="0.155"/>
	<rect x="42.528" y="13.877" class="st0" width="1.209" height="0.155"/>
	<rect x="13.516" y="13.877" class="st0" width="1.208" height="0.155"/>
	<rect x="25.604" y="13.877" class="st0" width="1.209" height="0.155"/>
	<rect x="23.187" y="13.877" class="st0" width="1.209" height="0.155"/>
	<rect x="32.857" y="13.877" class="st0" width="1.209" height="0.155"/>
	<rect x="37.692" y="16.639" class="st0" width="1.209" height="0.155"/>
	<rect x="25.604" y="16.639" class="st0" width="1.209" height="0.155"/>
	<rect x="13.516" y="16.639" class="st0" width="1.208" height="0.155"/>
	<rect x="11.098" y="16.639" class="st0" width="1.209" height="0.155"/>
	<rect x="6.263" y="16.639" class="st0" width="1.209" height="0.155"/>
	<rect x="32.857" y="16.639" class="st0" width="1.209" height="0.155"/>
	<rect x="23.187" y="16.639" class="st0" width="1.209" height="0.155"/>
	<rect x="8.681" y="16.639" class="st0" width="1.208" height="0.155"/>
	<rect x="40.11" y="16.639" class="st0" width="1.209" height="0.155"/>
	<rect x="35.275" y="16.639" class="st0" width="1.209" height="0.155"/>
	<rect x="20.769" y="16.639" class="st0" width="1.209" height="0.155"/>
	<rect x="15.934" y="16.639" class="st0" width="1.209" height="0.155"/>
	<rect x="42.528" y="16.639" class="st0" width="1.209" height="0.155"/>
	<rect x="6.263" y="19.4" class="st0" width="1.209" height="0.155"/>
	<rect x="8.681" y="19.4" class="st0" width="1.208" height="0.155"/>
	<rect x="35.275" y="19.4" class="st0" width="1.209" height="0.155"/>
	<rect x="11.098" y="19.4" class="st0" width="1.209" height="0.155"/>
	<rect x="13.516" y="19.4" class="st0" width="1.208" height="0.155"/>
	<rect x="15.934" y="19.4" class="st0" width="1.209" height="0.155"/>
	<rect x="20.769" y="19.4" class="st0" width="1.209" height="0.155"/>
	<rect x="42.528" y="19.4" class="st0" width="1.209" height="0.155"/>
	<rect x="23.187" y="19.4" class="st0" width="1.209" height="0.155"/>
	<rect x="40.11" y="19.4" class="st0" width="1.209" height="0.155"/>
	<rect x="32.857" y="19.4" class="st0" width="1.209" height="0.155"/>
	<rect x="37.692" y="19.4" class="st0" width="1.209" height="0.155"/>
	<rect x="23.187" y="22.161" class="st0" width="1.209" height="0.155"/>
	<rect x="42.528" y="22.161" class="st0" width="1.209" height="0.155"/>
	<rect x="28.022" y="22.161" class="st0" width="1.209" height="0.155"/>
	<rect x="37.692" y="22.161" class="st0" width="1.209" height="0.155"/>
	<rect x="28.022" y="24.922" class="st0" width="1.209" height="0.155"/>
	<rect x="23.187" y="24.922" class="st0" width="1.209" height="0.155"/>
	<rect x="40.11" y="27.684" class="st0" width="1.209" height="0.155"/>
	<rect x="28.022" y="27.684" class="st0" width="1.209" height="0.155"/>
	<rect x="18.352" y="27.684" class="st0" width="1.208" height="0.155"/>
	<rect x="32.857" y="27.684" class="st0" width="1.209" height="0.155"/>
	<rect x="25.604" y="27.684" class="st0" width="1.209" height="0.155"/>
	<rect x="42.528" y="30.444" class="st0" width="1.209" height="0.155"/>
	<rect x="28.022" y="30.444" class="st0" width="1.209" height="0.155"/>
	<rect x="15.934" y="30.444" class="st0" width="1.209" height="0.155"/>
	<rect x="18.352" y="30.444" class="st0" width="1.208" height="0.155"/>
	<rect x="25.604" y="30.444" class="st0" width="1.209" height="0.155"/>
	<rect x="30.439" y="30.444" class="st0" width="1.209" height="0.155"/>
	<rect x="40.11" y="30.444" class="st0" width="1.209" height="0.155"/>
	<rect x="32.857" y="30.444" class="st0" width="1.209" height="0.155"/>
	<rect x="6.263" y="30.444" class="st0" width="1.209" height="0.155"/>
	<rect x="11.098" y="30.444" class="st0" width="1.209" height="0.155"/>
	<rect x="8.681" y="30.444" class="st0" width="1.208" height="0.155"/>
	<rect x="35.275" y="33.206" class="st0" width="1.209" height="0.155"/>
	<rect x="42.528" y="33.206" class="st0" width="1.209" height="0.155"/>
	<rect x="6.263" y="33.206" class="st0" width="1.209" height="0.155"/>
	<rect x="32.857" y="33.206" class="st0" width="1.209" height="0.155"/>
	<rect x="40.11" y="33.206" class="st0" width="1.209" height="0.155"/>
	<rect x="37.692" y="33.206" class="st0" width="1.209" height="0.155"/>
	<rect x="13.516" y="33.206" class="st0" width="1.208" height="0.155"/>
	<rect x="18.352" y="33.206" class="st0" width="1.208" height="0.155"/>
	<rect x="15.934" y="33.206" class="st0" width="1.209" height="0.155"/>
	<rect x="25.604" y="33.206" class="st0" width="1.209" height="0.155"/>
	<rect x="30.439" y="33.206" class="st0" width="1.209" height="0.155"/>
	<rect x="8.681" y="33.206" class="st0" width="1.208" height="0.155"/>
	<rect x="28.022" y="33.206" class="st0" width="1.209" height="0.155"/>
	<rect x="11.098" y="33.206" class="st0" width="1.209" height="0.155"/>
	<rect x="15.934" y="35.967" class="st0" width="1.209" height="0.155"/>
	<rect x="32.857" y="35.967" class="st0" width="1.209" height="0.155"/>
	<rect x="30.439" y="35.967" class="st0" width="1.209" height="0.155"/>
	<rect x="28.022" y="35.967" class="st0" width="1.209" height="0.155"/>
	<rect x="35.275" y="35.967" class="st0" width="1.209" height="0.155"/>
	<rect x="42.528" y="35.967" class="st0" width="1.209" height="0.155"/>
	<rect x="6.263" y="35.967" class="st0" width="1.209" height="0.155"/>
	<rect x="40.11" y="35.967" class="st0" width="1.209" height="0.155"/>
	<rect x="37.692" y="35.967" class="st0" width="1.209" height="0.155"/>
	<rect x="11.098" y="35.967" class="st0" width="1.209" height="0.155"/>
	<rect x="8.681" y="35.967" class="st0" width="1.208" height="0.155"/>
	<rect x="13.516" y="35.967" class="st0" width="1.208" height="0.155"/>
	<rect x="20.769" y="35.967" class="st0" width="1.209" height="0.155"/>
	<rect x="23.187" y="35.967" class="st0" width="1.209" height="0.155"/>
	<rect x="18.352" y="35.967" class="st0" width="1.208" height="0.155"/>
	<rect x="25.604" y="35.967" class="st0" width="1.209" height="0.155"/>
</g>
</svg>
