<?xml version="1.0" encoding="utf-8"?>
<!-- Generator: Adobe Illustrator 23.0.2, SVG Export Plug-In . SVG Version: 6.00 Build 0)  -->
<svg version="1.1" id="Слой_1" xmlns="http://www.w3.org/2000/svg" xmlns:xlink="http://www.w3.org/1999/xlink" x="0px" y="0px"
	 width="269px" height="90px" viewBox="0 0 269 90" style="enable-background:new 0 0 269 90;" xml:space="preserve">
<style type="text/css">
	.st0{fill:#E50A0A;}
	.st1{fill:#484848;}
	.st2{fill:#FFFFFF;}
	.st3{fill:url(#SVGID_1_);}
</style>
<g>
	<g>
		<path class="st0" d="M262.9,73H6.1C2.7,73,0,70.3,0,66.9V6.1C0,2.7,2.7,0,6.1,0h256.7c3.4,0,6.1,2.7,6.1,6.1v60.7
			C269,70.3,266.3,73,262.9,73z"/>
		<path class="st1" d="M262.9,1c2.8,0,5.1,2.3,5.1,5.1v60.7c0,2.8-2.3,5.1-5.1,5.1H6.1C3.3,72,1,69.7,1,66.9V6.1C1,3.3,3.3,1,6.1,1
			H262.9 M262.9,0H6.1C2.7,0,0,2.7,0,6.1v60.7C0,70.3,2.7,73,6.1,73h256.7c3.4,0,6.1-2.7,6.1-6.1V6.1C269,2.7,266.3,0,262.9,0
			L262.9,0z"/>
	</g>
	<path class="st2" d="M94,14.3C90.5,10.7,85,9,77.6,9h-6.2h-0.3h-7.1h-2.8c-0.2,0-0.4,0.1-0.6,0.2L4.5,59.4C3.8,60,4.2,61,5.1,61
		h12.6c0.2,0,0.5-0.1,0.6-0.3L29.2,50c0.2-0.2,0.4-0.3,0.6-0.3l18.9,0c0.6,0,1,0.6,0.9,1.2l-2.6,8.9c-0.2,0.6,0.3,1.2,0.9,1.2h4.2
		h5.2h0.5c0.3,0,0.6-0.2,0.8-0.5c0.3-0.2,0.5-0.6,0.6-1l3.5-12.9c0.2-0.8,1-1.4,1.9-1.4h8.4c7.3,0,13.4-1.8,18.1-5.4S98,31.2,98,25
		C98,20.5,96.7,16.9,94,14.3z M42.2,39.2c-0.8,0-1.2-1-0.6-1.5l13.6-12.9c0.5-0.5,1.4,0,1.2,0.7l-3.4,13c-0.1,0.4-0.5,0.7-0.9,0.7
		H42.2z M82.6,32.7c-2.3,1.7-5.4,2.5-9.3,2.5h-5.2c-1.3,0-2.3-1.2-1.9-2.5l3.2-11.9c0.2-0.9,1-1.5,1.9-1.5h5.9
		c3.2,0,5.6,0.8,7.1,2.3c1.1,1.1,1.7,2.6,1.7,4.3C86,28.8,84.9,31.1,82.6,32.7z"/>
	<path class="st2" d="M103.5,34.1l11-26.1h6.9l11,26.1h-7.7l-1.9-4.6h-10l-1.9,4.6H103.5z M115,23.9h5.8l-2.9-7.4L115,23.9z"/>
	<path class="st2" d="M134.8,34V8h13.3c3.2,0,5.5,0.8,7.1,2.3c1.1,1.1,1.7,2.5,1.7,4.3c0,2.7-1.3,4.6-4,5.8c1.7,0.5,3,1.3,3.8,2.3
		c0.9,1,1.3,2.4,1.3,4.1c0,2.2-0.9,4-2.6,5.3c-1.7,1.3-4.1,1.9-7.2,1.9H134.8z M141.8,18.4h4.5c2.3,0,3.4-0.8,3.4-2.3
		c0-1.5-1.1-2.2-3.3-2.2h-4.7V18.4z M141.8,28.2h5.6c2.3,0,3.5-0.8,3.5-2.5c0-1.6-1.2-2.3-3.5-2.3h-5.5V28.2z"/>
	<path class="st2" d="M167.1,33.9V14.3h-7.8V8H182v6.3h-7.8v19.6H167.1z"/>
	<path class="st2" d="M207,30c-2.7,2.6-6,3.9-10,3.9c-4,0-7.3-1.3-9.9-3.9c-2.7-2.6-4-5.8-4-9.6c0-3.7,1.3-6.9,4-9.5
		c2.7-2.6,6-3.9,10-3.9c4,0,7.3,1.3,9.9,3.9c2.7,2.6,4,5.8,4,9.6C211,24.2,209.7,27.4,207,30z M197.1,27.5c1.9,0,3.5-0.7,4.8-2
		c1.2-1.4,1.8-3,1.8-5c0-1.9-0.6-3.6-1.9-4.9c-1.3-1.4-2.8-2.1-4.8-2.1c-1.9,0-3.5,0.7-4.7,2c-1.2,1.4-1.8,3-1.8,5
		c0,1.9,0.6,3.6,1.9,4.9C193.6,26.8,195.2,27.5,197.1,27.5z"/>
	<path class="st2" d="M134.9,65V39h20.9v6.1h-13.8v3.9h12.5v5.7h-12.5v4.1h14V65H134.9z"/>
	<path class="st2" d="M159.5,65V39h11.1c3.3,0,5.9,0.8,7.9,2.4c1.9,1.6,2.9,3.9,2.9,6.8c0,3-1,5.3-3.1,6.9c-2.1,1.6-4.7,2.4-8.1,2.4
		h-3.6V65H159.5z M166.7,51.9h3.4c1.3,0,2.3-0.3,3-0.9c0.7-0.6,1.1-1.5,1.1-2.5c0-1.1-0.4-2-1.1-2.5c-0.7-0.6-1.8-0.9-3.1-0.9h-3.4
		V51.9z"/>
	<path class="st2" d="M184.2,65V39h13.3c3.2,0,5.5,0.8,7.1,2.3c1.1,1.1,1.7,2.5,1.7,4.3c0,2.7-1.3,4.6-4,5.8c1.7,0.5,3,1.3,3.8,2.3
		c0.9,1,1.3,2.4,1.3,4.1c0,2.2-0.9,4-2.6,5.3c-1.7,1.3-4.1,1.9-7.2,1.9H184.2z M191.2,49.4h4.5c2.3,0,3.4-0.8,3.4-2.3
		c0-1.5-1.1-2.2-3.3-2.2h-4.7V49.4z M191.2,59.2h5.6c2.3,0,3.5-0.8,3.5-2.4c0-1.6-1.2-2.3-3.5-2.3h-5.5V59.2z"/>
	<path class="st2" d="M210.5,65V39h7.1v14.6L227.7,39h6.7v26h-7.1V50.4L217.2,65H210.5z"/>
	<path class="st2" d="M251.2,65c-3.8,0-6.9-1.3-9.5-3.8c-2.6-2.6-3.9-5.8-3.9-9.7c0-3.8,1.3-7,3.9-9.6c2.6-2.6,5.9-3.9,9.8-3.9
		c4.6,0,8.3,1.8,10.9,5.5l-5.3,4.1c-1.6-2-3.5-3-5.7-3c-1.8,0-3.3,0.7-4.5,2c-1.2,1.3-1.7,3-1.7,4.9c0,2,0.6,3.6,1.7,5
		c1.2,1.3,2.6,2,4.5,2c1.3,0,2.3-0.3,3.2-0.8c0.9-0.5,1.8-1.3,2.6-2.4l5.4,3.9c-1.4,1.9-2.9,3.3-4.7,4.3
		C256.2,64.5,253.9,65,251.2,65z"/>
	<g>
		<radialGradient id="SVGID_1_" cx="112.2563" cy="38.4576" r="57.5321" gradientUnits="userSpaceOnUse">
			<stop  offset="0" style="stop-color:#FFFFFF"/>
			<stop  offset="0.1465" style="stop-color:#FBFBFB"/>
			<stop  offset="0.2947" style="stop-color:#EFEFEF"/>
			<stop  offset="0.4435" style="stop-color:#DBDBDB"/>
			<stop  offset="0.593" style="stop-color:#BEBEBE"/>
			<stop  offset="0.743" style="stop-color:#9A9A9A"/>
			<stop  offset="0.8913" style="stop-color:#6D6D6D"/>
			<stop  offset="1" style="stop-color:#484848"/>
		</radialGradient>
		<path class="st3" d="M101.1,51.2c0,0.3,0,5.1-4.7,10.2c-1,1.1-8.5,8.3-15.7,15c-7.2,6.8,2.7,16.6,9.8,9.8
			c6.2-6.7,13.1-13.4,14.5-14.8c1.4-1.4,4.3-3.4,8.7-3.2c3.2,0.2,6.6,0.4,10.3-2.6c5.8-4.5,7.5-11.9,7.5-11.9l-0.6-1l-11,5.8
			c-1.5,0.3-4.4-1-6.4-4.1c-2-3.2-1.3-6.2-0.3-7.6l10.6-6.3l-0.5-1c-4.6-1.3-12.5-1.5-17.3,1.3C102.1,43,100.8,47,101.1,51.2"/>
		<path d="M85.1,89c-0.7,0-1.3-0.1-2-0.3c-2.6-0.8-4.6-2.9-5.3-5.4c-0.6-2.6,0.3-5.1,2.5-7.2c7.1-6.7,14.7-13.9,15.7-15
			c4.3-4.8,4.5-9.2,4.5-9.8c-0.3-4.9,1.5-8.8,5.1-10.9c4.8-2.8,12.7-2.8,17.7-1.4l0.2,0.1l0.9,1.6l-10.9,6.5c-0.8,1.2-1.5,4,0.4,7
			c2,3,4.6,4.1,5.8,3.9l11.3-6l0.9,1.5l0,0.2c-0.1,0.3-1.8,7.6-7.7,12.2c-3.9,3.1-7.5,2.9-10.6,2.7c-4.6-0.2-7.3,2.1-8.3,3.1
			c-0.3,0.3-1,1-1.9,1.9c-2.8,2.7-7.9,7.9-12.7,13C89.1,88.2,87.1,89,85.1,89z M116,39.1c-3.6,0-7.3,0.7-9.9,2.2
			c-3.2,1.9-4.9,5.5-4.6,10l0,0c0,0.5-0.2,5.4-4.8,10.5c-1.1,1.2-8.7,8.4-15.8,15.1c-1.9,1.8-2.7,4-2.2,6.2c0.5,2.2,2.3,4.1,4.6,4.7
			c2.3,0.7,4.7,0,6.7-1.9c4.7-5.1,9.9-10.2,12.7-13c0.9-0.9,1.5-1.5,1.8-1.8c1.1-1.1,4.1-3.6,9.1-3.4c3.1,0.2,6.4,0.4,10-2.5
			c5.1-4,6.9-10.3,7.2-11.5l-0.2-0.4L120,59c-1.8,0.4-4.9-1.2-6.9-4.3c-2.3-3.5-1.3-6.8-0.3-8.2l0.2-0.2l10.1-6.1l-0.2-0.4
			C120.9,39.4,118.5,39.1,116,39.1z"/>
	</g>
</g>
</svg>
