<svg xmlns="http://www.w3.org/2000/svg" xmlns:xlink="http://www.w3.org/1999/xlink" width="269" height="89.03" viewBox="0 0 269 89.03">
  <defs>
    <radialGradient id="a" data-name="Безымянный градиент 24" cx="121.74" cy="38.46" r="57.53" gradientUnits="userSpaceOnUse">
      <stop offset="0" stop-color="#fff"/>
      <stop offset="0.15" stop-color="#fbfbfb"/>
      <stop offset="0.29" stop-color="#efefef"/>
      <stop offset="0.44" stop-color="#dbdbdb"/>
      <stop offset="0.59" stop-color="#bebebe"/>
      <stop offset="0.74" stop-color="#9a9a9a"/>
      <stop offset="0.89" stop-color="#6d6d6d"/>
      <stop offset="1" stop-color="#484848"/>
    </radialGradient>
  </defs>
  <title>ar-autoservice-logo-ukr</title>
  <g>
    <g>
      <rect x="0.5" y="0.5" width="268" height="72" rx="5.64" style="fill: #e50a0a"/>
      <path d="M262.86,1A5.14,5.14,0,0,1,268,6.14V66.86A5.14,5.14,0,0,1,262.86,72H6.14A5.14,5.14,0,0,1,1,66.86V6.14A5.14,5.14,0,0,1,6.14,1H262.86m0-1H6.14A6.14,6.14,0,0,0,0,6.14V66.86A6.14,6.14,0,0,0,6.14,73H262.86A6.14,6.14,0,0,0,269,66.86V6.14A6.14,6.14,0,0,0,262.86,0Z" style="fill: #484848"/>
    </g>
    <path d="M110.54,51.25c-.28-4.24,1.07-8.23,4.81-10.46,4.81-2.81,12.7-2.65,17.29-1.32l.55,1-10.57,6.33a7,7,0,0,0,.34,7.61c2,3.14,4.92,4.43,6.4,4.13l11-5.79.57,1s-1.64,7.41-7.46,11.94c-3.74,2.93-7.16,2.75-10.32,2.58a11.28,11.28,0,0,0-8.69,3.2c-1.39,1.44-8.32,8.11-14.53,14.82-7.12,6.84-16.94-3-9.78-9.76s14.7-13.91,15.73-15.05c4.63-5.06,4.67-9.89,4.67-10.15" style="stroke: #000;stroke-miterlimit: 10;fill: url(#a)"/>
    <path d="M103.47,14.25Q98.19,9,87.12,9H70.64a.93.93,0,0,0-.6.23L13.93,59.42A.91.91,0,0,0,14.54,61H27.17a.89.89,0,0,0,.63-.26L38.64,50a.91.91,0,0,1,.64-.27l18.86,0A.91.91,0,0,1,59,50.89l-2.64,9A.9.9,0,0,0,57.23,61h9.84a.89.89,0,0,0,.79-.48,2,2,0,0,0,.62-1l3.46-12.88a2,2,0,0,1,1.88-1.44h8.39q11,0,18.14-5.42T107.48,25Q107.48,18.26,103.47,14.25Zm-51.84,25A.9.9,0,0,1,51,37.68L64.55,24.79a.74.74,0,0,1,1.22.72l-3.42,13a.9.9,0,0,1-.87.67Zm40.43-6.5c-2.3,1.66-5.39,2.49-9.25,2.49h-5.2a2,2,0,0,1-1.94-2.52l3.17-11.9a2,2,0,0,1,1.94-1.49h5.89q4.83,0,7.14,2.31a5.83,5.83,0,0,1,1.71,4.31A8,8,0,0,1,92.06,32.72ZM113,34.08,124,8h6.92l11,26.08h-7.69l-1.89-4.62h-10l-1.85,4.62Zm11.51-10.21h5.81l-2.89-7.36ZM144.28,34V8h13.33q4.75,0,7.1,2.34a5.8,5.8,0,0,1,1.67,4.27,6,6,0,0,1-4,5.8,8.27,8.27,0,0,1,3.84,2.34,6,6,0,0,1,1.32,4.08,6.19,6.19,0,0,1-2.6,5.26A12.07,12.07,0,0,1,157.69,34Zm7-15.64h4.53q3.42,0,3.42-2.34c0-1.48-1.09-2.23-3.27-2.23H151.3Zm0,9.85h5.57q3.45,0,3.45-2.46c0-1.56-1.17-2.34-3.53-2.34H151.3Zm25.24,5.69V14.29h-7.77V8h22.71v6.29h-7.77V33.9ZM216.47,30a14.62,14.62,0,0,1-19.9,0,12.85,12.85,0,0,1-4-9.56,12.88,12.88,0,0,1,4-9.55,14.62,14.62,0,0,1,19.9,0,12.87,12.87,0,0,1,4,9.57A12.84,12.84,0,0,1,216.47,30Zm-9.9-2.55a6.1,6.1,0,0,0,4.76-2,7.13,7.13,0,0,0,1.83-5,7,7,0,0,0-1.89-4.94,6.21,6.21,0,0,0-4.77-2.06,6,6,0,0,0-4.72,2,7.16,7.16,0,0,0-1.83,5,7.07,7.07,0,0,0,1.87,4.94A6.16,6.16,0,0,0,206.57,27.46ZM144.42,65V39h20.9v6.12H151.55v3.94H164v5.68H151.55v4.11H165.5V65ZM169,65V39h11.13A11.92,11.92,0,0,1,188,41.43a8.32,8.32,0,0,1,2.92,6.77,8.35,8.35,0,0,1-3.08,6.91,12.64,12.64,0,0,1-8.09,2.44h-3.57V65Zm7.19-13.07h3.42a4.52,4.52,0,0,0,3-.92,3.14,3.14,0,0,0,1.1-2.53,3.06,3.06,0,0,0-1.1-2.54,4.8,4.8,0,0,0-3.06-.87h-3.38ZM193.69,65V39H207c3.16,0,5.53.78,7.09,2.34a5.78,5.78,0,0,1,1.67,4.27,6,6,0,0,1-4,5.79,8.34,8.34,0,0,1,3.84,2.33,6,6,0,0,1,1.32,4.08,6.19,6.19,0,0,1-2.6,5.26A12.05,12.05,0,0,1,207.08,65Zm7-15.63h4.53c2.27,0,3.41-.78,3.41-2.33s-1.09-2.23-3.26-2.23H200.7Zm0,9.84h5.57c2.3,0,3.45-.82,3.45-2.45s-1.18-2.34-3.53-2.34H200.7Zm54.67,0a15.15,15.15,0,0,1-4.75,4.32A13.43,13.43,0,0,1,243.87,65a13.19,13.19,0,0,1-13.39-13.5,13.06,13.06,0,0,1,3.91-9.61A13.33,13.33,0,0,1,244.17,38a12.72,12.72,0,0,1,10.9,5.49l-5.27,4.08a7.15,7.15,0,0,0-5.71-3,5.63,5.63,0,0,0-4.45,2,7.88,7.88,0,0,0,0,9.88,5.68,5.68,0,0,0,4.45,2,6.21,6.21,0,0,0,3.23-.8A10.44,10.44,0,0,0,250,55.28ZM219.92,65V39.1h7.22V65Z" style="fill: #fff"/>
  </g>
</svg>
