<?xml version="1.0" encoding="utf-8"?>
<!-- Generator: Adobe Illustrator 23.0.2, SVG Export Plug-In . SVG Version: 6.00 Build 0)  -->
<svg version="1.1" id="Слой_3" xmlns="http://www.w3.org/2000/svg" xmlns:xlink="http://www.w3.org/1999/xlink" x="0px" y="0px"
	 width="1804.8px" height="1665.7px" viewBox="0 0 1804.8 1665.7" style="enable-background:new 0 0 1804.8 1665.7;"
	 xml:space="preserve">
<style type="text/css">
	.st0{fill:#E51313;}
</style>
<g id="XMLID_1_">
	<g>
		<path class="st0" d="M1802.6,483.9c3.5,3.5,2.8,10-1.6,14.5l-41.1,41c-4.4,4.4-10.9,5.2-14.5,1.6l-87.4-87.4l-0.6,0
			c-28-1.8-55.7,25.9-53.9,53.9l0,0.6l87.4,87.4c3.5,3.5,2.8,10-1.6,14.5l-41,41c-4.4,4.4-10.9,5.2-14.5,1.6L1471,489.7l-96.6,96.6
			l376.7,376.7c8.9,8.9,7,25.1-4.1,36.2l-65.9,65.9c-11.1,11.1-27.3,12.9-36.2,4.1l-101.4-101.4L875,1636.4
			c-39,39.1-102.4,39.1-141.4,0L632,1534.8l-516.1-516.1L8.8,911.6c-11.7-11.7-11.7-30.7,0-42.4l54.4-54.4
			c11.7-11.7,30.7-11.7,42.4,0l107.1,107.2l642.5-642.5L687.6,111.7c-8.9-8.9-7-25.1,4.1-36.2l65.9-65.9
			c11.1-11.1,27.3-12.9,36.2-4.1l427.7,427.7l96.6-96.6L1156.3,175c-3.5-3.5-2.8-10,1.6-14.5l41-41.1c4.4-4.4,10.9-5.2,14.5-1.6
			l89.1,89.1l0.5,0c27.4-0.6,53.3-26.4,53.9-53.9l0-0.5l-89.1-89.1c-3.5-3.5-2.8-10,1.6-14.5l41-41c4.4-4.4,10.9-5.2,14.5-1.6
			L1802.6,483.9z"/>
	</g>
	<g>
	</g>
</g>
<g>
</g>
<g>
</g>
<g>
</g>
<g>
</g>
<g>
</g>
</svg>
