<?xml version="1.0" encoding="utf-8"?>
<!-- Generator: Adobe Illustrator 15.1.0, SVG Export Plug-In . SVG Version: 6.00 Build 0)  -->
<!DOCTYPE svg PUBLIC "-//W3C//DTD SVG 1.1//EN" "http://www.w3.org/Graphics/SVG/1.1/DTD/svg11.dtd">
<svg version="1.1" id="Ebene_1" xmlns="http://www.w3.org/2000/svg" xmlns:xlink="http://www.w3.org/1999/xlink" x="0px" y="0px"
	 width="50px" height="50px" viewBox="0 0 50 50" style="enable-background:new 0 0 50 50;" xml:space="preserve">
<style type="text/css">
<![CDATA[
	.st0{fill:#e51313;}
]]>
</style>
<g>
	<path class="st0" d="M16.751,32.56c0,0.553,0.448,1.001,1.001,1.001s1.001-0.448,1.001-1.001v-6.57h12.333v6.57
		c0,0.553,0.448,1.001,1.001,1.001c0.554,0,1.002-0.448,1.002-1.001v-6.57h12.332v6.57c0,0.553,0.448,1.001,1.002,1.001
		c0.553,0,1.001-0.448,1.001-1.001V17.417c0-0.553-0.448-1.001-1.001-1.001c-0.554,0-1.002,0.448-1.002,1.001v6.57H33.09v-6.57
		c0-0.553-0.448-1.001-1.002-1.001c-0.553,0-1.001,0.448-1.001,1.001v6.57H18.754v-6.57c0-0.553-0.448-1.001-1.001-1.001
		s-1.001,0.448-1.001,1.001v6.57H4.419v-3.731c0-0.553-0.448-1.001-1.001-1.001s-1.001,0.448-1.001,1.001v4.733
		c0,0.554,0.448,1.002,1.001,1.002h13.333V32.56z"/>
	<polygon class="st0" points="17.84,4.68 17.84,13.631 19.376,13.631 19.376,2.914 18.009,2.914 15.384,5.064 16.198,6.092 	"/>
	<path class="st0" d="M18.009,44.107c1.182-1.182,3.102-3.086,3.102-4.867c0-2.012-1.551-3.055-3.486-3.055
		c-0.967,0-1.919,0.244-2.81,0.629l0.154,1.32c0.583-0.322,1.504-0.691,2.456-0.691c1.167,0,2.058,0.707,2.058,1.705
		c0,1.734-1.904,3.469-3.086,4.574c-0.675,0.631-1.367,1.229-1.919,1.721v1.643h6.787v-1.26h-5.144
		C16.643,45.352,17.411,44.705,18.009,44.107z"/>
	<path class="st0" d="M34.796,35.938h-2.195l-4.331,7.018v1.258h4.99v2.441h1.536v-2.441h1.351v-1.258h-1.351V35.938z M33.26,42.955
		h-3.377l3.347-5.758h0.03V42.955z"/>
	<path class="st0" d="M46.776,40.346c-0.891,0-1.628,0.275-2.35,0.982l-0.03,0.016c0.03-2.059,0.997-3.9,2.993-3.9
		c0.691,0,1.352,0.154,1.904,0.445l0.215-1.365c-0.384-0.17-1.474-0.338-2.211-0.338c-3.394,0-4.345,3.039-4.345,5.941
		c0,2.441,0.614,5.143,3.608,5.143c1.949,0,3.438-1.336,3.438-3.547C50,41.805,48.849,40.346,46.776,40.346z M46.469,46.012
		c-1.259,0-1.889-1.244-1.889-2.258c0-1.197,0.722-2.148,1.997-2.148c1.213,0,1.795,1.15,1.795,2.148
		C48.372,44.906,47.759,46.012,46.469,46.012z"/>
	<path class="st0" d="M4.253,9.916l1.643,3.716h1.75L5.62,9.363C5.282,8.702,5.051,8.472,4.575,8.288V8.257
		c1.244-0.215,2.211-1.136,2.211-2.441c0-2.564-2.042-2.902-4.161-2.902H0v10.717h1.536v-4.76h0.921
		C3.271,8.871,3.777,8.871,4.253,9.916z M1.536,4.265H3.01c1.413,0,2.149,0.614,2.149,1.582c0,1.028-0.859,1.673-2.318,1.673H1.536
		V4.265z"/>
	<path class="st0" d="M35.281,10.775c0-1.52-0.968-2.364-2.396-2.656v-0.03c1.229-0.231,2.303-1.09,2.303-2.441
		c0-2.027-1.627-2.917-3.516-2.917c-0.905,0-1.98,0.215-2.687,0.476l0.092,1.366c0.646-0.322,1.413-0.583,2.38-0.583
		c1.121,0,2.104,0.46,2.104,1.689c0,1.366-1.551,1.75-2.656,1.75h-0.859v1.259h0.937c1.382,0,2.672,0.445,2.672,2.042
		c0,1.366-1.444,1.827-2.61,1.827c-0.922,0-1.797-0.307-2.35-0.583L28.603,13.4c0.676,0.2,1.597,0.415,2.456,0.415
		C33.178,13.815,35.281,13.232,35.281,10.775z"/>
	<path class="st0" d="M49.801,10.208c0-1.904-1.581-3.316-3.47-3.316c-0.614,0-1.09,0.077-1.382,0.153l0.092-2.871h4.452V2.915
		h-5.896l-0.092,5.635c0.567-0.246,1.151-0.399,2.072-0.399c1.443,0,2.595,0.752,2.595,2.287c0,1.367-1.228,2.119-2.502,2.119
		c-0.937,0-1.566-0.169-2.227-0.537l-0.046,1.443c0.384,0.138,1.136,0.354,2.303,0.354C47.928,13.816,49.801,12.557,49.801,10.208z"
		/>
</g>
</svg>
