<?xml version="1.0" encoding="utf-8"?>
<!-- Generator: Adobe Illustrator 15.1.0, SVG Export Plug-In . SVG Version: 6.00 Build 0)  -->
<!DOCTYPE svg PUBLIC "-//W3C//DTD SVG 1.1//EN" "http://www.w3.org/Graphics/SVG/1.1/DTD/svg11.dtd">
<svg version="1.1" id="Ebene_1" xmlns="http://www.w3.org/2000/svg" xmlns:xlink="http://www.w3.org/1999/xlink" x="0px" y="0px"
	 width="50px" height="50px" viewBox="0 0 50 50" style="enable-background:new 0 0 50 50;" xml:space="preserve">
<style type="text/css">
<![CDATA[
	.st0{fill:#e51313;}
]]>
</style>
<path class="st0" d="M49.398,17.141c-3.346-2.761-7.099-4.914-11.154-6.399c-4.198-1.537-8.613-2.316-13.123-2.316
	c-8.965,0-17.677,3.171-24.531,8.928c-0.699,0.587-0.79,1.63-0.203,2.33l14.811,17.653c0.282,0.336,0.686,0.546,1.123,0.584
	c0.048,0.004,0.096,0.007,0.144,0.007c0.388,0,0.765-0.137,1.063-0.388c1.864-1.565,4.172-2.513,6.587-2.72l1.492,2.928
	c-0.204,0.369-0.321,0.794-0.321,1.246c0,1.425,1.155,2.58,2.58,2.58s2.58-1.155,2.58-2.58c0-1.315-0.985-2.401-2.259-2.559
	l-0.725-1.422c1.924,0.39,3.735,1.252,5.253,2.525c0.339,0.285,0.776,0.422,1.219,0.381c0.44-0.042,0.847-0.258,1.126-0.602
	l14.567-17.856C50.203,18.757,50.101,17.72,49.398,17.141z M16.727,34.013L4.009,18.854c2.858-2.176,6.027-3.886,9.38-5.084
	l9.134,17.926C20.455,32.058,18.478,32.845,16.727,34.013z M33.499,34c-2.32-1.543-5.037-2.421-7.837-2.521L16.195,12.9
	c2.895-0.768,5.895-1.166,8.927-1.166c7.528,0,14.879,2.455,20.878,6.942L33.499,34z"/>
</svg>
