<?xml version="1.0" encoding="utf-8"?>
<!-- Generator: Adobe Illustrator 15.1.0, SVG Export Plug-In . SVG Version: 6.00 Build 0)  -->
<!DOCTYPE svg PUBLIC "-//W3C//DTD SVG 1.1//EN" "http://www.w3.org/Graphics/SVG/1.1/DTD/svg11.dtd">
<svg version="1.1" id="Ebene_1" xmlns="http://www.w3.org/2000/svg" xmlns:xlink="http://www.w3.org/1999/xlink" x="0px" y="0px"
	 width="50px" height="50px" viewBox="0 0 50 50" style="enable-background:new 0 0 50 50;" xml:space="preserve">
<style type="text/css">
<![CDATA[
	.st0{fill:#484848;}
]]>
</style>
<path class="st0" d="M44.672,12.984c0,0-0.89-2.71-2.59-4.09s-4.754-0.59-4.754-0.59s-2.24,0.301-3.01,2.932
	c-0.771,2.631,1.105,4.913,1.786,6.284c0.537,1.082,1.614,3.009,2.096,4.399c0.657,1.902,0.64,3.16,0.64,3.16
	s0.018,1.258-0.64,3.161c-0.481,1.391-1.559,3.317-2.096,4.399c-0.681,1.37-2.557,3.653-1.786,6.284
	c0.77,2.631,3.01,2.932,3.01,2.932s3.054,0.789,4.754-0.59c1.7-1.38,2.59-4.09,2.59-4.09s0.811-2.358,2.96-5.021
	C49.782,29.492,50,25.08,50,25.08s-0.218-4.411-2.368-7.074C45.482,15.343,44.672,12.984,44.672,12.984z"/>
<path class="st0" d="M33.01,39.308c-0.732-2.502,0.361-4.642,1.23-6.144c-2.48,3.285-6.416,5.413-10.84,5.413
	c-7.486,0-13.577-6.091-13.577-13.577S15.914,11.423,23.4,11.423c4.238,0,8.029,1.953,10.521,5.006
	c-0.786-1.452-1.556-3.374-0.911-5.575c0.786-2.684,2.878-3.697,4.055-3.888c0.16-0.038,0.532-0.118,1.027-0.178
	C34.076,3.544,28.966,1.6,23.4,1.6C10.477,1.6,0,12.076,0,25s10.477,23.4,23.4,23.4c5.486,0,10.531-1.889,14.52-5.05
	c-0.409-0.056-0.715-0.122-0.855-0.155C35.888,43.005,33.796,41.991,33.01,39.308z"/>
<path class="st0" d="M33.921,16.429"/>
<path class="st0" d="M34.24,33.164"/>
<path class="st0" d="M23.4,13.616c-6.277,0-11.384,5.106-11.384,11.384S17.123,36.384,23.4,36.384S34.784,31.277,34.784,25
	S29.678,13.616,23.4,13.616z M28.381,18.105c0.528-0.528,1.386-0.528,1.914,0s0.528,1.385,0,1.913s-1.386,0.528-1.914,0
	S27.853,18.634,28.381,18.105z M23.4,15.25c0.748,0,1.353,0.605,1.353,1.353s-0.605,1.353-1.353,1.353
	c-0.747,0-1.353-0.605-1.353-1.353S22.653,15.25,23.4,15.25z M16.506,18.105c0.528-0.528,1.385-0.528,1.913,0s0.528,1.385,0,1.913
	s-1.385,0.528-1.914,0S15.977,18.634,16.506,18.105z M15.003,26.353c-0.748,0-1.353-0.605-1.353-1.353s0.605-1.354,1.353-1.354
	c0.747,0,1.353,0.606,1.353,1.354S15.75,26.353,15.003,26.353z M18.419,31.895c-0.528,0.528-1.385,0.528-1.913,0
	s-0.529-1.385,0-1.913c0.528-0.529,1.385-0.529,1.913,0C18.947,30.51,18.947,31.366,18.419,31.895z M23.4,34.75
	c-0.747,0-1.353-0.605-1.353-1.353s0.606-1.354,1.353-1.354c0.748,0,1.353,0.606,1.353,1.354S24.147,34.75,23.4,34.75z M23.4,29.737
	c-2.616,0-4.737-2.121-4.737-4.737c0-2.617,2.121-4.737,4.737-4.737c2.617,0,4.738,2.12,4.738,4.737
	C28.138,27.616,26.017,29.737,23.4,29.737z M30.295,31.895c-0.528,0.528-1.386,0.528-1.914,0s-0.528-1.385,0-1.913
	s1.386-0.529,1.914,0C30.823,30.51,30.823,31.366,30.295,31.895z M33.15,25c0,0.747-0.606,1.353-1.354,1.353
	S30.444,25.747,30.444,25s0.605-1.354,1.353-1.354S33.15,24.253,33.15,25z"/>
</svg>
