<?xml version="1.0" encoding="utf-8"?>
<!-- Generator: Adobe Illustrator 23.0.2, SVG Export Plug-In . SVG Version: 6.00 Build 0)  -->
<svg version="1.1" id="Слой_3" xmlns="http://www.w3.org/2000/svg" xmlns:xlink="http://www.w3.org/1999/xlink" x="0px" y="0px"
	 width="1804.8px" height="1665.7px" viewBox="0 0 1804.8 1665.7" style="enable-background:new 0 0 1804.8 1665.7;"
	 xml:space="preserve">
<style type="text/css">
	.st0{fill:#484848;}
</style>
<path class="st0" d="M1751.1,963.1l-376.7-376.7l96.6-96.6l162.8,162.8c3.5,3.5,10,2.8,14.5-1.6l41-41c4.4-4.4,5.2-10.9,1.6-14.5
	l-87.4-87.4l0-0.6c-1.8-28,25.9-55.7,53.9-53.9l0.6,0l87.4,87.4c3.5,3.5,10,2.8,14.5-1.6l41-41c4.4-4.4,5.2-10.9,1.6-14.5L1325,6.3
	c-3.5-3.5-10-2.8-14.5,1.6l-41,41c-4.4,4.4-5.2,10.9-1.6,14.5l89.1,89.1l0,0.5c-0.6,27.4-26.4,53.3-53.9,53.9l-0.5,0l-89.1-89.1
	c-3.5-3.5-10-2.8-14.5,1.6l-41,41c-4.4,4.4-5.2,10.9-1.6,14.5L1318,336.7l-96.6,96.6L793.7,5.6c-8.9-8.9-25.1-7-36.2,4.1l-65.9,65.9
	c-11.1,11.1-12.9,27.3-4.1,36.2l167.7,167.7L212.7,921.9L105.6,814.8c-11.7-11.7-30.7-11.7-42.4,0L8.8,869.1
	c-11.7,11.7-11.7,30.7,0,42.4l107.1,107.1L632,1534.8l101.6,101.6c39.1,39.1,102.4,39.1,141.4,0l668.6-668.6l101.4,101.4
	c8.9,8.9,25.1,7,36.2-4.1l65.9-65.9C1758.2,988.1,1760,971.9,1751.1,963.1z"/>
<g>
</g>
<g>
</g>
<g>
</g>
<g>
</g>
<g>
</g>
</svg>
