<?xml version="1.0" encoding="utf-8"?>
<!-- Generator: Adobe Illustrator 15.1.0, SVG Export Plug-In . SVG Version: 6.00 Build 0)  -->
<!DOCTYPE svg PUBLIC "-//W3C//DTD SVG 1.1//EN" "http://www.w3.org/Graphics/SVG/1.1/DTD/svg11.dtd">
<svg version="1.1" id="Ebene_1" xmlns="http://www.w3.org/2000/svg" xmlns:xlink="http://www.w3.org/1999/xlink" x="0px" y="0px"
	 width="50px" height="50px" viewBox="0 0 50 50" style="enable-background:new 0 0 50 50;" xml:space="preserve">
<style type="text/css">
<![CDATA[
	.st0{fill:#484848;}
]]>
</style>
<path class="st0" d="M30.617,8.132l8.731,12.835c0.075,0.11,0.158,0.21,0.248,0.301c0.688,0.688,1.387,1.214,2.22,0.647
	c0.943-0.641,0.786-1.525,0.145-2.468L33.229,6.611c-0.64-0.941-1.524-1.589-2.467-0.947C29.819,6.305,29.976,7.189,30.617,8.132z"
	/>
<path class="st0" d="M38.305,23.103l-8.73-12.834c-0.64-0.942-1.525-1.589-2.468-0.948c-0.943,0.642-0.786,1.525-0.145,2.468
	l8.73,12.835c0.075,0.11,0.158,0.21,0.248,0.301c0.688,0.687,1.387,1.213,2.22,0.647C39.104,24.929,38.946,24.046,38.305,23.103z"/>
<path class="st0" d="M34.647,26.759l-8.73-12.835c-0.64-0.941-1.525-1.588-2.468-0.947c-0.943,0.641-0.787,1.524-0.145,2.468
	l8.73,12.835c0.075,0.108,0.158,0.209,0.249,0.301c0.688,0.687,1.388,1.213,2.219,0.646C35.448,28.586,35.29,27.702,34.647,26.759z"
	/>
<path class="st0" d="M30.996,30.409L22.26,17.58c-0.64-0.942-1.526-1.588-2.468-0.945c-0.944,0.642-0.787,1.526-0.145,2.469
	l8.736,12.831c0.074,0.108,0.158,0.209,0.248,0.3c0.688,0.687,1.389,1.212,2.221,0.644C31.796,32.236,31.638,31.353,30.996,30.409z"
	/>
<path class="st0" d="M27.345,34.061l-8.737-12.829c-0.639-0.944-1.526-1.587-2.468-0.945c-0.944,0.642-0.786,1.526-0.145,2.469
	l8.737,12.829c0.074,0.109,0.158,0.21,0.248,0.299c0.688,0.689,1.387,1.214,2.221,0.646C28.144,35.889,27.987,35.005,27.345,34.061z
	"/>
<path class="st0" d="M23.097,36.015l-2.113-2.112l0.625-0.625l-3.96-5.814l-1.552,1.552l-2.112-2.112
	c-0.441-0.441-1.165-0.441-1.606,0l-2.595,2.595c-0.442,0.442-0.441,1.165,0,1.607l0.568,0.568L7.35,34.675l0,3.672
	c-1.948-0.484-4.095,0.028-5.617,1.552c-2.311,2.311-2.311,6.058,0,8.368c2.311,2.311,6.058,2.311,8.368,0
	c1.523-1.523,2.036-3.67,1.552-5.617h3.672l3.001-3.001l0.569,0.568c0.441,0.441,1.165,0.441,1.606,0l2.596-2.596
	C23.539,37.18,23.539,36.456,23.097,36.015z M4.333,45.667c-0.875-0.875-0.875-2.294,0-3.169c0.875-0.875,2.295-0.876,3.17,0
	c0.875,0.875,0.874,2.295,0,3.169C6.627,46.542,5.208,46.542,4.333,45.667z"/>
<path class="st0" d="M41.098,6.293L39.84,7.552c0,0-1.543-0.736-2.279,0c-0.111,0.111-1.253,1.253-1.253,1.253l3.956,5.817
	c0,0,2.049-2.048,2.184-2.183c0.673-0.673,0-2.265,0-2.265l1.269-1.269c1.653,0.643,3.6,0.299,4.933-1.034
	c1.801-1.801,1.803-4.721,0.002-6.521c-1.801-1.801-4.722-1.8-6.521,0C40.792,2.687,40.451,4.639,41.098,6.293z M46.975,3.026
	c0.875,0.875,0.874,2.294-0.001,3.169c-0.875,0.875-2.294,0.875-3.169,0s-0.875-2.294,0-3.169C44.68,2.15,46.1,2.15,46.975,3.026z"
	/>
</svg>
