<?xml version="1.0" encoding="utf-8"?>
<!-- Generator: Adobe Illustrator 15.1.0, SVG Export Plug-In . SVG Version: 6.00 Build 0)  -->
<!DOCTYPE svg PUBLIC "-//W3C//DTD SVG 1.1//EN" "http://www.w3.org/Graphics/SVG/1.1/DTD/svg11.dtd">
<svg version="1.1" id="Ebene_1" xmlns="http://www.w3.org/2000/svg" xmlns:xlink="http://www.w3.org/1999/xlink" x="0px" y="0px"
	 width="50px" height="50px" viewBox="0 0 50 50" style="enable-background:new 0 0 50 50;" xml:space="preserve">
<style type="text/css">
<![CDATA[
	.st0{fill:#e51313;}
]]>
</style>
<path class="st0" d="M30.467,31.844v-4.633h3.237v-2.425h-3.237v-6.365h3.237v-2.426h-3.237V9.63h3.237V7.205h-3.237V5.468
	C30.467,2.453,28.015,0,25,0c-3.014,0-5.465,2.453-5.465,5.468v26.375c-2.672,1.773-4.435,4.807-4.435,8.254
	C15.1,45.567,19.533,50,25,50c5.471,0,9.9-4.433,9.9-9.903C34.9,36.65,33.14,33.616,30.467,31.844z M21.151,17.208V5.468
	c0-2.124,1.727-3.851,3.849-3.851c2.123,0,3.851,1.727,3.851,3.851v11.74H21.151z"/>
</svg>
