<?xml version="1.0" encoding="utf-8"?>
<!-- Generator: Adobe Illustrator 15.1.0, SVG Export Plug-In . SVG Version: 6.00 Build 0)  -->
<!DOCTYPE svg PUBLIC "-//W3C//DTD SVG 1.1//EN" "http://www.w3.org/Graphics/SVG/1.1/DTD/svg11.dtd">
<svg version="1.1" id="Ebene_1" xmlns="http://www.w3.org/2000/svg" xmlns:xlink="http://www.w3.org/1999/xlink" x="0px" y="0px"
	 width="50px" height="50px" viewBox="0 0 50 50" style="enable-background:new 0 0 50 50;" xml:space="preserve">
<style type="text/css">
<![CDATA[
	.st0{fill:#484848;}
]]>
</style>
<g>
	<path class="st0" d="M25,15.153c-1.217,0-2.204,0.986-2.204,2.203v14.015c0,1.219,0.987,2.205,2.204,2.205
		c1.218,0,2.204-0.986,2.204-2.205V17.356C27.204,16.139,26.218,15.153,25,15.153z"/>
	<path class="st0" d="M45.76,49.025c0.115,0.398,0.483,0.662,0.88,0.662c0.086,0,0.173-0.014,0.258-0.039
		c0.487-0.141,0.766-0.648,0.626-1.137l-1.091-3.75c-0.114-0.393-0.475-0.664-0.882-0.664H26.102v-0.504h20.485l1.614,5.436
		c0.145,0.488,0.653,0.764,1.143,0.617c0.484-0.143,0.763-0.654,0.618-1.139l-1.81-6.096c-0.117-0.389-0.475-0.656-0.881-0.656
		h-1.548v-0.625c0.899-0.047,1.718-0.545,2.172-1.33c0.474-0.826,0.473-1.842-0.005-2.666L27.304,1.64
		C26.827,0.819,25.949,0.313,25,0.313c-0.949,0-1.827,0.506-2.304,1.327L2.11,37.135c-0.479,0.824-0.48,1.84-0.005,2.666
		c0.445,0.771,1.244,1.266,2.125,1.328v0.627H2.729c-0.406,0-0.765,0.268-0.88,0.656l-1.811,6.096
		c-0.144,0.484,0.134,0.996,0.619,1.139c0.087,0.027,0.176,0.041,0.262,0.041c0.396,0,0.761-0.258,0.88-0.658l1.615-5.436h20.483
		v0.504h-19.4c-0.405,0-0.763,0.268-0.879,0.654l-1.137,3.75c-0.147,0.486,0.127,0.998,0.612,1.145
		c0.485,0.148,0.999-0.127,1.146-0.611l0.94-3.1h39.685L45.76,49.025z M25,8.283l15.964,27.526H9.035L25,8.283z M6.433,41.756
		v-0.621H43.52v0.621H6.433z"/>
</g>
</svg>
