<?xml version="1.0" encoding="utf-8"?>
<!-- Generator: Adobe Illustrator 15.1.0, SVG Export Plug-In . SVG Version: 6.00 Build 0)  -->
<!DOCTYPE svg PUBLIC "-//W3C//DTD SVG 1.1//EN" "http://www.w3.org/Graphics/SVG/1.1/DTD/svg11.dtd">
<svg version="1.1" id="Ebene_1" xmlns="http://www.w3.org/2000/svg" xmlns:xlink="http://www.w3.org/1999/xlink" x="0px" y="0px"
	 width="50px" height="50px" viewBox="0 0 50 50" style="enable-background:new 0 0 50 50;" xml:space="preserve">
<style type="text/css">
<![CDATA[
	.st0{fill:#484848;}
]]>
</style>
<g>
	<path class="st0" d="M22.181,15.685c0,0,0.333,1.37,0.333,1.925c0,0.556-0.371,1.333-0.371,1.333s-0.555,1.111-0.704,1.406
		c-0.148,0.296,0,0.37,0,0.37s-0.181,0.459-0.212,0.736c-0.03,0.278,0.185,0.525,0.185,0.525l2.433,1.086c0,0,0.436,0,0.544-0.196
		c0.11-0.196,0.345-0.598,0.345-0.598s0.296,0.038,0.444-0.185c0.148-0.222,0.851-1.592,0.851-1.592s0.519-1.036,0.814-1.37
		c0.297-0.333,0.926-0.629,0.926-0.629l4.33-1.554c0,0,1.001-0.296,1.519-0.74c0.518-0.445,0.925-1.333,0.925-1.333l3.681-7.611
		c0,0,1.185-1.591-5.959-5.145c-7.144-3.554-7.811-1.555-7.811-1.555l-3.347,7.796c0,0-0.222,0.629-0.333,1.295
		c-0.112,0.666,0.333,2.035,0.333,2.035L22.181,15.685z"/>
	<path class="st0" d="M38.289,42.459c-0.509-2.744-2.112-6.383-2.112-6.383s-0.676-1.482-0.37-3.203
		c0.305-1.723,2.113-1.766,2.113-1.766s0.653,0.152,0.675-1.046c0.022-1.198-0.681-1.596-0.681-1.596s-0.365-0.083-1.215-0.147
		c-0.85-0.065-4.434-0.175-4.434-0.175v-0.501c0,0,0.615,0.009,0.762-0.151c0.1-0.109,0.373-0.389,0.373-0.604h0.869v0.41
		c0,0.099,0.081,0.179,0.18,0.179h1.049c0.099,0,0.178-0.08,0.178-0.179v-1.948c0-0.099-0.079-0.179-0.178-0.179h-1.049
		c-0.099,0-0.18,0.08-0.18,0.179v0.409H33.4c0-0.167-0.121-0.737-0.373-0.909c-0.257-0.175-7.839,0.122-9.151-0.021l0.013-0.033
		c0.155-0.375,0.075-0.763-0.18-0.869l-2.733-1.132c-0.255-0.105-0.586,0.113-0.742,0.488l-0.617,1.491
		c-0.252,0.008-0.456,0.014-0.579,0.014c-2.023,0-3.854,0.406-3.854,0.406s-1.566,0.117-1.978,2.571h-1.431
		c-0.362,0-0.461,0.294-0.461,0.655c0,0.362,0.099,0.656,0.461,0.656h1.328c0.039,4.535,8.539,2.12,8.539,2.12
		s0.122-0.228,0.245-0.367c0.123-0.14,0.62-1.244,0.62-1.244l0.508,0.015l1.602,0.045c-0.396,1.892-0.506,4.942,1.53,8.17
		c0.163,0.259,0.441,0.4,0.727,0.4c0.156,0,0.314-0.043,0.457-0.133c0.4-0.252,0.521-0.782,0.268-1.183
		c-1.854-2.938-1.612-5.683-1.236-7.205l0.51,0.015c0,0-0.124,1.682,0.908,1.682c1.033,0,1.588,0,1.588,0s0.787,1.342,1.326,3.623
		c0.54,2.281,0.788,4.179,0.677,6.395c-0.112,2.227-0.52,5.28-0.52,5.28s-0.154,0.94,0.416,1.001
		c0.57,0.062,2.415-0.161,2.415-0.161l0.456-0.012v0.585h-0.586c-0.1,0-0.18,0.079-0.18,0.18v1.54c0,0.1,0.08,0.18,0.18,0.18h2.96
		c0.1,0,0.181-0.08,0.181-0.18v-1.54c0-0.101-0.081-0.18-0.181-0.18h-0.586v-0.817l1.959-0.264c0,0,0.647-0.093,0.725-0.325
		c0.078-0.231,0.062-0.971,0.062-0.971S38.799,45.204,38.289,42.459z"/>
</g>
</svg>
