<?xml version="1.0" encoding="utf-8"?>
<!-- Generator: Adobe Illustrator 15.1.0, SVG Export Plug-In . SVG Version: 6.00 Build 0)  -->
<!DOCTYPE svg PUBLIC "-//W3C//DTD SVG 1.1//EN" "http://www.w3.org/Graphics/SVG/1.1/DTD/svg11.dtd">
<svg version="1.1" id="Ebene_1" xmlns="http://www.w3.org/2000/svg" xmlns:xlink="http://www.w3.org/1999/xlink" x="0px" y="0px"
	 width="50px" height="50px" viewBox="0 0 50 50" style="enable-background:new 0 0 50 50;" xml:space="preserve">
<style type="text/css">
<![CDATA[
	.st0{fill:#e51313;}
]]>
</style>
<path class="st0" d="M36.462,0.465C36.163,0.498,30.943,0.009,25.458,0c-5.454-0.008-10.874,0.431-11.204,0.464
	c-0.663,0.066-0.63,4.043,0,4.143c0.63,0.099,3.447,0.365,3.447,0.365s-0.398,0.563-0.554,0.867
	c-0.156,0.305-0.142,1.453-0.606,2.116c-0.464,0.663-1.425,0.994-1.823,1.69c-0.176,0.308-0.155,1.389-0.397,2.121
	c-0.306,0.923-0.431,0.961-0.862,1.492c-0.431,0.53,0.199,1.16,0.696,0.928c0.498-0.232,1.326-1.094,2.552-2.884
	c0.551-0.804,0.945-1.778,1.392-2.486c0.548-0.869,1.094-1.392,1.094-1.392h2.685c0,0-0.033,1.889,0.332,3.148
	c0.216,0.747,0.666,1.179,0.995,1.407l0.5-0.001c-0.076,1.644-0.27,4.959-0.67,6.988c-0.549,2.78-2.305,5.816-2.305,5.816
	s-2.963,6.548-3.731,11.56c-0.768,5.012,0.11,12.036,0.11,12.036s0.071,0.726,0.472,1.161C17.981,49.977,18.789,50,18.789,50h11.592
	c0,0,1.295,0,1.87-0.369c0.575-0.37,0.493-1.315,0.493-1.315s0.131-14.715-0.088-21.337c-0.179-5.388-1.765-12.54-2.349-15.016
	l0.634-0.001c0.271-0.167,0.549-0.388,0.549-0.591c0-0.398,0.165-3.911,0.165-3.911s0.299-1.425,1.625-2.32
	c1.325-0.895,2.883-0.928,3.182-0.928C36.76,4.21,36.76,0.432,36.462,0.465z"/>
</svg>
