<?xml version="1.0" encoding="utf-8"?>
<!-- Generator: Adobe Illustrator 15.1.0, SVG Export Plug-In . SVG Version: 6.00 Build 0)  -->
<!DOCTYPE svg PUBLIC "-//W3C//DTD SVG 1.1//EN" "http://www.w3.org/Graphics/SVG/1.1/DTD/svg11.dtd">
<svg version="1.1" id="Ebene_1" xmlns="http://www.w3.org/2000/svg" xmlns:xlink="http://www.w3.org/1999/xlink" x="0px" y="0px"
	 width="50px" height="50px" viewBox="0 0 50 50" style="enable-background:new 0 0 50 50;" xml:space="preserve">
<style type="text/css">
<![CDATA[
	.st0{fill:#484848;}
]]>
</style>
<path class="st0" d="M6.29,45.188h2.356v2.3C8.646,48.87,9.777,50,11.159,50h27.683c1.382,0,2.513-1.13,2.513-2.513v-2.3h2.356
	c1.588,0,2.887-1.299,2.887-2.887V18.745c0-1.588-1.299-2.887-2.887-2.887h-4.812V1.197C38.899,0.539,38.36,0,37.702,0h-5.027
	c-0.658,0-1.197,0.539-1.197,1.197v14.661H18.522V1.197C18.522,0.539,17.984,0,17.326,0h-5.028c-0.657,0-1.196,0.539-1.196,1.197
	v14.661H6.29c-1.588,0-2.888,1.299-2.888,2.887v23.556C3.402,43.889,4.702,45.188,6.29,45.188z M35.188,2.566
	c1.03,0,1.866,0.835,1.866,1.866s-0.836,1.866-1.866,1.866c-1.031,0-1.867-0.835-1.867-1.866S34.157,2.566,35.188,2.566z
	 M23.859,20.664h4.742l-3.301,8.523h5.222l-9.244,14.045l4.143-10.564h-5.943L23.859,20.664z M14.812,2.566
	c1.031,0,1.867,0.835,1.867,1.866s-0.836,1.866-1.867,1.866c-1.03,0-1.866-0.835-1.866-1.866S13.781,2.566,14.812,2.566z"/>
</svg>
