<?xml version="1.0" encoding="utf-8"?>
<!-- Generator: Adobe Illustrator 15.1.0, SVG Export Plug-In . SVG Version: 6.00 Build 0)  -->
<!DOCTYPE svg PUBLIC "-//W3C//DTD SVG 1.1//EN" "http://www.w3.org/Graphics/SVG/1.1/DTD/svg11.dtd">
<svg version="1.1" id="Ebene_1" xmlns="http://www.w3.org/2000/svg" xmlns:xlink="http://www.w3.org/1999/xlink" x="0px" y="0px"
	 width="50px" height="50px" viewBox="0 0 50 50" style="enable-background:new 0 0 50 50;" xml:space="preserve">
<style type="text/css">
<![CDATA[
	.st0{fill:#e51313;}
]]>
</style>
<path class="st0" d="M33.338,33.075v-1.498c0-0.373-0.302-0.721-0.672-0.773l-2.749-0.391c-0.261-0.038-0.641-0.07-0.974-0.085
	c-0.313-1.944-1.079-3.734-2.184-5.266c0.225-0.247,0.472-0.538,0.63-0.75l1.668-2.22c0.224-0.298,0.191-0.758-0.072-1.022
	l-1.059-1.059c-0.264-0.264-0.725-0.296-1.022-0.072l-2.22,1.667c-0.212,0.159-0.503,0.405-0.75,0.63
	c-1.531-1.104-3.322-1.87-5.266-2.184c-0.016-0.333-0.048-0.712-0.085-0.973l-0.391-2.75c-0.052-0.369-0.4-0.672-0.774-0.672h-1.498
	c-0.373,0-0.721,0.302-0.774,0.672l-0.391,2.75c-0.037,0.261-0.069,0.641-0.085,0.973c-1.944,0.314-3.735,1.079-5.267,2.183
	c-0.247-0.224-0.538-0.471-0.75-0.629l-2.22-1.668c-0.298-0.225-0.758-0.192-1.022,0.072l-1.06,1.059
	c-0.264,0.264-0.296,0.724-0.072,1.022l1.667,2.221c0.159,0.211,0.405,0.502,0.629,0.749c-1.104,1.532-1.869,3.323-2.184,5.267
	c-0.333,0.016-0.712,0.048-0.973,0.085l-2.75,0.39C0.302,30.855,0,31.203,0,31.577v1.498c0,0.373,0.302,0.722,0.671,0.774
	l2.75,0.391c0.261,0.037,0.641,0.069,0.973,0.085c0.314,1.943,1.08,3.735,2.184,5.267c-0.225,0.246-0.471,0.538-0.63,0.749
	L4.28,42.562c-0.224,0.298-0.191,0.758,0.072,1.022l1.06,1.06c0.264,0.264,0.724,0.296,1.022,0.072l2.221-1.668
	c0.212-0.159,0.503-0.405,0.75-0.63c1.531,1.104,3.323,1.869,5.267,2.184c0.016,0.332,0.048,0.712,0.085,0.974l0.391,2.748
	c0.053,0.37,0.401,0.672,0.774,0.672h1.498c0.373,0,0.721-0.302,0.774-0.672l0.391-2.748c0.037-0.262,0.069-0.642,0.085-0.974
	c1.943-0.314,3.735-1.079,5.266-2.184c0.247,0.224,0.538,0.471,0.75,0.629l2.22,1.669c0.298,0.224,0.759,0.19,1.022-0.073
	l1.059-1.059c0.264-0.264,0.297-0.724,0.072-1.022l-1.668-2.221c-0.158-0.211-0.405-0.503-0.628-0.75
	c1.104-1.531,1.868-3.322,2.182-5.266c0.333-0.016,0.713-0.048,0.974-0.085l2.749-0.391C33.036,33.797,33.338,33.448,33.338,33.075z
	 M16.669,36.203c-2.142,0-3.877-1.735-3.877-3.877s1.735-3.877,3.877-3.877c2.141,0,3.876,1.735,3.876,3.877
	S18.811,36.203,16.669,36.203z"/>
<path class="st0" d="M24.326,8.15l-0.404,1.159c-0.087,0.251,0.036,0.555,0.274,0.675l1.814,0.908
	c0.129,0.065,0.305,0.144,0.48,0.217c-0.262,1.462-0.16,2.928,0.25,4.291c-0.168,0.093-0.336,0.192-0.457,0.272l-1.697,1.111
	c-0.222,0.146-0.31,0.461-0.194,0.702l0.534,1.105c0.116,0.239,0.418,0.367,0.672,0.283l1.924-0.639
	c0.138-0.045,0.319-0.115,0.496-0.188c0.813,1.168,1.899,2.158,3.206,2.861c-0.051,0.183-0.099,0.371-0.128,0.513l-0.415,1.984
	c-0.055,0.261,0.107,0.546,0.359,0.634l1.158,0.404c0.252,0.087,0.556-0.036,0.676-0.274l0.908-1.812
	c0.065-0.13,0.144-0.307,0.218-0.482c1.462,0.262,2.928,0.162,4.29-0.248c0.094,0.167,0.192,0.334,0.272,0.456l1.11,1.696
	c0.146,0.223,0.461,0.311,0.701,0.195l1.105-0.534c0.24-0.116,0.368-0.418,0.283-0.671l-0.638-1.924
	c-0.046-0.138-0.115-0.32-0.188-0.497c1.168-0.813,2.159-1.899,2.861-3.207c0.184,0.052,0.371,0.1,0.513,0.129l1.984,0.414
	c0.261,0.054,0.546-0.107,0.634-0.358l0.404-1.159c0.087-0.252-0.036-0.555-0.274-0.675l-1.811-0.909
	c-0.131-0.065-0.307-0.144-0.482-0.217c0.262-1.461,0.161-2.927-0.248-4.291c0.167-0.093,0.333-0.192,0.455-0.272l1.696-1.11
	c0.223-0.146,0.311-0.462,0.194-0.702L46.33,6.886c-0.117-0.24-0.419-0.368-0.672-0.284L43.735,7.24
	c-0.139,0.046-0.32,0.116-0.497,0.188c-0.813-1.168-1.899-2.158-3.208-2.861c0.053-0.183,0.101-0.371,0.13-0.513l0.414-1.984
	c0.054-0.261-0.106-0.546-0.358-0.634l-1.159-0.404c-0.251-0.087-0.556,0.036-0.675,0.274l-0.909,1.812
	c-0.065,0.129-0.144,0.306-0.218,0.482c-1.461-0.262-2.927-0.161-4.29,0.248c-0.093-0.167-0.192-0.334-0.271-0.456l-1.11-1.696
	c-0.146-0.223-0.463-0.311-0.702-0.195l-1.105,0.534c-0.239,0.116-0.367,0.417-0.283,0.671l0.639,1.924
	c0.046,0.138,0.115,0.319,0.188,0.496c-1.168,0.813-2.157,1.899-2.86,3.207c-0.184-0.052-0.371-0.1-0.513-0.129L24.96,7.792
	C24.699,7.737,24.414,7.898,24.326,8.15z M31.967,11.462c0.704-2.022,2.916-3.089,4.938-2.385c2.021,0.705,3.089,2.915,2.385,4.937
	c-0.705,2.022-2.916,3.089-4.937,2.385C32.331,15.694,31.262,13.484,31.967,11.462z"/>
<path class="st0" d="M49.816,33.836l-1.343-0.672c-0.069-0.035-0.163-0.077-0.259-0.117c0.226-1.217,0.128-2.435-0.244-3.558
	c0.089-0.052,0.176-0.105,0.241-0.149l1.237-0.85c0.132-0.091,0.182-0.281,0.11-0.426l-0.4-0.805
	c-0.071-0.144-0.254-0.22-0.405-0.169l-1.425,0.475c-0.074,0.024-0.17,0.062-0.265,0.101c-0.671-0.975-1.582-1.789-2.688-2.344
	c0.025-0.1,0.049-0.2,0.063-0.277l0.274-1.476c0.029-0.157-0.07-0.328-0.222-0.378l-0.854-0.287
	c-0.151-0.051-0.334,0.024-0.405,0.167l-0.672,1.342c-0.035,0.07-0.077,0.164-0.117,0.259c-1.217-0.225-2.436-0.126-3.558,0.246
	c-0.053-0.089-0.106-0.176-0.151-0.241l-0.849-1.238c-0.091-0.132-0.281-0.182-0.425-0.11l-0.806,0.401
	c-0.144,0.071-0.22,0.254-0.169,0.405l0.474,1.425c0.025,0.074,0.062,0.17,0.102,0.265c-0.975,0.671-1.788,1.583-2.343,2.688
	c-0.1-0.025-0.2-0.049-0.277-0.062l-1.476-0.275c-0.157-0.029-0.327,0.07-0.378,0.223l-0.287,0.852
	c-0.051,0.152,0.025,0.335,0.167,0.406l1.343,0.672c0.07,0.035,0.164,0.077,0.259,0.116c-0.225,1.217-0.127,2.436,0.245,3.558
	c-0.089,0.053-0.176,0.107-0.241,0.152l-1.237,0.849c-0.132,0.09-0.183,0.281-0.11,0.425l0.4,0.805
	c0.07,0.144,0.254,0.22,0.404,0.169l1.425-0.474c0.074-0.024,0.171-0.062,0.267-0.101c0.67,0.974,1.582,1.787,2.688,2.342
	c-0.025,0.1-0.049,0.2-0.063,0.277l-0.274,1.476c-0.029,0.157,0.071,0.327,0.223,0.379l0.853,0.286
	c0.151,0.051,0.334-0.024,0.405-0.168l0.673-1.342c0.034-0.07,0.077-0.164,0.116-0.259c1.217,0.225,2.435,0.127,3.558-0.245
	c0.052,0.089,0.106,0.177,0.15,0.24l0.85,1.238c0.091,0.133,0.281,0.182,0.425,0.11l0.806-0.399
	c0.143-0.072,0.219-0.255,0.168-0.406l-0.474-1.424c-0.025-0.074-0.062-0.171-0.101-0.266c0.974-0.671,1.787-1.582,2.342-2.688
	c0.101,0.026,0.201,0.049,0.277,0.063l1.476,0.274c0.157,0.03,0.328-0.07,0.379-0.223l0.286-0.852
	C50.035,34.091,49.959,33.907,49.816,33.836z M44.818,32.98c-0.682,2.029-2.881,3.122-4.91,2.44s-3.122-2.881-2.44-4.91
	s2.881-3.122,4.91-2.439C44.406,28.753,45.5,30.951,44.818,32.98z"/>
</svg>
