<svg xmlns="http://www.w3.org/2000/svg" width="50" height="50" viewBox="0 0 50 50">
  <title>Ресурс 1</title>
  <g>
    <rect width="50" height="50" style="fill: none;opacity: 0"/>
    <path d="M17.41,25.64H5.14a.92.92,0,0,1-.92-.92V20.37a.93.93,0,0,1,1.85,0V23.8H17.41V17.75a.92.92,0,0,1,1.84,0V23.8H30.6V17.75a.92.92,0,0,1,1.84,0V23.8H43.79V17.75a.92.92,0,0,1,1.84,0V31.69a.92.92,0,1,1-1.84,0V25.64H32.44v6.05a.92.92,0,0,1-1.84,0V25.64H19.25v6.05a.92.92,0,0,1-1.84,0Zm1-19.6v8.23h1.42V4.41H18.57l-2.42,2,.75.94Zm.16,36.27c1.09-1.09,2.85-2.84,2.85-4.48C21.42,36,20,35,18.22,35a6.65,6.65,0,0,0-2.59.58l.14,1.21A5,5,0,0,1,18,36.18a1.71,1.71,0,0,1,1.9,1.57c0,1.59-1.76,3.19-2.84,4.21-.63.58-1.26,1.13-1.77,1.58v1.51h6.24V43.89H16.83C17.31,43.46,18,42.86,18.57,42.31ZM34,41.25h1.25v1.16H34v2.24H32.6V42.41H28V41.25l4-6.46h2ZM32.6,36h0l-3.08,5.3H32.6ZM48,42a3.05,3.05,0,0,1-3.16,3.26c-2.76,0-3.32-2.49-3.32-4.73,0-2.67.87-5.47,4-5.47a7.12,7.12,0,0,1,2,.31l-.2,1.26a3.73,3.73,0,0,0-1.75-.41c-1.84,0-2.73,1.69-2.75,3.59l0,0a2.92,2.92,0,0,1,2.17-.9A2.85,2.85,0,0,1,48,42Zm-1.5,0A1.75,1.75,0,1,0,43,42a1.91,1.91,0,0,0,1.73,2.07A1.84,1.84,0,0,0,46.5,42ZM4.26,9.89H3.41v4.38H2V4.41H4.42c1.94,0,3.82.31,3.82,2.67a2.3,2.3,0,0,1-2,2.25v0c.44.16.65.38,1,1L9,14.27H7.42L5.91,10.85C5.47,9.89,5,9.89,4.26,9.89ZM3.41,8.65h1.2c1.35,0,2.14-.59,2.14-1.54s-.68-1.46-2-1.46H3.41Zm31.05,3a2.4,2.4,0,0,0-2.2-2.44v0a2.35,2.35,0,0,0,2.11-2.24c0-1.87-1.49-2.69-3.23-2.69a7.87,7.87,0,0,0-2.47.44l.08,1.26a4.75,4.75,0,0,1,2.19-.54c1,0,1.94.42,1.94,1.55s-1.43,1.61-2.45,1.61h-.79V9.72h.87c1.27,0,2.45.41,2.45,1.88,0,1.26-1.32,1.68-2.4,1.68a5.11,5.11,0,0,1-2.16-.53l-.08,1.31a8.53,8.53,0,0,0,2.26.38C32.52,14.44,34.46,13.9,34.46,11.64Zm13.36-.52a3.1,3.1,0,0,0-3.19-3,5.27,5.27,0,0,0-1.28.14l.09-2.64h4.1V4.41H42.11L42,9.6a4.36,4.36,0,0,1,1.9-.37,2,2,0,1,1,.09,4A3.87,3.87,0,0,1,42,12.79l0,1.33a6.37,6.37,0,0,0,2.12.32C46.1,14.44,47.82,13.28,47.82,11.12Z" style="fill: #484848"/>
  </g>
</svg>
