<svg xmlns="http://www.w3.org/2000/svg" width="50" height="47.99" viewBox="0 0 50 47.99">
  <title>icon_antrieb_2</title>
  <path d="M33.34,32.07v-1.5a.8.8,0,0,0-.67-.77l-2.75-.39c-.26,0-.64-.07-1-.09a12.35,12.35,0,0,0-2.18-5.26c.22-.25.47-.54.63-.75l1.67-2.22a.8.8,0,0,0-.08-1L27.93,19a.82.82,0,0,0-1-.08L24.68,20.6c-.21.16-.5.41-.75.63a12.35,12.35,0,0,0-5.26-2.18c0-.34-.05-.71-.09-1l-.39-2.75a.81.81,0,0,0-.77-.67h-1.5a.8.8,0,0,0-.77.67l-.4,2.75c0,.27-.06.65-.08,1A12.39,12.39,0,0,0,9.4,21.23c-.24-.22-.54-.47-.75-.63L6.43,18.93a.8.8,0,0,0-1,.08l-1.06,1a.82.82,0,0,0-.07,1L6,23.31c.15.21.4.5.62.75a12.48,12.48,0,0,0-2.18,5.26c-.33,0-.71.05-1,.09L.67,29.8a.8.8,0,0,0-.67.77v1.5a.8.8,0,0,0,.67.77l2.75.4,1,.08a12.41,12.41,0,0,0,2.19,5.27,9.3,9.3,0,0,0-.63.75L4.28,41.56a.81.81,0,0,0,.07,1l1.06,1.06a.8.8,0,0,0,1,.07L8.65,42a7.84,7.84,0,0,0,.75-.63,12.46,12.46,0,0,0,5.27,2.19c0,.33.05.71.09,1l.39,2.75a.8.8,0,0,0,.77.67h1.5a.8.8,0,0,0,.77-.67l.4-2.75c0-.26.06-.64.08-1a12.41,12.41,0,0,0,5.27-2.19,7.84,7.84,0,0,0,.75.63l2.22,1.67a.8.8,0,0,0,1-.07L29,42.58a.81.81,0,0,0,.07-1l-1.67-2.22a9.3,9.3,0,0,0-.63-.75,12.27,12.27,0,0,0,2.18-5.27l1-.08,2.75-.4A.8.8,0,0,0,33.34,32.07ZM16.67,35.2a3.88,3.88,0,1,1,3.88-3.88A3.88,3.88,0,0,1,16.67,35.2ZM24.33,7.15,23.92,8.3A.58.58,0,0,0,24.2,9L26,9.89l.48.21a9.29,9.29,0,0,0,.25,4.3l-.46.27-1.69,1.11a.56.56,0,0,0-.2.7l.54,1.11a.58.58,0,0,0,.67.28l1.92-.64L28,17a9.2,9.2,0,0,0,3.2,2.86,4.68,4.68,0,0,0-.12.52l-.42,2A.57.57,0,0,0,31,23l1.16.41a.57.57,0,0,0,.67-.28l.91-1.81c.07-.13.15-.31.22-.48a9.25,9.25,0,0,0,4.29-.25c.09.17.19.34.27.46l1.11,1.69a.57.57,0,0,0,.7.2l1.11-.54a.55.55,0,0,0,.28-.67l-.64-1.92a4.1,4.1,0,0,0-.19-.5,9.32,9.32,0,0,0,2.87-3.2,4.55,4.55,0,0,0,.51.12l2,.42a.59.59,0,0,0,.64-.36l.4-1.16a.57.57,0,0,0-.27-.67l-1.81-.91c-.14-.07-.31-.15-.49-.22a9.25,9.25,0,0,0-.24-4.29L45,8.8l1.7-1.11a.56.56,0,0,0,.19-.7l-.53-1.11a.56.56,0,0,0-.67-.28l-1.92.64c-.14,0-.32.11-.5.18A9.43,9.43,0,0,0,40,3.56c0-.18.1-.37.13-.51l.41-2a.56.56,0,0,0-.35-.64L39.06,0a.57.57,0,0,0-.68.27l-.91,1.81c-.06.13-.14.31-.21.49A9.11,9.11,0,0,0,33,2.84l-.28-.45L31.58.69a.56.56,0,0,0-.7-.19L29.78,1a.58.58,0,0,0-.29.67l.64,1.93.19.49a9.14,9.14,0,0,0-2.86,3.21L27,7.2l-2-.41A.55.55,0,0,0,24.33,7.15ZM32,10.46a3.88,3.88,0,1,1,2.38,4.93A3.88,3.88,0,0,1,32,10.46ZM49.82,32.83l-1.35-.67L48.21,32A7.14,7.14,0,0,0,48,28.48l.24-.14,1.24-.85a.36.36,0,0,0,.11-.43l-.4-.81a.34.34,0,0,0-.41-.16l-1.42.47-.27.1a7.15,7.15,0,0,0-2.68-2.34c0-.1,0-.2.06-.28l.27-1.48a.34.34,0,0,0-.22-.37l-.85-.29a.35.35,0,0,0-.41.17l-.67,1.34a2.17,2.17,0,0,0-.12.26,7.14,7.14,0,0,0-3.56.24,2.52,2.52,0,0,0-.15-.24l-.85-1.24a.34.34,0,0,0-.42-.11l-.81.41a.34.34,0,0,0-.17.4L37,24.56a2.24,2.24,0,0,0,.1.26,7.11,7.11,0,0,0-2.34,2.69l-.28-.06L33,27.17a.34.34,0,0,0-.37.22l-.29.86a.33.33,0,0,0,.17.4l1.34.67.26.12A7.12,7.12,0,0,0,34.31,33l-.24.15L32.84,34a.32.32,0,0,0-.11.42l.4.81a.34.34,0,0,0,.4.17L35,34.92l.27-.1a7.13,7.13,0,0,0,2.69,2.35,2,2,0,0,0-.06.27l-.28,1.48a.34.34,0,0,0,.23.38l.85.28a.34.34,0,0,0,.4-.16l.68-1.35.11-.26a7.12,7.12,0,0,0,3.56-.24l.15.24.85,1.24a.35.35,0,0,0,.43.11l.8-.4a.36.36,0,0,0,.17-.41l-.47-1.42-.11-.27A7.13,7.13,0,0,0,47.57,34l.27.07,1.48.27a.34.34,0,0,0,.38-.22l.28-.85A.35.35,0,0,0,49.82,32.83Zm-5-.85a3.88,3.88,0,1,1-2.44-4.91A3.89,3.89,0,0,1,44.82,32Z" style="fill: #484848"/>
</svg>
