<?xml version="1.0" encoding="utf-8"?>
<!-- Generator: Adobe Illustrator 15.1.0, SVG Export Plug-In . SVG Version: 6.00 Build 0)  -->
<!DOCTYPE svg PUBLIC "-//W3C//DTD SVG 1.1//EN" "http://www.w3.org/Graphics/SVG/1.1/DTD/svg11.dtd">
<svg version="1.1" id="Ebene_1" xmlns="http://www.w3.org/2000/svg" xmlns:xlink="http://www.w3.org/1999/xlink" x="0px" y="0px"
	 width="50px" height="50px" viewBox="0 0 50 50" style="enable-background:new 0 0 50 50;" xml:space="preserve">
<style type="text/css">
<![CDATA[
	.st0{fill:#e51313;}
]]>
</style>
<g>
	<path class="st0" d="M37.419,34.115h-3.665v-0.983c0-1.508-2.053-2.73-3.169-2.73H18.71c-1.116,0-3.168,1.223-3.168,2.73v0.984
		h-3.877c-7.316,0-7.025,6.55-7.025,6.55v6.885C4.64,48.903,5.737,50,7.089,50h13.103c0.002,0,0.004,0,0.005,0h17.222
		c4.387,0,7.942-3.557,7.942-7.942C45.361,37.671,41.806,34.115,37.419,34.115z"/>
	<path class="st0" d="M29.57,13.03c0.077-0.071,0.122-0.149,0.122-0.23v-2.343c0-0.343-0.748-1.149-1.671-1.149h-6.747
		c-0.924,0-1.671,0.807-1.671,1.149V12.8c0,0.082,0.044,0.159,0.121,0.23H29.57z"/>
	<path class="st0" d="M21.896,1.493c0.08-0.216,0.163-0.402,0.24-0.518h0.423v7.894h0.951V0.975h0.663v7.894h0.951V0.975h0.663
		v7.894h0.951V0.975h0.422c0.076,0.117,0.16,0.303,0.241,0.521v7.373h1.356V3.275C28.758,2.298,28.148,0,27.396,0h-5.498
		c-0.751,0-1.361,2.298-1.361,3.275v5.594h1.358V1.493z"/>
	<path class="st0" d="M30.751,16.126c0-0.594-0.347-1.687-0.877-2.432H19.421c-0.529,0.746-0.877,1.838-0.877,2.432v13.575h12.207
		V16.126z"/>
</g>
</svg>
