<?xml version="1.0" encoding="utf-8"?>
<!-- Generator: Adobe Illustrator 15.1.0, SVG Export Plug-In . SVG Version: 6.00 Build 0)  -->
<!DOCTYPE svg PUBLIC "-//W3C//DTD SVG 1.1//EN" "http://www.w3.org/Graphics/SVG/1.1/DTD/svg11.dtd">
<svg version="1.1" id="Ebene_1" xmlns="http://www.w3.org/2000/svg" xmlns:xlink="http://www.w3.org/1999/xlink" x="0px" y="0px"
	 width="50px" height="50px" viewBox="0 0 50 50" style="enable-background:new 0 0 50 50;" xml:space="preserve">
<style type="text/css">
<![CDATA[
	.st0{fill:#e51313;}
]]>
</style>
<path class="st0" d="M25,50c13.785,0,25-11.215,25-25S38.785,0,25,0C11.215,0,0,11.215,0,25S11.215,50,25,50z M25,29.623
	c-2.553,0-4.623-2.069-4.623-4.623s2.07-4.624,4.623-4.624c2.553,0,4.623,2.07,4.623,4.624S27.553,29.623,25,29.623z M28.568,44.072
	v-9.254l0.012,0.102c0-3.342,2.709-6.052,6.051-6.052h9.383C42.449,36.569,36.311,42.627,28.568,44.072z M5.794,22.253
	C7.132,12.851,15.234,5.598,25,5.598s17.867,7.253,19.207,16.655h-0.049c-5.727,0-11.896-4.844-19.158-4.844
	c-7.262,0-13.603,4.844-19.201,4.844H5.794z M15.381,28.868c3.342,0,6.051,2.71,6.051,6.052v9.152
	C13.69,42.627,7.55,36.569,5.986,28.868H15.381z"/>
</svg>
