<?xml version="1.0" encoding="utf-8"?>
<!-- Generator: Adobe Illustrator 15.1.0, SVG Export Plug-In . SVG Version: 6.00 Build 0)  -->
<!DOCTYPE svg PUBLIC "-//W3C//DTD SVG 1.1//EN" "http://www.w3.org/Graphics/SVG/1.1/DTD/svg11.dtd">
<svg version="1.1" id="Ebene_1" xmlns="http://www.w3.org/2000/svg" xmlns:xlink="http://www.w3.org/1999/xlink" x="0px" y="0px"
	 width="50px" height="50px" viewBox="0 0 50 50" style="enable-background:new 0 0 50 50;" xml:space="preserve">
<style type="text/css">
<![CDATA[
	.st0{fill:#e51313;}
]]>
</style>
<path class="st0" d="M49.465,40.175l-5.66-2.061V12.713l3.648,1.328c0.422,0.153,0.888-0.064,1.041-0.485l1.322-3.634
	c0.153-0.421-0.063-0.887-0.485-1.041l-4.724-1.72c0.089-0.272-0.306-0.662-0.89-0.874c-0.585-0.213-1.137-0.168-1.244,0.098
	L37.75,4.666c-0.422-0.154-0.888,0.063-1.041,0.485l-1.323,3.634c-0.153,0.421,0.064,0.888,0.486,1.041l5.66,2.06v11.978h-31.02
	c-0.306-1.245-1.099-2.257-2.132-2.746c-0.155-0.101-0.26-0.271-0.269-0.467v-8.543h5.026c0.449,0,0.812-0.363,0.812-0.812V7.428
	c0-0.448-0.364-0.812-0.812-0.812H8.11C8.101,6.33,7.596,6.099,6.975,6.099S5.849,6.33,5.839,6.616H0.812
	C0.364,6.616,0,6.98,0,7.428v3.867c0,0.449,0.364,0.812,0.812,0.812h5.026v8.522l-0.002-0.006c0,0.211-0.112,0.396-0.279,0.5
	c-1.327,0.634-2.259,2.13-2.259,3.875c0,1.743,0.93,3.238,2.253,3.873c0.171,0.104,0.285,0.29,0.285,0.504l0.002-0.006v8.522H0.812
	C0.364,37.893,0,38.256,0,38.704v3.867c0,0.448,0.364,0.812,0.812,0.812h5.027c0.007,0.287,0.513,0.519,1.135,0.519
	s1.128-0.231,1.135-0.519h5.027c0.449,0,0.812-0.364,0.812-0.812v-3.867c0-0.448-0.364-0.812-0.812-0.812H8.111v-8.544
	c0.009-0.198,0.116-0.371,0.275-0.471c1.03-0.49,1.821-1.5,2.126-2.741h31.02v11.15l-3.648-1.328
	c-0.421-0.153-0.888,0.064-1.041,0.485l-1.322,3.634c-0.153,0.422,0.063,0.888,0.485,1.041l4.724,1.72
	c-0.091,0.272,0.305,0.662,0.89,0.875s1.139,0.169,1.244-0.099l4.724,1.72c0.422,0.153,0.888-0.064,1.041-0.486l1.322-3.633
	C50.104,40.794,49.887,40.328,49.465,40.175z"/>
</svg>
