<?xml version="1.0" encoding="utf-8"?>
<!-- Generator: Adobe Illustrator 15.1.0, SVG Export Plug-In . SVG Version: 6.00 Build 0)  -->
<!DOCTYPE svg PUBLIC "-//W3C//DTD SVG 1.1//EN" "http://www.w3.org/Graphics/SVG/1.1/DTD/svg11.dtd">
<svg version="1.1" id="Ebene_1" xmlns="http://www.w3.org/2000/svg" xmlns:xlink="http://www.w3.org/1999/xlink" x="0px" y="0px"
	 width="50px" height="50px" viewBox="0 0 50 50" style="enable-background:new 0 0 50 50;" xml:space="preserve">
<style type="text/css">
<![CDATA[
	.st0{fill:#e51313;}
]]>
</style>
<path class="st0" d="M46.871,35.955l-6.082-3.512l5.446-3.133c0.278-0.161,0.373-0.517,0.212-0.795l-0.873-1.51
	c-0.161-0.277-0.517-0.373-0.795-0.212l-6.9,3.97l-1.666-0.962V20.21l1.676-0.967l6.892,3.963c0.277,0.161,0.633,0.066,0.794-0.211
	l0.874-1.51c0.16-0.278,0.065-0.634-0.213-0.794l-5.437-3.127l6.077-3.508c0.278-0.161,0.374-0.516,0.214-0.794l-0.872-1.51
	c-0.161-0.278-0.518-0.374-0.794-0.213l-6.083,3.512l0.009-6.283c0-0.321-0.261-0.581-0.581-0.581l-1.744,0.001
	c-0.321,0-0.581,0.261-0.581,0.582l-0.014,7.961l-1.669,0.963l-8.303-4.793v-1.94l6.878-3.986c0.278-0.16,0.374-0.516,0.214-0.794
	l-0.871-1.511c-0.16-0.278-0.516-0.374-0.794-0.213l-5.427,3.145V0.581C26.458,0.26,26.197,0,25.877,0h-1.744
	c-0.321,0-0.582,0.26-0.582,0.582v7.024l-5.437-3.15c-0.278-0.16-0.634-0.064-0.794,0.213L16.45,6.179
	c-0.161,0.278-0.065,0.634,0.213,0.794l6.888,3.992v1.934l-8.297,4.79l-1.685-0.972l-0.012-7.95c0-0.321-0.26-0.582-0.581-0.582
	l-1.745-0.001c-0.321,0-0.582,0.26-0.582,0.581l0.01,6.271l-6.078-3.508c-0.278-0.161-0.634-0.065-0.794,0.212l-0.872,1.511
	c-0.161,0.278-0.065,0.634,0.213,0.794l6.083,3.512L3.764,20.69c-0.278,0.161-0.373,0.517-0.212,0.794l0.873,1.51
	c0.161,0.278,0.517,0.373,0.794,0.212l6.901-3.969l1.676,0.968v9.579l-1.686,0.974L5.22,26.794
	c-0.278-0.161-0.633-0.065-0.794,0.212l-0.873,1.51c-0.161,0.278-0.066,0.634,0.212,0.795l5.437,3.127l-6.078,3.509
	c-0.278,0.161-0.373,0.517-0.212,0.795l0.872,1.51c0.161,0.278,0.516,0.373,0.794,0.213l6.083-3.512l-0.01,6.284
	c0,0.32,0.261,0.58,0.582,0.58l1.744-0.001c0.321,0,0.581-0.261,0.581-0.582l0.013-7.961l1.672-0.966l8.299,4.792v1.942
	l-6.877,3.985c-0.279,0.16-0.374,0.517-0.213,0.794l0.871,1.512c0.16,0.278,0.516,0.374,0.794,0.214l5.426-3.146v7.019
	c0,0.321,0.261,0.581,0.582,0.581h1.744c0.322,0,0.582-0.26,0.582-0.581v-7.023l5.437,3.15c0.278,0.16,0.634,0.064,0.794-0.214
	l0.871-1.512c0.16-0.277,0.064-0.634-0.214-0.794l-6.888-3.991V37.11l8.305-4.795l1.677,0.968l0.014,7.95
	c0,0.321,0.26,0.581,0.581,0.582l1.744,0.001c0.32,0,0.581-0.26,0.581-0.58l-0.009-6.272l6.076,3.509
	c0.278,0.16,0.634,0.065,0.795-0.213l0.872-1.51C47.244,36.472,47.149,36.115,46.871,35.955z M25.005,34.587l-8.301-4.793l0-9.585
	l8.301-4.792l8.301,4.792v9.585L25.005,34.587z"/>
</svg>
