<?xml version="1.0" encoding="utf-8"?>
<!-- Generator: Adobe Illustrator 15.1.0, SVG Export Plug-In . SVG Version: 6.00 Build 0)  -->
<!DOCTYPE svg PUBLIC "-//W3C//DTD SVG 1.1//EN" "http://www.w3.org/Graphics/SVG/1.1/DTD/svg11.dtd">
<svg version="1.1" id="Ebene_1" xmlns="http://www.w3.org/2000/svg" xmlns:xlink="http://www.w3.org/1999/xlink" x="0px" y="0px"
	 width="50px" height="50px" viewBox="0 0 50 50" style="enable-background:new 0 0 50 50;" xml:space="preserve">
<style type="text/css">
<![CDATA[
	.st0{fill:#484848;}
]]>
</style>
<g>
	<path class="st0" d="M25.281,22.502h-1.771v13.031h2.075c2.545,0,3.707-1.964,3.707-6.031c0-2.241-0.193-4.123-0.968-5.396
		C27.688,23.055,26.804,22.502,25.281,22.502z"/>
	<path class="st0" d="M25.871,0.538C25.606,0.2,25.202,0.002,24.773,0c-0.002,0-0.005,0-0.007,0c-0.427,0-0.83,0.194-1.097,0.528
		C23.035,1.323,8.142,20.165,9.166,34.12C9.505,43.025,16.459,50,24.996,50c8.292,0,15.235-6.76,15.805-15.353
		C41.375,28.515,39.25,17.618,25.871,0.538z M31.701,35.811c-1.162,1.577-2.878,2.628-4.677,2.767
		c-0.719,0.056-1.632,0.11-2.768,0.11H18.22l0.222-3.174h1.14V22.488h-1.334l-0.269-3.031h5.477c1.107,0,2.572,0.055,3.349,0.111
		c1.632,0.138,3.043,0.747,4.205,1.909c1.771,1.744,2.629,4.205,2.629,7.664C33.638,31.771,33.001,34.067,31.701,35.811z"/>
</g>
</svg>
