<?xml version="1.0" encoding="utf-8"?>
<!-- Generator: Adobe Illustrator 15.1.0, SVG Export Plug-In . SVG Version: 6.00 Build 0)  -->
<!DOCTYPE svg PUBLIC "-//W3C//DTD SVG 1.1//EN" "http://www.w3.org/Graphics/SVG/1.1/DTD/svg11.dtd">
<svg version="1.1" id="Ebene_1" xmlns="http://www.w3.org/2000/svg" xmlns:xlink="http://www.w3.org/1999/xlink" x="0px" y="0px"
	 width="50px" height="50px" viewBox="0 0 50 50" style="enable-background:new 0 0 50 50;" xml:space="preserve">
<style type="text/css">
<![CDATA[
	.st0{fill:#e51313;}
]]>
</style>
<path class="st0" d="M43.5,11.155c-2.204-2.204-5.647-2.431-8.107-0.684c-0.002,0.001-0.004,0.001-0.005,0.003l-10.376,7.224
	L22.811,5.413C22.375,2.357,19.743,0,16.568,0c-3.118,0-5.712,2.274-6.216,5.25c0,0.002-0.001,0.003-0.001,0.005L4.904,35.66
	c0,0.002,0,0.004,0,0.006c-0.163,0.782-0.248,1.592-0.248,2.421c0,1.356,0.23,2.658,0.65,3.873c0.011,0.034,0.022,0.068,0.035,0.103
	c0.042,0.119,0.088,0.238,0.134,0.356c0.03,0.075,0.059,0.151,0.09,0.227s0.065,0.15,0.098,0.226
	c0.051,0.115,0.102,0.23,0.156,0.345c0.016,0.033,0.033,0.065,0.049,0.099c0.563,1.155,1.32,2.238,2.278,3.196
	c0.958,0.958,2.041,1.715,3.195,2.278c0.034,0.016,0.066,0.033,0.1,0.049c0.114,0.055,0.229,0.105,0.344,0.156
	c0.075,0.033,0.15,0.066,0.226,0.098c0.075,0.031,0.151,0.061,0.227,0.09c0.118,0.046,0.236,0.092,0.356,0.134
	c0.034,0.012,0.068,0.023,0.102,0.035C13.911,49.77,15.213,50,16.568,50c1.356,0,2.659-0.23,3.874-0.65
	c0.033-0.011,0.067-0.022,0.1-0.034c0.121-0.042,0.24-0.088,0.358-0.135c0.075-0.029,0.15-0.058,0.225-0.089
	c0.077-0.031,0.152-0.065,0.228-0.099c0.115-0.05,0.229-0.101,0.342-0.155c0.034-0.016,0.068-0.033,0.102-0.05
	c1.154-0.562,2.237-1.319,3.194-2.277c0.543-0.543,1.018-1.128,1.433-1.741c0.01-0.014,0.02-0.028,0.029-0.042
	c0.036-0.054,0.074-0.106,0.109-0.16l17.523-25.17C45.939,16.929,45.745,13.4,43.5,11.155z M16.568,3.503
	c1.548,0,2.803,1.254,2.803,2.802s-1.255,2.803-2.803,2.803s-2.803-1.255-2.803-2.803S15.021,3.503,16.568,3.503z M10.037,28.123
	c-0.002,0.001-0.003,0.003-0.005,0.004c-0.667,0.438-1.301,0.95-1.887,1.537C7.809,30,7.5,30.353,7.213,30.716l3.829-21.375
	c1.074,1.948,3.148,3.271,5.526,3.271c2.375,0,4.448-1.32,5.523-3.265l1.654,9.233L10.037,28.123z M16.568,40.89
	c-1.548,0-2.803-1.255-2.803-2.803c0-1.547,1.255-2.802,2.803-2.802s2.803,1.255,2.803,2.802
	C19.371,39.635,18.116,40.89,16.568,40.89z M24.992,29.664c-1.106-1.106-2.377-1.947-3.734-2.526
	c-0.044-0.019-0.089-0.037-0.134-0.056c-0.044-0.018-0.087-0.036-0.131-0.054c-1.368-0.55-2.861-0.854-4.424-0.854
	c-0.473,0-0.939,0.027-1.397,0.081l8.846-6.158l1.9,10.605C25.632,30.344,25.324,29.996,24.992,29.664z M28.396,39.481
	c0.054-0.458,0.084-0.922,0.084-1.395c0-0.853-0.092-1.684-0.263-2.485l-2.935-16.385l7.704-5.364
	c-0.617,2.137-0.086,4.539,1.595,6.22c1.68,1.68,4.079,2.211,6.215,1.597L28.396,39.481z M41.023,17.596
	c-1.095,1.095-2.869,1.095-3.964,0s-1.095-2.869,0-3.964c1.094-1.094,2.869-1.094,3.963,0
	C42.117,14.728,42.118,16.502,41.023,17.596z"/>
</svg>
