<svg xmlns="http://www.w3.org/2000/svg" width="40.69" height="50" viewBox="0 0 40.69 50">
  <title>icon_riementrieb_2</title>
  <path d="M38.84,11.16a6.3,6.3,0,0,0-8.1-.69h0L20.36,17.7,18.15,5.41A6.3,6.3,0,0,0,5.7,5.25h0L.25,35.66h0A12,12,0,0,0,0,38.09,11.86,11.86,0,0,0,.65,42l0,.1.14.36.09.23a2.14,2.14,0,0,0,.1.22l.15.35a.31.31,0,0,1,.05.1,12.06,12.06,0,0,0,2.28,3.19,11.84,11.84,0,0,0,3.19,2.28l.1.05.35.15.22.1.23.09.36.14.1,0a11.88,11.88,0,0,0,7.75,0l.1,0,.35-.14.23-.09.23-.1.34-.15.1-.05a11.88,11.88,0,0,0,3.2-2.28,12.35,12.35,0,0,0,1.43-1.74l0,0a.91.91,0,0,1,.11-.16L39.43,19.4A6.31,6.31,0,0,0,38.84,11.16ZM11.91,3.5a2.81,2.81,0,1,1-2.8,2.8A2.8,2.8,0,0,1,11.91,3.5ZM5.38,28.12h0a12.41,12.41,0,0,0-1.89,1.53,10.23,10.23,0,0,0-.93,1.06L6.39,9.34a6.3,6.3,0,0,0,11,0l1.66,9.23Zm6.53,12.77a2.81,2.81,0,1,1,2.8-2.8A2.8,2.8,0,0,1,11.91,40.89Zm8.43-11.23a12,12,0,0,0-3.74-2.52l-.13-.06-.13,0a11.85,11.85,0,0,0-4.43-.86,10.58,10.58,0,0,0-1.39.09l8.84-6.16,1.9,10.6A12.68,12.68,0,0,0,20.34,29.66Zm3.4,9.82a12.81,12.81,0,0,0,.08-1.39,12,12,0,0,0-.26-2.49L20.63,19.22l7.7-5.37a6.3,6.3,0,0,0,7.81,7.82ZM36.37,17.6a2.81,2.81,0,1,1,0-4A2.82,2.82,0,0,1,36.37,17.6Z" style="fill: #484848"/>
</svg>
