<?xml version="1.0" encoding="utf-8"?>
<!-- Generator: Adobe Illustrator 15.1.0, SVG Export Plug-In . SVG Version: 6.00 Build 0)  -->
<!DOCTYPE svg PUBLIC "-//W3C//DTD SVG 1.1//EN" "http://www.w3.org/Graphics/SVG/1.1/DTD/svg11.dtd">
<svg version="1.1" id="Ebene_1" xmlns="http://www.w3.org/2000/svg" xmlns:xlink="http://www.w3.org/1999/xlink" x="0px" y="0px"
	 width="50px" height="50px" viewBox="0 0 50 50" style="enable-background:new 0 0 50 50;" xml:space="preserve">
<style type="text/css">
<![CDATA[
	.st0{fill:#484848;}
]]>
</style>
<path class="st0" d="M49.398,18.964c-3.346-2.761-7.099-4.914-11.154-6.399c-4.198-1.537-8.613-2.316-13.123-2.316
	c-8.965,0-17.677,3.171-24.531,8.928c-0.699,0.587-0.79,1.63-0.203,2.33L15.198,39.16c0.282,0.336,0.686,0.546,1.123,0.584
	c0.048,0.004,0.096,0.007,0.144,0.007c0.388,0,0.765-0.137,1.063-0.388c1.864-1.565,4.172-2.513,6.587-2.72
	c0,0,0.77-0.101,1.697-0.039c0.928,0.062,1.65,0.232,1.65,0.232c1.924,0.39,3.735,1.252,5.253,2.525
	c0.339,0.285,0.776,0.422,1.219,0.381c0.44-0.042,0.847-0.258,1.126-0.602l14.567-17.856C50.203,20.581,50.101,19.543,49.398,18.964
	z M33.499,35.823c0,0-3.373-2.46-8.499-2.46s-8.273,2.473-8.273,2.473L4.009,20.677c0,0,8.578-7.12,21.112-7.12S46,20.5,46,20.5
	L33.499,35.823z"/>
</svg>
