<?xml version="1.0" encoding="utf-8"?>
<!-- Generator: Adobe Illustrator 15.1.0, SVG Export Plug-In . SVG Version: 6.00 Build 0)  -->
<!DOCTYPE svg PUBLIC "-//W3C//DTD SVG 1.1//EN" "http://www.w3.org/Graphics/SVG/1.1/DTD/svg11.dtd">
<svg version="1.1" id="Ebene_1" xmlns="http://www.w3.org/2000/svg" xmlns:xlink="http://www.w3.org/1999/xlink" x="0px" y="0px"
	 width="50px" height="50px" viewBox="0 0 50 50" style="enable-background:new 0 0 50 50;" xml:space="preserve">
<style type="text/css">
<![CDATA[
	.st0{fill:#484848;}
]]>
</style>
<path class="st0" d="M48.687,22.105c0,0,0.502-3.915,0.603-7.027c0.101-3.112-0.603-6.926-0.603-6.926s-6.224-0.736-15.058-0.736
	c-1.405,0-8.03-0.167-19.273,6.056C3.112,19.696,2.108,21.804,2.108,21.804S0,24.314,0,32.345c0,8.03,2.108,10.239,2.108,10.239
	h42.463c0,0,3.413-4.719,4.919-11.846S48.687,22.105,48.687,22.105z M44.771,26.422h-4.718c-0.499,0-0.903-0.404-0.903-0.903
	s0.404-0.903,0.903-0.903h4.718c0.499,0,0.904,0.404,0.904,0.903S45.271,26.422,44.771,26.422z M45.876,22.005L10.44,23.009
	l2.008-6.726c0,0,8.433-5.32,16.363-6.726c7.931-1.406,17.367-0.201,17.367-0.201s0.301,2.811,0.301,5.923
	S45.876,22.005,45.876,22.005z"/>
</svg>
