<?xml version="1.0" encoding="utf-8"?>
<!-- Generator: Adobe Illustrator 15.1.0, SVG Export Plug-In . SVG Version: 6.00 Build 0)  -->
<!DOCTYPE svg PUBLIC "-//W3C//DTD SVG 1.1//EN" "http://www.w3.org/Graphics/SVG/1.1/DTD/svg11.dtd">
<svg version="1.1" id="Ebene_1" xmlns="http://www.w3.org/2000/svg" xmlns:xlink="http://www.w3.org/1999/xlink" x="0px" y="0px"
	 width="50px" height="50px" viewBox="0 0 50 50" style="enable-background:new 0 0 50 50;" xml:space="preserve">
<style type="text/css">
<![CDATA[
	.st0{fill:#e51313;}
]]>
</style>
<path class="st0" d="M2.241,43.689h45.518c1.239,0,2.241-1.004,2.241-2.242v-28.1c0-1.237-1.002-2.241-2.241-2.241h-4.746V8.551
	c0.619,0,1.12-0.501,1.12-1.121c0-0.619-0.501-1.12-1.12-1.12h-6.915c-0.618,0-1.121,0.501-1.121,1.12
	c0,0.62,0.503,1.121,1.121,1.121v2.556H13.904V8.551c0.618,0,1.119-0.501,1.119-1.121c0-0.619-0.501-1.12-1.119-1.12H6.988
	c-0.618,0-1.121,0.501-1.121,1.12c0,0.62,0.503,1.121,1.121,1.121v2.556H2.241C1.004,11.106,0,12.11,0,13.347v28.1
	C0,42.686,1.004,43.689,2.241,43.689z M31.485,21.18h4.208v-4.208h3.11v4.208h4.208v3.109h-4.208v4.208h-3.11v-4.208h-4.208V21.18z
	 M6.988,21.18h11.526v3.109H6.988V21.18z"/>
</svg>
