<svg xmlns="http://www.w3.org/2000/svg" width="162" height="80" viewBox="0 0 162 80">
  <title>motul-garage-logo</title>
  <g>
    <rect width="162" height="80" style="fill: #fff"/>
    <path d="M0,0V44H162V0ZM45.41,7.56v29H35.14l.56-12.68L30.11,36.6H23.26l-2-12.86L18,36.57H7.44l8.62-29H27.24L29,19.35,34,7.56Zm35.3,15a15.12,15.12,0,0,1-8.94,13.09,18.26,18.26,0,0,1-19.61-3.23c-4.36-4.08-5.25-11-3-16.24A16.17,16.17,0,0,1,64.54,6.94a18.72,18.72,0,0,1,7.83,1.68l1.1.84L80,17.74a9.93,9.93,0,0,1,.71,4.85ZM103,16.76l-4.62-.18L96,36.57H84.81l2.54-19.95-4.25.14L76,7.54h28Zm24.28,18c-3.69,2.64-8.62,3.05-13.39,2.4-3.79-.69-8.11-3.12-9.35-6.91a13,13,0,0,1-.44-4.51l2.21-18.16h11l-2.08,18a2.71,2.71,0,0,0,1.42,2.64,3,3,0,0,0,3.06-.53,3.87,3.87,0,0,0,1.14-2.24l2.49-17.91H134l-2.31,19.87a11,11,0,0,1-4.44,7.31Zm24.51,1.85h-18.7l3.89-29h11.11L145.6,27.46h8.78Zm-86.18-20a5.73,5.73,0,0,0-5.81,2.86,6,6,0,0,0-.19,5.94,5.08,5.08,0,0,0,4,2.67,5.56,5.56,0,0,0,5.24-2.67,6.49,6.49,0,0,0,.29-6.22A4.9,4.9,0,0,0,65.61,16.59Z" style="fill: #ed252f"/>
    <path d="M19.79,60.67h10V74H25l-.24-2.48a8.68,8.68,0,0,1-7,3A10.75,10.75,0,0,1,9.45,71a13,13,0,0,1-3.19-9.1,12.57,12.57,0,0,1,3.45-9.13,11.82,11.82,0,0,1,8.89-3.56,11.18,11.18,0,0,1,7.23,2.5,9.57,9.57,0,0,1,3.55,6.55H22.24a3.52,3.52,0,0,0-3.78-2.82c-3.15,0-4.72,2.27-4.72,6.83A7.6,7.6,0,0,0,15,67.06a4.53,4.53,0,0,0,3.81,1.64c2.26,0,3.65-.94,4.15-2.83h-3.2ZM47.4,49.79,56.31,74H48.79L47.6,70.57H39.82L38.63,74H31.11l8.94-24.21ZM46,65.36l-1.29-4.14c-.3-1-.6-2.2-.92-3.68-.36,1.46-.7,2.69-1,3.71s-.78,2.48-1.33,4.11Zm33.83,6A6.34,6.34,0,0,0,80.41,74H73.07a7.1,7.1,0,0,1-.44-2.28l-.11-1.36a16.81,16.81,0,0,0-.25-2,5.32,5.32,0,0,0-.56-1.5,2.4,2.4,0,0,0-1.23-1.08,5.39,5.39,0,0,0-2.07-.34H65.28V74H57.94V49.79H71a13.15,13.15,0,0,1,3,.34,10.44,10.44,0,0,1,2.75,1.11,5.68,5.68,0,0,1,2.13,2.22,7.2,7.2,0,0,1,.8,3.47,6.8,6.8,0,0,1-1,3.57A5.94,5.94,0,0,1,76,62.85,3.75,3.75,0,0,1,78.51,65a11.43,11.43,0,0,1,1,3.81ZM72.39,57.85c0-1.63-1.15-2.45-3.44-2.45H65.28v5h4.08Q72.39,60.37,72.39,57.85Zm24.75-8.06L106.05,74H98.53l-1.19-3.43H89.56L88.37,74H80.85l8.94-24.21ZM95.71,65.36l-1.29-4.14c-.29-1-.6-2.2-.92-3.68-.36,1.46-.7,2.69-1,3.71s-.78,2.48-1.32,4.11Zm24.82.51h3.2c-.5,1.89-1.88,2.84-4.15,2.83a4.53,4.53,0,0,1-3.81-1.64,7.54,7.54,0,0,1-1.29-4.79c0-4.56,1.57-6.83,4.73-6.83A3.53,3.53,0,0,1,123,58.26h7.14a9.57,9.57,0,0,0-3.55-6.55,11.18,11.18,0,0,0-7.23-2.5,11.82,11.82,0,0,0-8.89,3.56A12.57,12.57,0,0,0,107,61.9a13,13,0,0,0,3.2,9.1,10.69,10.69,0,0,0,8.33,3.5,8.66,8.66,0,0,0,7-3l.24,2.48h4.72V60.67h-10Zm21-1.56h11.56V58.7H141.51v-3h12.75V49.79H134.2V74h20.4V67.85H141.51Z" style="fill: #1e1e1e"/>
  </g>
</svg>
