<svg xmlns="http://www.w3.org/2000/svg" width="225.42" height="46" viewBox="0 0 225.42 46">
  <title>kolchuga-logo-ua</title>
  <g>
    <g>
      <g>
        <path d="M68.88,43.4a5.05,5.05,0,0,1-6.14,0,3.31,3.31,0,0,1-1.21-2.59,3.25,3.25,0,0,1,1.21-2.58,5,5,0,0,1,6.14,0,3.24,3.24,0,0,1,1.23,2.58A3.27,3.27,0,0,1,68.88,43.4Zm-5.16-.73a3.32,3.32,0,0,0,4.18,0,2.4,2.4,0,0,0,.85-1.86A2.34,2.34,0,0,0,67.9,39a3.29,3.29,0,0,0-4.18,0,2.47,2.47,0,0,0,0,3.71Z" style="fill: #b0b0b0"/>
        <path d="M78.22,44.55H76.9v-.77a4.86,4.86,0,0,1-3.05-.91,2.65,2.65,0,0,1-1.06-2.1,2.47,2.47,0,0,1,.26-1.1,2.89,2.89,0,0,1,.73-1A3.93,3.93,0,0,1,75.07,38a6.39,6.39,0,0,1,1.83-.28v-.66h1.32v.66A6.26,6.26,0,0,1,80,38a3.55,3.55,0,0,1,1.3.69,2.89,2.89,0,0,1,.74.95,2.44,2.44,0,0,1,.26,1.1,2.51,2.51,0,0,1-.26,1.11,3,3,0,0,1-.74.94,3.55,3.55,0,0,1-1.3.69,6.26,6.26,0,0,1-1.82.28ZM76.9,42.81v-4.1a3.2,3.2,0,0,0-2.06.6,1.82,1.82,0,0,0-.69,1.45,1.84,1.84,0,0,0,.69,1.46A3.2,3.2,0,0,0,76.9,42.81Zm1.32-4.1v4.1a3.2,3.2,0,0,0,2.06-.59,1.86,1.86,0,0,0,0-2.91A3.22,3.22,0,0,0,78.22,38.71Z" style="fill: #b0b0b0"/>
        <path d="M86.7,44.31H85.38v-7H86.7Z" style="fill: #b0b0b0"/>
        <path d="M98,45.81H96.79v-1.5H90.06v-7h1.32v6h4.13v-6h1.32v6H98Z" style="fill: #b0b0b0"/>
        <path d="M102,44.31h-1.32v-7H102Z" style="fill: #b0b0b0"/>
        <path d="M106.53,44.31H105.4v-7h1.32v5.14l4.62-5.14h1.15v7h-1.32V39.15Zm2.41-7.41a2.47,2.47,0,0,1-1.54-.45,1.48,1.48,0,0,1-.6-1.2h1.11a.76.76,0,0,0,.27.6,1.16,1.16,0,0,0,.75.22,1.13,1.13,0,0,0,.74-.23.79.79,0,0,0,.29-.59h1.1a1.48,1.48,0,0,1-.6,1.2A2.47,2.47,0,0,1,108.94,36.9Z" style="fill: #b0b0b0"/>
        <path d="M117.1,44.31h-1.32v-7h1.32v2.76h4.38V37.31h1.32v7h-1.32V41.08H117.1Z" style="fill: #b0b0b0"/>
        <path d="M127.21,44.31h-1.12v-7h1.32v5.14L132,37.31h1.15v7h-1.32V39.15Z" style="fill: #b0b0b0"/>
        <path d="M137.59,44.31h-1.12v-7h1.32v5.14l4.62-5.14h1.15v7h-1.32V39.15ZM140,36.9a2.45,2.45,0,0,1-1.54-.45,1.48,1.48,0,0,1-.6-1.2H139a.76.76,0,0,0,.28.6,1.13,1.13,0,0,0,.74.22,1.16,1.16,0,0,0,.75-.23.79.79,0,0,0,.29-.59h1.1a1.46,1.46,0,0,1-.61,1.2A2.42,2.42,0,0,1,140,36.9Z" style="fill: #b0b0b0"/>
        <path d="M152.49,44.31h-1.32v-7H158v7h-1.32v-6h-4.18Z" style="fill: #b0b0b0"/>
        <path d="M161.91,44.31H160.5l3.67-7h1.28l3.67,7H167.7l-.91-1.74h-4Zm2.89-5.65-1.54,2.94h3.07Z" style="fill: #b0b0b0"/>
        <path d="M173,44.31h-1.32v-7h3.61a3.27,3.27,0,0,1,2,.57,1.73,1.73,0,0,1,.76,1.46,1.83,1.83,0,0,1-.76,1.5,3.21,3.21,0,0,1-2,.58H173Zm0-6v2.09h2.18a2.12,2.12,0,0,0,1.16-.27.89.89,0,0,0,.42-.78.86.86,0,0,0-.41-.77,2.16,2.16,0,0,0-1.17-.27Z" style="fill: #b0b0b0"/>
        <path d="M180.12,38.32v-1H187v1h-2.79v6h-1.32v-6Z" style="fill: #b0b0b0"/>
        <path d="M191,44.31h-1.32v-7H191v2.76h4.38V37.31h1.32v7h-1.32V41.08H191Z" style="fill: #b0b0b0"/>
        <path d="M206.08,44.31H200v-7h6v1h-4.65v1.75h3.79v1h-3.79V43.3h4.81Z" style="fill: #b0b0b0"/>
        <path d="M210.16,44.31h-1.32v-7h3.61a3.27,3.27,0,0,1,2.05.57,1.73,1.73,0,0,1,.76,1.46,1.83,1.83,0,0,1-.76,1.5,3.21,3.21,0,0,1-2.05.58h-2.29Zm0-6v2.09h2.18a2.12,2.12,0,0,0,1.16-.27.87.87,0,0,0,.42-.78.86.86,0,0,0-.41-.77,2.13,2.13,0,0,0-1.17-.27Z" style="fill: #b0b0b0"/>
      </g>
      <g>
        <path d="M60.54,28V6.2h2.75V17L73.6,6.2h3.72L68.62,15l9.09,13H74.08L66.69,17l-3.4,3.48V28Z" style="fill: #141414"/>
        <path d="M78.58,17.38c0-3.61.93-6.45,2.78-8.49a9.2,9.2,0,0,1,7.16-3.07,9.61,9.61,0,0,1,5.19,1.44,9.26,9.26,0,0,1,3.52,4,13.72,13.72,0,0,1,1.21,5.85,13.35,13.35,0,0,1-1.28,5.93,9,9,0,0,1-3.61,4,10,10,0,0,1-5,1.34,9.43,9.43,0,0,1-8.74-5.54A12.89,12.89,0,0,1,78.58,17.38Zm2.84.05a9,9,0,0,0,2,6.21,6.82,6.82,0,0,0,10.17,0,9.52,9.52,0,0,0,2-6.49,11.66,11.66,0,0,0-.86-4.65,6.86,6.86,0,0,0-2.51-3.08,6.53,6.53,0,0,0-3.7-1.09,6.85,6.85,0,0,0-5,2.1Q81.42,12.52,81.42,17.43Z" style="fill: #141414"/>
        <path d="M101.28,28V6.2H104V25.43h10.22V28Z" style="fill: #141414"/>
        <path d="M131.76,20.36l2.74.73a9.81,9.81,0,0,1-3.1,5.42,8.33,8.33,0,0,1-5.49,1.86,9.54,9.54,0,0,1-5.46-1.43,8.89,8.89,0,0,1-3.2-4.16,15.48,15.48,0,0,1-1.1-5.84A13.46,13.46,0,0,1,117.39,11a8.7,8.7,0,0,1,3.53-3.85,9.87,9.87,0,0,1,5-1.32,8.24,8.24,0,0,1,5.24,1.67,8.68,8.68,0,0,1,3,4.68l-2.7.67a6.76,6.76,0,0,0-2.1-3.46,5.38,5.38,0,0,0-3.46-1.09,6.53,6.53,0,0,0-4,1.2,6.33,6.33,0,0,0-2.25,3.24,13.44,13.44,0,0,0-.66,4.18,13.76,13.76,0,0,0,.78,4.86,6,6,0,0,0,2.4,3.1,6.5,6.5,0,0,0,3.52,1,5.74,5.74,0,0,0,3.91-1.39A7.29,7.29,0,0,0,131.76,20.36Z" style="fill: #141414"/>
        <path d="M137.39,28V6.2h2.75v9h10.79V6.2h2.75V28h-2.75V17.73H140.14V28Z" style="fill: #141414"/>
        <path d="M171.29,6.2H174V18.8a15.65,15.65,0,0,1-.71,5.22,6.32,6.32,0,0,1-2.55,3.14,8.72,8.72,0,0,1-4.85,1.21,9.64,9.64,0,0,1-4.78-1.05,6,6,0,0,1-2.64-3.06,15.13,15.13,0,0,1-.8-5.46V6.2h2.75V18.78A13,13,0,0,0,161,23,4,4,0,0,0,162.69,25a5.75,5.75,0,0,0,3,.73c2,0,3.46-.48,4.31-1.44s1.29-2.81,1.29-5.55Z" style="fill: #141414"/>
        <path d="M187.75,19.45V16.89h8.79V25a15.31,15.31,0,0,1-4.18,2.55,11.8,11.8,0,0,1-4.41.85A11.39,11.39,0,0,1,182.39,27a8.86,8.86,0,0,1-3.77-4,13,13,0,0,1-1.28-5.81,13.92,13.92,0,0,1,1.27-5.94,8.68,8.68,0,0,1,3.64-4.1,11,11,0,0,1,5.48-1.34,10.4,10.4,0,0,1,4.07.77,6.76,6.76,0,0,1,2.86,2.13,9.66,9.66,0,0,1,1.57,3.57l-2.48.71a8.17,8.17,0,0,0-1.16-2.61,4.71,4.71,0,0,0-2-1.53,7,7,0,0,0-2.86-.57,8.11,8.11,0,0,0-3.26.6,6,6,0,0,0-2.21,1.59A7.6,7.6,0,0,0,181,12.64a12.1,12.1,0,0,0-.79,4.39,11,11,0,0,0,1,4.87,6.31,6.31,0,0,0,2.78,2.92,8.33,8.33,0,0,0,3.88.95,8.82,8.82,0,0,0,3.48-.72,8.63,8.63,0,0,0,2.58-1.54V19.45Z" style="fill: #141414"/>
        <path d="M197.73,28l8-21.8h3l8.5,21.8H214l-2.42-6.6h-8.68L200.65,28Zm6-8.95h7l-2.17-6c-.66-1.83-1.15-3.34-1.47-4.52A28.59,28.59,0,0,1,206,12.66Z" style="fill: #141414"/>
      </g>
      <rect x="60.42" y="32" width="157" height="1" style="fill: #b0b0b0"/>
      <path d="M220.4,1a4,4,0,1,1-4,4,4,4,0,0,1,4-4m0-1a5,5,0,1,0,5,5,5,5,0,0,0-5-5Z" style="fill: #595959"/>
      <path d="M218.26,7.86V2h2.56a2.14,2.14,0,0,1,1.63.6,1.9,1.9,0,0,1,.48,1.36,1.78,1.78,0,0,1-1.2,1.82l1.37,2.1h-1.44L220.44,6h-.95V7.86Zm1.23-3h1.25a1,1,0,0,0,.69-.23.79.79,0,0,0,.25-.62.76.76,0,0,0-.25-.62,1.05,1.05,0,0,0-.72-.22h-1.22Z" style="fill: #595959"/>
      <path d="M42.84,18.67c0,.27,0,.54,0,.8A15,15,0,0,1,31.24,33.28V28.81a10.72,10.72,0,0,0,6.21-5.45,10.31,10.31,0,0,0,1.06-3.88q0-.4,0-.81A10.53,10.53,0,0,0,38,15.2,9.38,9.38,0,0,0,37.45,14a10.69,10.69,0,0,0-19.19,0H13.61a15,15,0,0,1,29.23,4.74Z" style="fill: #e86714"/>
      <path d="M37.45,15.3v4.45A10.72,10.72,0,0,0,30,29.13H30c0,.27,0,.54,0,.81a14.89,14.89,0,0,1-.44,3.62,14.58,14.58,0,0,1-3,5.88h0A15,15,0,1,1,13.28,15.05,13.94,13.94,0,0,1,15,15a15.31,15.31,0,0,1,2.73.25,15,15,0,0,1,9.57,6.16L24.46,23.7l-.51.41a10.62,10.62,0,0,0-4-3.65A10.8,10.8,0,0,0,15,19.25a10.09,10.09,0,0,0-2.14.22,10,10,0,0,0-2.8,1,10.69,10.69,0,1,0,14.4,14.46,10,10,0,0,0,.65-1.5A10.48,10.48,0,0,0,25.69,30c0-.27,0-.54,0-.81A15,15,0,0,1,37.45,15.3Z" style="fill: #e86714"/>
      <path d="M55.69,30a15,15,0,0,1-27.54,8.23l3.09-2.54.27-.22a10.69,10.69,0,1,0,12-15.8V15.21A15,15,0,0,1,55.69,30Z" style="fill: #e86714"/>
      <path d="M24.46,28.81v4.48A15,15,0,0,1,13,20.46H17.3a10.71,10.71,0,0,0,7.16,8.35Z" style="fill: #e86714"/>
    </g>
    <rect x="0.42" width="225" height="46" style="fill: #fff;opacity: 0"/>
  </g>
</svg>
