<svg xmlns="http://www.w3.org/2000/svg" width="226.04" height="46" viewBox="0 0 226.04 46">
  <title>kolchuga-logo-ru</title>
  <g>
    <rect width="226.04" height="46" style="fill: #fff;opacity: 0"/>
    <g>
      <rect x="61.04" y="32" width="157" height="1" style="fill: #b0b0b0"/>
      <g>
        <path d="M68.15,43.4a3.67,3.67,0,0,1-5.12,0,3.63,3.63,0,0,1-1-2.59,3.56,3.56,0,0,1,1-2.58,3.65,3.65,0,0,1,5.12,0,3.53,3.53,0,0,1,1,2.58A3.57,3.57,0,0,1,68.15,43.4Zm-4.3-.73a2.35,2.35,0,0,0,1.74.74,2.32,2.32,0,0,0,1.74-.74A2.61,2.61,0,0,0,68,40.81,2.53,2.53,0,0,0,67.33,39a2.29,2.29,0,0,0-1.74-.75,2.32,2.32,0,0,0-1.74.75,2.81,2.81,0,0,0,0,3.71Z" style="fill: #b0b0b0"/>
        <path d="M75.94,44.55H74.83v-.77a3.63,3.63,0,0,1-2.54-.91,2.86,2.86,0,0,1-.87-2.1,2.73,2.73,0,0,1,.21-1.1,3,3,0,0,1,.61-1A3.09,3.09,0,0,1,73.31,38a4.52,4.52,0,0,1,1.52-.28v-.66h1.11v.66a4.52,4.52,0,0,1,1.52.28,3,3,0,0,1,1.08.69,2.76,2.76,0,0,1,.61.95,2.87,2.87,0,0,1,.21,1.1,3,3,0,0,1-.21,1.11,2.82,2.82,0,0,1-.61.94,3,3,0,0,1-1.08.69,4.52,4.52,0,0,1-1.52.28Zm-1.11-1.74v-4.1a2.41,2.41,0,0,0-1.72.6,2,2,0,0,0-.57,1.45,2,2,0,0,0,.57,1.46A2.41,2.41,0,0,0,74.83,42.81Zm1.11-4.1v4.1a2.37,2.37,0,0,0,1.71-.59,2.12,2.12,0,0,0,0-2.91A2.36,2.36,0,0,0,75.94,38.71Z" style="fill: #b0b0b0"/>
        <path d="M82.79,44.31h-.94v-7H83v5.14l3.85-5.14h1v7h-1.1V39.15Z" style="fill: #b0b0b0"/>
        <path d="M97.15,45.81h-1v-1.5H90.5v-7h1.1v6H95v-6h1.1v6h1Z" style="fill: #b0b0b0"/>
        <path d="M100.27,44.31h-.94v-7h1.1v5.14l3.85-5.14h1v7h-1.1V39.15Z" style="fill: #b0b0b0"/>
        <path d="M108.5,44.31h-1.17l3.06-7h1.06l3.06,7h-1.18l-.76-1.74h-3.32Zm2.41-5.65-1.28,2.94h2.56Z" style="fill: #b0b0b0"/>
        <path d="M115.83,44.29v-1a1.22,1.22,0,0,0,.37,0c.5,0,.82-.31,1-.92a11,11,0,0,0,.28-2.7l0-2.4h4.66v7h-1.1v-6h-2.5l0,1.5a9.75,9.75,0,0,1-.49,3.37,1.93,1.93,0,0,1-2.2,1.1Z" style="fill: #b0b0b0"/>
        <path d="M127.8,44.31h-2.91v-7H126v2.42h1.81a2.7,2.7,0,0,1,1.92.64,2.14,2.14,0,0,1,.7,1.66,2.11,2.11,0,0,1-.71,1.65A2.77,2.77,0,0,1,127.8,44.31ZM126,40.74V43.3h1.75a1.72,1.72,0,0,0,1.15-.34,1.11,1.11,0,0,0,.41-.93,1.15,1.15,0,0,0-.41-1,1.75,1.75,0,0,0-1.15-.34Z" style="fill: #b0b0b0"/>
        <path d="M133.79,44.31h-1.1v-7h1.1v2.76h3.65V37.31h1.1v7h-1.1V41.08h-3.65Z" style="fill: #b0b0b0"/>
        <path d="M144,44.31h-2.67v-7h1.1v2.42H144a2.7,2.7,0,0,1,1.92.64,2.14,2.14,0,0,1,.7,1.66,2.11,2.11,0,0,1-.71,1.65A2.77,2.77,0,0,1,144,44.31Zm-1.57-3.57V43.3h1.51A1.72,1.72,0,0,0,145,43a1.11,1.11,0,0,0,.41-.93,1.15,1.15,0,0,0-.41-1,1.75,1.75,0,0,0-1.15-.34Zm6.24,3.57h-1.1v-7h1.1Z" style="fill: #b0b0b0"/>
        <path d="M152.3,44.31h-.94v-7h1.1v5.14l3.85-5.14h1v7h-1.1V39.15Zm2-7.41a1.84,1.84,0,0,1-1.28-.45,1.62,1.62,0,0,1-.5-1.2h.92a.83.83,0,0,0,.23.6.86.86,0,0,0,.62.22.85.85,0,0,0,.62-.23.78.78,0,0,0,.24-.59h.92a1.55,1.55,0,0,1-.5,1.2A1.81,1.81,0,0,1,154.31,36.9Z" style="fill: #b0b0b0"/>
        <path d="M164.71,44.31h-1.1v-7h5.69v7h-1.1v-6h-3.49Z" style="fill: #b0b0b0"/>
        <path d="M172.56,44.31h-1.17l3.06-7h1.06l3.06,7h-1.18l-.76-1.74h-3.32ZM175,38.66l-1.28,2.94h2.56Z" style="fill: #b0b0b0"/>
        <path d="M181.76,44.31h-1.1v-7h3a2.39,2.39,0,0,1,1.71.57,1.84,1.84,0,0,1,.63,1.46,2,2,0,0,1-.63,1.5,2.35,2.35,0,0,1-1.71.58h-1.91Zm0-6v2.09h1.82a1.53,1.53,0,0,0,1-.27.93.93,0,0,0,.35-.78.92.92,0,0,0-.34-.77,1.57,1.57,0,0,0-1-.27Z" style="fill: #b0b0b0"/>
        <path d="M187.74,38.32v-1h5.73v1h-2.32v6h-1.1v-6Z" style="fill: #b0b0b0"/>
        <path d="M196.77,44.31h-1.1v-7h1.1v2.76h3.65V37.31h1.1v7h-1.1V41.08h-3.65Z" style="fill: #b0b0b0"/>
        <path d="M209.37,44.31h-5.11v-7h5v1h-3.88v1.75h3.16v1h-3.16V43.3h4Z" style="fill: #b0b0b0"/>
        <path d="M212.77,44.31h-1.1v-7h3a2.39,2.39,0,0,1,1.71.57,1.84,1.84,0,0,1,.63,1.46,2,2,0,0,1-.63,1.5,2.35,2.35,0,0,1-1.71.58h-1.91Zm0-6v2.09h1.82a1.53,1.53,0,0,0,1-.27.93.93,0,0,0,.35-.78.92.92,0,0,0-.34-.77,1.57,1.57,0,0,0-1-.27Z" style="fill: #b0b0b0"/>
      </g>
      <g>
        <path d="M61.17,28V6.2h2.74V17L74.22,6.2H78L69.24,15l9.09,13H74.7L67.31,17l-3.4,3.48V28Z" style="fill: #141414"/>
        <path d="M79.21,17.38c0-3.61.92-6.45,2.77-8.49a9.21,9.21,0,0,1,7.17-3.07,9.6,9.6,0,0,1,5.18,1.44,9.26,9.26,0,0,1,3.52,4,13.57,13.57,0,0,1,1.21,5.85,13.48,13.48,0,0,1-1.27,5.93,9,9,0,0,1-3.62,4,10,10,0,0,1-5,1.34,9.4,9.4,0,0,1-8.73-5.54A12.74,12.74,0,0,1,79.21,17.38Zm2.83.05a9,9,0,0,0,2,6.21,6.81,6.81,0,0,0,10.16,0,9.52,9.52,0,0,0,2-6.49,11.66,11.66,0,0,0-.86-4.65,6.86,6.86,0,0,0-2.51-3.08,6.53,6.53,0,0,0-3.7-1.09,6.86,6.86,0,0,0-5,2.1Q82,12.52,82,17.43Z" style="fill: #141414"/>
        <path d="M101.91,28V6.2h2.74V25.43h10.23V28Z" style="fill: #141414"/>
        <path d="M132.38,20.36l2.75.73A9.88,9.88,0,0,1,132,26.51a8.33,8.33,0,0,1-5.49,1.86,9.54,9.54,0,0,1-5.46-1.43,8.89,8.89,0,0,1-3.2-4.16,15.48,15.48,0,0,1-1.1-5.84A13.46,13.46,0,0,1,118,11a8.75,8.75,0,0,1,3.53-3.85,9.87,9.87,0,0,1,5-1.32,8.22,8.22,0,0,1,5.24,1.67,8.62,8.62,0,0,1,3,4.68l-2.7.67A6.7,6.7,0,0,0,130,9.39a5.36,5.36,0,0,0-3.45-1.09,6.49,6.49,0,0,0-4,1.2,6.35,6.35,0,0,0-2.26,3.24,13.43,13.43,0,0,0-.65,4.18,13.77,13.77,0,0,0,.77,4.86,6,6,0,0,0,2.4,3.1,6.5,6.5,0,0,0,3.52,1,5.73,5.73,0,0,0,3.91-1.39A7.29,7.29,0,0,0,132.38,20.36Z" style="fill: #141414"/>
        <path d="M138,28V6.2h2.74v9h10.79V6.2h2.75V28h-2.75V17.73H140.76V28Z" style="fill: #141414"/>
        <path d="M171.92,6.2h2.74V18.8A15.69,15.69,0,0,1,174,24a6.39,6.39,0,0,1-2.56,3.14,8.69,8.69,0,0,1-4.85,1.21,9.58,9.58,0,0,1-4.77-1.05,6,6,0,0,1-2.65-3.06,15.16,15.16,0,0,1-.79-5.46V6.2h2.74V18.78a12.68,12.68,0,0,0,.51,4.19A3.94,3.94,0,0,0,163.31,25a5.75,5.75,0,0,0,3,.73q3,0,4.32-1.44t1.29-5.55Z" style="fill: #141414"/>
        <path d="M188.37,19.45V16.89h8.79V25A15.41,15.41,0,0,1,193,27.52a11.89,11.89,0,0,1-4.42.85A11.42,11.42,0,0,1,183,27a8.91,8.91,0,0,1-3.77-4A13,13,0,0,1,178,17.21a13.92,13.92,0,0,1,1.27-5.94,8.64,8.64,0,0,1,3.65-4.1,11,11,0,0,1,5.48-1.34,10.43,10.43,0,0,1,4.07.77,6.79,6.79,0,0,1,2.85,2.13,9.66,9.66,0,0,1,1.57,3.57l-2.48.71a8,8,0,0,0-1.16-2.61,4.71,4.71,0,0,0-2-1.53,7,7,0,0,0-2.86-.57,8.11,8.11,0,0,0-3.26.6,6,6,0,0,0-2.21,1.59,7.57,7.57,0,0,0-1.31,2.15,11.9,11.9,0,0,0-.8,4.39,11,11,0,0,0,1,4.87,6.36,6.36,0,0,0,2.78,2.92,8.33,8.33,0,0,0,3.88.95,8.9,8.9,0,0,0,3.49-.72,8.69,8.69,0,0,0,2.57-1.54V19.45Z" style="fill: #141414"/>
        <path d="M198.35,28l8-21.8h3L217.78,28h-3.13l-2.42-6.6h-8.68L201.27,28Zm6-8.95h7l-2.17-6c-.66-1.83-1.15-3.34-1.47-4.52a27.38,27.38,0,0,1-1.12,4.17Z" style="fill: #141414"/>
      </g>
      <path d="M221,1a4,4,0,1,1-4,4,4,4,0,0,1,4-4m0-1a5,5,0,1,0,5,5,5,5,0,0,0-5-5Z" style="fill: #595959"/>
      <path d="M218.88,7.86V2h2.56a2.14,2.14,0,0,1,1.63.6,1.9,1.9,0,0,1,.48,1.36,1.78,1.78,0,0,1-1.2,1.82l1.37,2.1h-1.44L221.07,6h-1V7.86Zm1.23-3h1.25a1,1,0,0,0,.7-.23A.81.81,0,0,0,222.3,4a.76.76,0,0,0-.25-.62,1,1,0,0,0-.71-.22h-1.23Z" style="fill: #595959"/>
      <g>
        <path d="M43.46,18.67c0,.27,0,.54,0,.8A15,15,0,0,1,31.86,33.28V28.81a10.72,10.72,0,0,0,6.21-5.45,10.31,10.31,0,0,0,1.06-3.88q0-.4,0-.81a10.53,10.53,0,0,0-.58-3.47A9.38,9.38,0,0,0,38.07,14a10.69,10.69,0,0,0-19.19,0H14.23a15,15,0,0,1,29.23,4.74Z" style="fill: #e86714"/>
        <path d="M38.07,15.3v4.45a10.72,10.72,0,0,0-7.42,9.38h0c0,.27,0,.54,0,.81a14.89,14.89,0,0,1-.44,3.62,14.58,14.58,0,0,1-3,5.88h0A15,15,0,1,1,13.9,15.05a13.94,13.94,0,0,1,1.72-.1,15.31,15.31,0,0,1,2.73.25,15,15,0,0,1,9.57,6.16L25.08,23.7l-.51.41a10.62,10.62,0,0,0-4-3.65,10.8,10.8,0,0,0-4.93-1.21,10.09,10.09,0,0,0-2.14.22,10,10,0,0,0-2.8,1,10.69,10.69,0,1,0,14.4,14.46,10,10,0,0,0,.65-1.5A10.48,10.48,0,0,0,26.31,30c0-.27,0-.54,0-.81A15,15,0,0,1,38.07,15.3Z" style="fill: #e86714"/>
        <path d="M56.31,30a15,15,0,0,1-27.54,8.23l3.09-2.54.27-.22a10.69,10.69,0,1,0,12-15.8V15.21A15,15,0,0,1,56.31,30Z" style="fill: #e86714"/>
        <path d="M25.08,28.81v4.48A15,15,0,0,1,13.57,20.46h4.35a10.71,10.71,0,0,0,7.16,8.35Z" style="fill: #e86714"/>
      </g>
    </g>
  </g>
</svg>
