<svg xmlns="http://www.w3.org/2000/svg" width="50" height="50" viewBox="0 0 50 50">
  <title>Ресурс 12</title>
  <g>
    <rect width="50" height="50" style="fill: none;opacity: 0"/>
    <path d="M46.15,8H3.85A1.89,1.89,0,0,0,2,9.92V40.07A1.89,1.89,0,0,0,3.85,42h42.3A1.89,1.89,0,0,0,48,40.07V9.92A1.89,1.89,0,0,0,46.15,8ZM5.71,25.07h.94v-.14H5.71V22.44h.94v-.15H5.71V19.8h.94v-.15H5.71V17.16h.94V17H5.71V14.53h.94v-.15H5.71V11.85H44.29v2.53h-.94v.14h.94V17h-.94v.15h.94v2.49h-.94v.15h.94v2.49h-.94v.15h.94v2.49h-.94v.14h.94v.06l-.86,2.1-3.09-6.09a.77.77,0,0,0-1.44.13l-1.16,3.66H36.68v.14h1l-.78,2.49h-.23v.15h.18l-.28.89L35,22.44h.58v-.15H35l-.42-1.65A.78.78,0,0,0,33,20.55l-.66,1.74h-.15v.15h.09L31.74,24,31,19.8h.08v-.15H31l-.42-2.49h.52V17h-.54l-.42-2.48h1v-.15h-1l0-.09a.79.79,0,0,0-.7-.67.77.77,0,0,0-.8.52l-.09.24h-.75v.15h.7l-1.87,5.12H25.56v.15h1l-.9,2.49h-.09v.15h0l-1.86,5.12h-.4v.15h.34l-1.23,3.38L22,27.71h.27v-.15h-.29l-.37-2.48h.66v-.15h-.68l-.36-2.49h1v-.15H21.15l-.83-5.73a.81.81,0,0,0-.72-.69.78.78,0,0,0-.81.58l-1.68,5.84h-.45v.15h.41l-1.26,4.37-.29-1.73h0v-.15h-.06l-.41-2.49h.47v-.15h-.5l-.2-1.24a.8.8,0,0,0-.71-.67.79.79,0,0,0-.8.53l-.48,1.38h-.65v.15h.6l-1.19,3.4-1-3.4h.45v-.15h-.49l-.46-1.58a.79.79,0,0,0-.73-.59.81.81,0,0,0-.76.54l-.55,1.63H7.76v.15h.3C7.53,24,6.91,25.8,6.31,27.56h-.6Zm0,2.64h.55l-.55,1.61ZM44.29,30.2h-.94v.15h.94v2.49h-.94V33h.94v2.48h-.94v.15h.94v2.53H5.71V35.62h.94v-.15H5.71v-1.2C5.8,34,6,33.54,6.14,33h.51v-.15H6.19c.43-1.3,1-3.14,1.73-5.13h.95v-.15H8c.28-.81.57-1.65.85-2.49h0v-.14h0c.16-.46.31-.91.46-1.36l1.14,4H10v.15h.53l.27,1a.79.79,0,0,0,.73.58.76.76,0,0,0,.76-.53l.36-1h.68v-.14h-.63l1.12-3.21,1,5.84h-.34v.15h.36l0,.16a.79.79,0,0,0,.73.67.8.8,0,0,0,.8-.58l.83-2.89h.58v-.15h-.54l2.06-7.16.28,1.89h-.68v.15h.7L20,24.93H18.89v.14H20l1.13,7.77h0V33h0l.21,1.42a.78.78,0,0,0,1.51.17L23.43,33h1v-.15h-1l.91-2.49h.06V30.2l1.86-5.13h.36v-.14h-.3l1.86-5.13h.67v-.15h-.61l.78-2.14,1.24,7.42H30v.14h.32l.34,2a.81.81,0,0,0,.26.47H30v.15h1.11v0a1,1,0,0,0,.24.07.79.79,0,0,0,.81-.51L33,25.07h.34v-.14h-.28l.57-1.49,1.06,4.12h-.24v.15h.28l.64,2.49h-.92v.15h1l.34,1.31a.77.77,0,0,0,1.5.05l.43-1.36h.11V30.2h-.06l1.62-5.13H40v-.14h-.63l.42-1.33,2,4h-.69v.15h.77l.91,1.79a.79.79,0,0,0,.72.43.77.77,0,0,0,.69-.49l.07-.17ZM22.22,14.52H21.11v-.14h1.11Zm-11.12,0H10v-.14H11.1Zm-2.23,0H7.76v-.14H8.87Zm31.14,0H38.9v-.14H40Zm-2.22,0H36.68v-.14h1.11Zm-20,0H16.66v-.14h1.11Zm17.8,0H34.45v-.14h1.12ZM20,14.52H18.88v-.14H20Zm-6.68,0H12.21v-.14h1.11Zm28.92,0H41.13v-.14h1.11Zm-26.69,0H14.43v-.14h1.12Zm11.12,0H25.56v-.14h1.11Zm-2.23,0H23.33v-.14h1.11Zm8.9,0H32.23v-.14h1.11Zm4.45,2.64H36.68V17h1.11Zm-11.12,0H25.56V17h1.11Zm-11.12,0H14.43V17h1.12Zm-2.23,0H12.21V17h1.11Zm-4.45,0H7.76V17H8.87Zm24.47,0H32.23V17h1.11Zm-8.9,0H23.33V17h1.11Zm-13.34,0H10V17H11.1Zm28.91,0H38.9V17H40Zm-4.44,0H34.45V17h1.12Zm-13.35,0H21.11V17h1.11Zm-4.45,0H16.66V17h1.11Zm24.47,0H41.13V17h1.11ZM8.87,19.8H7.76v-.15H8.87Zm2.23,0H10v-.15H11.1Zm24.47,0H34.45v-.15h1.12Zm-22.25,0H12.21v-.15h1.11Zm2.23,0H14.43v-.15h1.12Zm2.22,0H16.66v-.15h1.11Zm4.45,0H21.11v-.15h1.11Zm20,0H41.13v-.15h1.11Zm-17.8,0H23.33v-.15h1.11ZM40,19.8H38.9v-.15H40Zm-6.67,0H32.23v-.15h1.11Zm4.45,0H36.68v-.15h1.11ZM24.44,22.44H23.33v-.15h1.11Zm17.8,0H41.13v-.15h1.11Zm-14.46-.15h1.11v.15H27.78Zm10,.15H36.68v-.15h1.11Zm-10,2.49h1.11v.14H27.78Zm-3.34.14H23.33v-.14h1.11ZM38.9,27.56H40v.15H38.9Zm-11.12,0h1.11v.15H27.78Zm-8.9,0H20v.15H18.88Zm13.35,0h1.11v.15H32.23Zm-6.67,0h1.11v.15H25.56ZM41.13,30.2h1.11v.15H41.13Zm-13.35,0h1.11v.15H27.78Zm-11.12,0h1.11v.15H16.66Zm2.22,0H20v.15H18.88Zm6.68,0h1.11v.15H25.56Zm4.44,0h1.12v.15H30Zm8.9,0H40v.15H38.9Zm-6.67,0h1.11v.15H32.23Zm-24.47,0H8.87v.15H7.76Zm4.45,0h1.11v.15H12.21ZM10,30.2H11.1v.15H10Zm24.46,2.64h1.12V33H34.45Zm6.68,0h1.11V33H41.13Zm-33.37,0H8.87V33H7.76Zm24.47,0h1.11V33H32.23Zm6.67,0H40V33H38.9Zm-2.22,0h1.11V33H36.68Zm-22.25,0h1.12V33H14.43Zm4.45,0H20V33H18.88Zm-2.22,0h1.11V33H16.66Zm8.9,0h1.11V33H25.56Zm4.44,0h1.12V33H30Zm-20,0H11.1V33H10Zm17.79,0h1.11V33H27.78Zm-15.57,0h1.11V33H12.21Zm4.45,2.63h1.11v.15H16.66Zm15.57,0h1.11v.15H32.23Zm-2.23,0h1.12v.15H30Zm-2.22,0h1.11v.15H27.78Zm6.67,0h1.12v.15H34.45Zm6.68,0h1.11v.15H41.13Zm-33.37,0H8.87v.15H7.76Zm31.14,0H40v.15H38.9Zm-2.22,0h1.11v.15H36.68Zm-24.47,0h1.11v.15H12.21Zm-2.22,0H11.1v.15H10Zm4.44,0h1.12v.15H14.43Zm6.68,0h1.11v.15H21.11Zm2.22,0h1.11v.15H23.33Zm-4.45,0H20v.15H18.88Zm6.68,0h1.11v.15H25.56Z" style="fill: #484848"/>
  </g>
</svg>
