<svg xmlns="http://www.w3.org/2000/svg" width="50" height="50" viewBox="0 0 50 50">
  <title>Ресурс 2</title>
  <g>
    <rect width="50" height="50" style="fill: none;opacity: 0"/>
    <path d="M25,8.38A16.62,16.62,0,1,0,41.62,25,16.62,16.62,0,0,0,25,8.38Zm9.39,5.1a14.85,14.85,0,0,1,5.3,9.18C37,23,32,23.28,31,21.57S32.81,15.63,34.39,13.48ZM25,10.13a14.76,14.76,0,0,1,5.33,1c-1.07,2.44-3.34,7-5.31,7s-4.25-4.59-5.31-7A15,15,0,0,1,25,10.13ZM22.42,25A2.58,2.58,0,1,1,25,27.58,2.57,2.57,0,0,1,22.42,25Zm.92,4.6a1.35,1.35,0,1,1-.3-1.88A1.34,1.34,0,0,1,23.34,29.6Zm.31-9.24A1.35,1.35,0,1,1,25,21.71,1.35,1.35,0,0,1,23.65,20.36ZM27,27.72a1.35,1.35,0,1,1,1.59,2.18A1.35,1.35,0,0,1,27,27.72ZM15.63,13.45c1.58,2.15,4.43,6.41,3.44,8.12S13,23,10.32,22.66A14.84,14.84,0,0,1,15.63,13.45Zm0,23.1a14.83,14.83,0,0,1-5.32-9.19c2.64-.29,7.76-.63,8.75,1.09S17.22,34.41,15.64,36.55Zm3.63-13.38a1.35,1.35,0,1,1,.87,1.7A1.34,1.34,0,0,1,19.27,23.17ZM25,39.87a14.78,14.78,0,0,1-5.29-1c1.07-2.45,3.34-7,5.31-7s4.23,4.56,5.3,7A14.91,14.91,0,0,1,25,39.87Zm4.86-15a1.35,1.35,0,1,1,.87-1.7A1.35,1.35,0,0,1,29.86,24.87Zm4.52,11.66C32.8,34.38,30,30.15,31,28.44s6.05-1.38,8.71-1.08A14.81,14.81,0,0,1,34.38,36.53ZM47.76,25.88a.24.24,0,0,0,.24-.24V24.36a.24.24,0,0,0-.24-.24h0v0h0a.24.24,0,0,0,.22-.26l-.1-1.27a.24.24,0,0,0-.26-.22h0v0h0a.25.25,0,0,0,.2-.28l-.2-1.26a.25.25,0,0,0-.28-.2h0v0h0a.24.24,0,0,0,.18-.29L47.22,19a.25.25,0,0,0-.29-.18h0v0h0a.24.24,0,0,0,.15-.3l-.39-1.21a.25.25,0,0,0-.31-.16h0v0h0a.24.24,0,0,0,.13-.31L46,15.61a.25.25,0,0,0-.32-.13h0l0,0h0a.24.24,0,0,0,.1-.32L45.2,14a.23.23,0,0,0-.32-.1h0v0h0a.23.23,0,0,0,.08-.33l-.66-1.09a.25.25,0,0,0-.34-.08h0l0,0h0A.25.25,0,0,0,44,12l-.75-1a.24.24,0,0,0-.33-.06h0l0,0h0a.23.23,0,0,0,0-.34l-.82-1a.25.25,0,0,0-.34,0l0,0,0,0h0a.23.23,0,0,0,0-.34l-.9-.9a.24.24,0,0,0-.34,0h0l0,0h0a.24.24,0,0,0,0-.34l-1-.83a.24.24,0,0,0-.34,0v0s0,0,0,0v0A.23.23,0,0,0,39,6.77L38,6a.23.23,0,0,0-.33.05v0l0,0h0a.25.25,0,0,0-.08-.34l-1.08-.66a.24.24,0,0,0-.34.08h0l0,0h0A.24.24,0,0,0,36,4.8l-1.13-.58a.24.24,0,0,0-.33.1h0A.25.25,0,0,0,34.39,4l-1.18-.48a.23.23,0,0,0-.31.13h0a.25.25,0,0,0-.16-.31L31.5,2.93a.24.24,0,0,0-.3.15v0h0a.26.26,0,0,0-.18-.3l-1.24-.29a.24.24,0,0,0-.29.17v0h0a.25.25,0,0,0-.2-.28L28,2.18a.25.25,0,0,0-.28.2v0h0v0a.24.24,0,0,0-.22-.26L26.17,2a.24.24,0,0,0-.26.22v0h0v0A.24.24,0,0,0,25.64,2H24.36a.24.24,0,0,0-.24.24v0h0v0A.24.24,0,0,0,23.83,2l-1.27.1a.24.24,0,0,0-.22.26v0h0v0a.25.25,0,0,0-.28-.2l-1.26.2a.25.25,0,0,0-.2.28h0a.23.23,0,0,0-.29-.18L19,2.78a.25.25,0,0,0-.18.3h0a.24.24,0,0,0-.3-.15l-1.21.39a.25.25,0,0,0-.16.31h0a.24.24,0,0,0-.31-.13L15.61,4a.25.25,0,0,0-.13.32h0l0,0v0a.24.24,0,0,0-.33-.1L14,4.8a.24.24,0,0,0-.11.32v0h0a.24.24,0,0,0-.34-.08l-1.08.66a.25.25,0,0,0-.08.34h0l0,0v0A.25.25,0,0,0,12,6l-1,.75a.24.24,0,0,0-.06.34h0l0,0v0a.24.24,0,0,0-.34,0l-1,.82a.25.25,0,0,0,0,.35h0l0,0h0a.23.23,0,0,0-.34,0l-.9.9a.23.23,0,0,0,0,.34h0l0,0h0a.26.26,0,0,0-.35,0l-.82,1a.24.24,0,0,0,0,.34h0l0,0h0a.23.23,0,0,0-.33.06L6,12a.23.23,0,0,0,.05.33h0v0h0a.24.24,0,0,0-.33.08l-.66,1.09a.23.23,0,0,0,.08.33h0s0,0,0,0h0a.25.25,0,0,0-.33.11l-.57,1.13a.24.24,0,0,0,.1.33h0s0,0,0,0h0a.25.25,0,0,0-.32.13l-.48,1.18a.24.24,0,0,0,.13.31h0v0h0a.25.25,0,0,0-.31.16L2.93,18.5a.24.24,0,0,0,.15.3h0v0h0a.26.26,0,0,0-.3.18l-.29,1.24a.24.24,0,0,0,.18.29h0v0h0a.25.25,0,0,0-.28.2L2.18,22a.25.25,0,0,0,.21.28h0v0h0a.24.24,0,0,0-.26.22L2,23.83a.24.24,0,0,0,.22.26h0v0h0a.24.24,0,0,0-.24.24v1.28a.24.24,0,0,0,.24.24h0v0h0a.24.24,0,0,0-.22.26l.1,1.27a.24.24,0,0,0,.26.22h0v0h0a.25.25,0,0,0-.2.28l.2,1.26a.25.25,0,0,0,.28.2h0v0h0a.24.24,0,0,0-.18.29L2.78,31a.26.26,0,0,0,.3.18h0v0h0a.24.24,0,0,0-.15.3l.39,1.21a.25.25,0,0,0,.31.16h0v0h0a.24.24,0,0,0-.13.31L4,34.39a.24.24,0,0,0,.31.13h0l0,0h0a.25.25,0,0,0-.1.33L4.8,36a.23.23,0,0,0,.32.1h0s0,0,0,0h0a.24.24,0,0,0-.08.34l.66,1.08a.25.25,0,0,0,.34.08h0l0,0h0A.24.24,0,0,0,6,38l.75,1a.24.24,0,0,0,.34.06h0l0,0h0a.24.24,0,0,0,0,.34l.82,1a.25.25,0,0,0,.35,0h0l0,0h0a.23.23,0,0,0,0,.34l.9.9a.23.23,0,0,0,.34,0h0l0,0h0a.25.25,0,0,0,0,.35l1,.82a.24.24,0,0,0,.34,0v0l0,0v0a.23.23,0,0,0,.06.33L12,44a.23.23,0,0,0,.33,0h0v0a.24.24,0,0,0,.08.33l1.08.66a.24.24,0,0,0,.34-.08h0l0,0h0a.25.25,0,0,0,.11.33l1.13.57a.24.24,0,0,0,.33-.1h0a.25.25,0,0,0,.13.32l1.18.48a.23.23,0,0,0,.31-.13h0a.25.25,0,0,0,.16.31l1.21.39a.24.24,0,0,0,.3-.15h0v0a.24.24,0,0,0,.18.29l1.24.29a.24.24,0,0,0,.29-.18h0a.25.25,0,0,0,.2.28l1.26.2a.25.25,0,0,0,.28-.2v0h0v0a.24.24,0,0,0,.22.26l1.27.1a.24.24,0,0,0,.26-.22v0h0v0a.24.24,0,0,0,.24.24h1.28a.24.24,0,0,0,.24-.24v0h0v0a.24.24,0,0,0,.26.22l1.27-.1a.24.24,0,0,0,.22-.26v0h0v0a.25.25,0,0,0,.28.2l1.26-.2a.25.25,0,0,0,.2-.28h0a.23.23,0,0,0,.29.18L31,47.22a.25.25,0,0,0,.18-.29v0h0v0a.24.24,0,0,0,.3.15l1.21-.39a.25.25,0,0,0,.16-.31h0a.24.24,0,0,0,.31.13L34.39,46a.25.25,0,0,0,.13-.32h0l0,0v0a.23.23,0,0,0,.32.1L36,45.2a.23.23,0,0,0,.1-.32v0h0a.23.23,0,0,0,.33.08l1.09-.66a.25.25,0,0,0,.08-.34h0l0,0v0A.25.25,0,0,0,38,44l1-.75a.25.25,0,0,0,.06-.34h0l0,0h0a.23.23,0,0,0,.34,0l1-.82a.25.25,0,0,0,0-.35h0l0,0h0a.23.23,0,0,0,.34,0l.9-.9a.25.25,0,0,0,0-.34h0l0,0h0a.24.24,0,0,0,.34,0l.83-1a.24.24,0,0,0,0-.34h0l0,0h0a.24.24,0,0,0,.34-.06L44,38a.23.23,0,0,0-.06-.33h0l0,0h0a.24.24,0,0,0,.33-.08l.67-1.09a.24.24,0,0,0-.08-.33h0v0h0A.25.25,0,0,0,45.2,36l.58-1.13a.25.25,0,0,0-.11-.33h0v0h0a.24.24,0,0,0,.31-.13l.49-1.18a.24.24,0,0,0-.13-.31h0v0h0a.24.24,0,0,0,.3-.16l.4-1.21a.24.24,0,0,0-.16-.3h0v0h0a.24.24,0,0,0,.29-.18l.3-1.24a.24.24,0,0,0-.18-.29h0v0h0a.24.24,0,0,0,.27-.2l.2-1.26a.25.25,0,0,0-.2-.28h0v0h0a.24.24,0,0,0,.25-.22L48,26.17a.25.25,0,0,0-.23-.26h0v0ZM42.29,25A17.29,17.29,0,1,1,25,7.71,17.29,17.29,0,0,1,42.29,25Z" style="fill: #484848"/>
  </g>
</svg>
