<svg xmlns="http://www.w3.org/2000/svg" width="50" height="50" viewBox="0 0 50 50">
  <title>icon_cooling_system_active</title>
  <g>
    <rect width="50" height="50" style="fill: #e51313;opacity: 0"/>
    <path d="M44.27,12.5A10,10,0,0,0,37,9.61a10,10,0,0,0-6.29,2.06c-3.23,2.57-3.74,5.49-4,7.91A5.84,5.84,0,0,0,25,19.34a5.38,5.38,0,0,0-1.14.12c-.53-2.54-.71-5.56.5-7.94,1.34-2.63,1.45-5.23.28-7.14A5.13,5.13,0,0,0,20.13,2C17.73,2,15,3.32,12.5,5.73,9,9,8.64,15.52,11.67,19.33c2.57,3.23,5.49,3.74,7.91,4A5.84,5.84,0,0,0,19.34,25a5.47,5.47,0,0,0,.12,1.15,18.67,18.67,0,0,1-3.62.4,9.54,9.54,0,0,1-4.32-.91,9,9,0,0,0-4.1-1.08,5.16,5.16,0,0,0-5,3.05c-1.2,2.79,0,6.49,3.28,9.89A10.07,10.07,0,0,0,13,40.38a10.1,10.1,0,0,0,6.29-2.05c3.23-2.57,3.74-5.49,4-7.91a5.84,5.84,0,0,0,1.63.24,5.38,5.38,0,0,0,1.14-.12c.53,2.54.71,5.56-.5,7.94-1.34,2.63-1.44,5.23-.28,7.14A5.13,5.13,0,0,0,29.87,48c2.4,0,5.11-1.32,7.63-3.73,3.47-3.31,3.86-9.79.83-13.6-2.57-3.23-5.49-3.74-7.91-4A5.84,5.84,0,0,0,30.66,25a5.47,5.47,0,0,0-.12-1.15,18.49,18.49,0,0,1,3.62-.4,9.41,9.41,0,0,1,4.32.91,9,9,0,0,0,4.1,1.08,5.16,5.16,0,0,0,5-3.05C48.75,19.6,47.52,15.9,44.27,12.5ZM25,28a3,3,0,1,1,3-3A3,3,0,0,1,25,28Z" style="fill: #e51313"/>
  </g>
</svg>
