<svg xmlns="http://www.w3.org/2000/svg" width="50" height="50" viewBox="0 0 50 50">
  <title>Ресурс 6</title>
  <g>
    <rect width="50" height="50" style="fill: none;opacity: 0"/>
    <path d="M46.53,28.33,44.85,30a.66.66,0,0,1-.92.1l-2.59-2.57-17,16.95a2.55,2.55,0,0,1-3.6,0l-2.59-2.57L5,28.82,2.22,26.11a.78.78,0,0,1,0-1.08l1.39-1.37a.76.76,0,0,1,1.08,0l2.73,2.71L23.8,10.09,19.52,5.83a.65.65,0,0,1,.11-.91l1.68-1.67a.66.66,0,0,1,.92-.11L33.13,14l2.46-2.44L31.47,7.43a.26.26,0,0,1,0-.36l1.05-1a.27.27,0,0,1,.37,0L35.2,8.25h0a1.5,1.5,0,0,0,1.38-1.37h0L34.32,4.61a.25.25,0,0,1,0-.37l1-1a.27.27,0,0,1,.37,0L47.94,15.27a.26.26,0,0,1,0,.36l-1,1a.26.26,0,0,1-.37,0L44.26,14.5h0a1.37,1.37,0,0,0-1.37,1.37h0L45.1,18.1a.26.26,0,0,1,0,.36L44,19.5a.27.27,0,0,1-.37,0l-4.15-4.12L37,17.87l9.6,9.54A.66.66,0,0,1,46.53,28.33Z" style="fill: #484848"/>
  </g>
</svg>
