<svg xmlns="http://www.w3.org/2000/svg" width="50" height="50" viewBox="0 0 50 50">
  <title>Ресурс 5</title>
  <g>
    <rect width="50" height="50" style="fill: none;opacity: 0"/>
    <path d="M45.72,35.08,40,31.85,45.12,29a.54.54,0,0,0,.2-.74l-.83-1.39a.56.56,0,0,0-.75-.19L37.2,30.3l-1.58-.88V20.59l1.59-.89,6.53,3.65a.56.56,0,0,0,.75-.19l.83-1.39a.53.53,0,0,0-.2-.73L40,18.16l5.75-3.23a.52.52,0,0,0,.21-.73l-.83-1.39a.56.56,0,0,0-.75-.19l-5.76,3.23V10.07A.54.54,0,0,0,38,9.53H36.39a.55.55,0,0,0-.55.54v7.32l-1.58.89-7.87-4.41V12.08L32.9,8.42a.53.53,0,0,0,.2-.73L32.27,6.3a.55.55,0,0,0-.75-.2L26.38,9V2.53A.54.54,0,0,0,25.83,2H24.18a.54.54,0,0,0-.55.54V9L18.48,6.1a.56.56,0,0,0-.76.2L16.9,7.68a.54.54,0,0,0,.2.74l6.53,3.67v1.78l-7.86,4.4-1.6-.89V10.07a.55.55,0,0,0-.55-.54H12a.55.55,0,0,0-.56.53v5.77L5.66,12.61a.57.57,0,0,0-.76.19l-.82,1.39a.52.52,0,0,0,.2.73L10,18.15,4.88,21a.54.54,0,0,0-.2.74l.83,1.38a.55.55,0,0,0,.75.2L12.8,19.7l1.59.89V29.4l-1.6.9L6.26,26.65a.55.55,0,0,0-.75.2l-.83,1.38a.54.54,0,0,0,.2.74L10,31.84,4.28,35.07a.53.53,0,0,0-.21.73l.83,1.39a.56.56,0,0,0,.75.2l5.77-3.23v5.78a.54.54,0,0,0,.55.53h1.65a.54.54,0,0,0,.55-.53V32.61l1.59-.89,7.86,4.41v1.79L17.1,41.58a.53.53,0,0,0-.2.73l.83,1.4a.56.56,0,0,0,.75.19L23.62,41v6.46a.54.54,0,0,0,.55.53h1.65a.54.54,0,0,0,.55-.53V41l5.15,2.9a.57.57,0,0,0,.76-.19l.82-1.4a.53.53,0,0,0-.2-.73l-6.53-3.67V36.14l7.87-4.41,1.59.89v7.31a.55.55,0,0,0,.55.54h1.66a.54.54,0,0,0,.55-.53V34.17l5.75,3.23a.58.58,0,0,0,.76-.2l.82-1.39A.53.53,0,0,0,45.72,35.08ZM25,33.82l-7.86-4.41V20.59L25,16.18l7.87,4.41v8.82Z" style="fill: #484848"/>
  </g>
</svg>
