<svg xmlns="http://www.w3.org/2000/svg" width="50" height="50" viewBox="0 0 50 50">
  <title>icon_suspension_active</title>
  <g>
    <rect width="50" height="50" style="fill: #e51313;opacity: 0"/>
    <path d="M48,40.11,46.74,43.5a.74.74,0,0,1-1,.45l-4.35-1.6c-.09.25-.6.29-1.14.09s-.9-.56-.82-.81L35.13,40a.76.76,0,0,1-.45-1l1.22-3.38a.74.74,0,0,1,1-.46l3.36,1.24V26.06H11.67a3.77,3.77,0,0,1-1.95,2.55.57.57,0,0,0-.26.44v8h4.63a.75.75,0,0,1,.74.75v3.61a.75.75,0,0,1-.74.76H9.46c0,.26-.47.48-1,.48s-1-.22-1-.48H2.75A.75.75,0,0,1,2,41.38V37.77A.75.75,0,0,1,2.75,37H7.37v-8h0a.57.57,0,0,0-.26-.47,4.17,4.17,0,0,1,0-7.22.55.55,0,0,0,.26-.47h0V13H2.75A.75.75,0,0,1,2,12.23V8.62a.75.75,0,0,1,.75-.76H7.37c0-.26.48-.48,1-.48s1,.22,1,.48h4.63a.75.75,0,0,1,.74.76v3.61a.75.75,0,0,1-.74.75H9.46v8a.55.55,0,0,0,.25.43,3.79,3.79,0,0,1,2,2.56H40.21V12.78L35,10.86a.75.75,0,0,1-.44-1L35.77,6.5a.73.73,0,0,1,1-.45l4.35,1.6c.09-.25.6-.29,1.14-.09s.9.56.82.81L47.38,10a.76.76,0,0,1,.45,1l-1.22,3.38a.73.73,0,0,1-1,.45L42.3,13.55V37.22l5.21,1.93A.74.74,0,0,1,48,40.11Z" style="fill: #e51313"/>
  </g>
</svg>
