<svg xmlns="http://www.w3.org/2000/svg" width="50" height="50" viewBox="0 0 50 50">
  <title>icon_steering_wheel_active</title>
  <g>
    <rect width="50" height="50" style="fill: #e51313;opacity: 0"/>
    <path d="M25,48A23,23,0,1,0,2,25,23,23,0,0,0,25,48Zm0-18.75A4.25,4.25,0,1,1,29.25,25,4.25,4.25,0,0,1,25,29.25Zm3.28,13.3V34.13a5.57,5.57,0,0,1,5.57-5.57h8.63A17.9,17.9,0,0,1,28.28,42.55Zm-21-20.08a17.85,17.85,0,0,1,35.34,0h0C37.36,22.47,31.68,18,25,18S12.49,22.47,7.34,22.47Zm8.82,6.09a5.57,5.57,0,0,1,5.57,5.57v8.42a17.9,17.9,0,0,1-14.21-14Z" style="fill: #e51313"/>
  </g>
</svg>
