<svg xmlns="http://www.w3.org/2000/svg" width="50" height="50" viewBox="0 0 50 50">
  <title>Ресурс 10</title>
  <g>
    <rect width="50" height="50" style="fill: none;opacity: 0"/>
    <path d="M7.54,35.39a.87.87,0,0,1-.86-.87V27H4.94v5.1a1.47,1.47,0,1,1-2.94,0V18.63a1.47,1.47,0,1,1,2.94,0v5.1H6.68V18.65a.86.86,0,0,1,.86-.87h3.38l2.66-3.06a.85.85,0,0,1,.64-.3h4V13h-2a1.5,1.5,0,0,1,0-3H28a1.5,1.5,0,0,1,0,3H26v1.43h4.57a.89.89,0,0,1,.64.29l2.15,2.45h3.88a.86.86,0,0,1,.86.87v5.14h1.66V19.61a.86.86,0,0,1,.86-.88h5a.84.84,0,0,1,.73.42c.07.11,1.7,2.87,1.7,9.43S46.37,37.9,46.3,38a.84.84,0,0,1-.73.42H41.16a.87.87,0,0,1-.86-.87v-4H37.47v5.56a.87.87,0,0,1-.86.87H20.41a.87.87,0,0,1-.51-.17L14,35.39Z" style="fill: #484848"/>
  </g>
</svg>
