<svg xmlns="http://www.w3.org/2000/svg" width="50" height="50" viewBox="0 0 50 50">
  <title>icon_transmission</title>
  <g>
    <rect width="50" height="50" style="opacity: 0"/>
    <path d="M30.26,14A8.53,8.53,0,0,1,28,13.62l.08-1.31a5.16,5.16,0,0,0,2.17.53c1.07,0,2.4-.42,2.4-1.68,0-1.47-1.19-1.88-2.46-1.88h-.86V8.12h.79c1,0,2.44-.35,2.44-1.61S31.66,5,30.63,5a4.71,4.71,0,0,0-2.19.54l-.09-1.26a7.87,7.87,0,0,1,2.47-.44c1.74,0,3.24.82,3.24,2.69a2.36,2.36,0,0,1-2.12,2.24v0a2.4,2.4,0,0,1,2.2,2.44C34.14,13.46,32.21,14,30.26,14ZM17.59,5.76V14H19V4.14H17.74l-2.41,2,.75.94Zm29.41,5a3.09,3.09,0,0,0-3.19-3.05,5.11,5.11,0,0,0-1.27.14l.08-2.64h4.1V4H41.29l-.08,5.18a4.52,4.52,0,0,1,1.9-.36,2.1,2.1,0,0,1,2.39,2.1,2.09,2.09,0,0,1-2.3,1.95,3.87,3.87,0,0,1-2.05-.49l0,1.32a6,6,0,0,0,2.12.33C45.28,14,47,12.87,47,10.71ZM32.76,42.46H34v1.15H32.76v2.25H31.34V43.61H26.75V42.46l4-6.46h2Zm-1.42-5.3h0l-3.08,5.3h3.1ZM4.41,14H3V4.14H5.42c1.94,0,3.82.31,3.82,2.67a2.29,2.29,0,0,1-2,2.24v0c.44.17.65.38,1,1L10,14H8.42L6.91,10.58c-.44-1-.9-1-1.65-1H4.41Zm0-5.62h1.2c1.35,0,2.14-.6,2.14-1.54s-.68-1.46-2-1.46H4.41ZM47,42.93a3.05,3.05,0,0,1-3.16,3.27c-2.76,0-3.32-2.49-3.32-4.73,0-2.67.87-5.47,4-5.47a6.79,6.79,0,0,1,2,.31l-.2,1.26a3.73,3.73,0,0,0-1.75-.41c-1.84,0-2.73,1.69-2.75,3.59l0,0a2.92,2.92,0,0,1,2.17-.9A2.85,2.85,0,0,1,47,42.93Zm-1.5,0A1.75,1.75,0,1,0,42,43,1.91,1.91,0,0,0,43.75,45,1.84,1.84,0,0,0,45.5,43Zm-27.5.3c1.09-1.09,2.86-2.84,2.86-4.48,0-1.85-1.43-2.81-3.21-2.81a6.6,6.6,0,0,0-2.58.58l.14,1.21a5,5,0,0,1,2.26-.63,1.7,1.7,0,0,1,1.89,1.57c0,1.59-1.75,3.19-2.84,4.2-.62.59-1.26,1.14-1.76,1.59V46H21V44.84H16.27C16.75,44.4,17.45,43.81,18,43.26ZM17,32a1,1,0,0,0,2,0V26H30v6a1,1,0,0,0,2,0V26H43v6a1,1,0,0,0,2,0V18a1,1,0,0,0-2,0v6H32V18a1,1,0,0,0-2,0v6H19V18a1,1,0,0,0-2,0v6H6V20a1.06,1.06,0,0,0-1-1,1.06,1.06,0,0,0-1,1v5a1.06,1.06,0,0,0,1,1H17Z" style="fill: #484848"/>
  </g>
</svg>
