<svg xmlns="http://www.w3.org/2000/svg" width="50" height="50" viewBox="0 0 50 50">
  <title>batterie</title>
  <g>
    <rect width="50" height="50" style="fill: none;opacity: 0"/>
    <path d="M4.06,42.38H45.94A2.06,2.06,0,0,0,48,40.32V14.46a2.06,2.06,0,0,0-2.06-2.06H41.57V10.05a1,1,0,1,0,0-2.06H35.21a1,1,0,1,0,0,2.06V12.4H14.79V10.05a1,1,0,1,0,0-2.06H8.43a1,1,0,0,0,0,2.06V12.4H4.06A2.06,2.06,0,0,0,2,14.46V40.32A2.06,2.06,0,0,0,4.06,42.38ZM31,21.67h3.87V17.8H37.7v3.87h3.87v2.86H37.7V28.4H34.84V24.53H31Zm-22.54,0H19v2.86H8.43Z" style="fill: #494949"/>
  </g>
</svg>
