<svg xmlns="http://www.w3.org/2000/svg" width="50" height="50" viewBox="0 0 50 50">
  <title>icon_brake_system_active</title>
  <g>
    <rect width="50" height="50" style="fill: #e51313;opacity: 0"/>
    <path d="M46.36,18.34c2,2.51,2.23,6.66,2.23,6.66s-.2,4.15-2.23,6.66a17.31,17.31,0,0,0-2.78,4.72,9.62,9.62,0,0,1-2.44,3.85c-1.6,1.3-4.47.56-4.47.56A3.7,3.7,0,0,1,33.83,38c-.72-2.48,1-4.63,1.69-5.92a40.22,40.22,0,0,0,2-4.14,9.55,9.55,0,0,0,.6-3,9.55,9.55,0,0,0-.6-3,42.42,42.42,0,0,0-2-4.14c-.65-1.29-2.41-3.44-1.69-5.92a3.73,3.73,0,0,1,2.84-2.76s2.87-.74,4.47.56a9.62,9.62,0,0,1,2.44,3.85A17.31,17.31,0,0,0,46.36,18.34ZM32.7,38.45a7.24,7.24,0,0,1,1.16-5.77,12.76,12.76,0,1,1-.3-15.74,6.78,6.78,0,0,1-.86-5.24A5,5,0,0,1,36.52,8a9.54,9.54,0,0,1,1-.16,22,22,0,1,0-.16,34.37c-.38,0-.67-.11-.8-.14A5,5,0,0,1,32.7,38.45ZM35,25A11.19,11.19,0,1,1,23.85,13.81,11.2,11.2,0,0,1,35,25Zm-6.29-4.9a1.33,1.33,0,1,0,0-1.88A1.33,1.33,0,0,0,28.75,20.1Zm-6.23-3.35a1.33,1.33,0,1,0,1.33-1.33A1.34,1.34,0,0,0,22.52,16.75ZM17.08,20.1a1.33,1.33,0,1,0,0-1.88A1.33,1.33,0,0,0,17.08,20.1ZM16.93,25a1.33,1.33,0,1,0-1.33,1.33A1.32,1.32,0,0,0,16.93,25Zm2,4.9a1.33,1.33,0,1,0,0,1.88A1.33,1.33,0,0,0,19,29.9Zm6.22,3.35a1.33,1.33,0,1,0-1.33,1.33A1.33,1.33,0,0,0,25.18,33.25ZM28.51,25a4.66,4.66,0,1,0-4.66,4.66A4.66,4.66,0,0,0,28.51,25Zm2.12,4.9a1.33,1.33,0,1,0,0,1.88A1.33,1.33,0,0,0,30.63,29.9Zm1.48-6.23A1.33,1.33,0,1,0,33.44,25,1.33,1.33,0,0,0,32.11,23.67Z" style="fill: #e51313"/>
  </g>
</svg>
