<svg xmlns="http://www.w3.org/2000/svg" width="50" height="50" viewBox="0 0 50 50">
  <title>Ресурс 7</title>
  <g>
    <rect width="50" height="50" style="fill: none;opacity: 0"/>
    <path d="M47.79,5,41.4,11.38l.2.2a.72.72,0,0,1,0,1l-.38.38a.71.71,0,0,1-1,0l-.2-.21-2.48,2.48L41,18.71a1.94,1.94,0,0,1,0,2.73L38.9,23.51a1.57,1.57,0,0,1-2.23,0L19.21,41a.3.3,0,0,1-.41,0l-3.48-3.48,0,0L12.81,40l.18.18a.72.72,0,0,1,0,1l-.37.37a.72.72,0,0,1-1,0l-.18-.18L5,47.79a.71.71,0,0,1-1,0L2.25,46a.72.72,0,0,1,0-1l6.39-6.39-.2-.2a.72.72,0,0,1,0-1L8.82,37a.71.71,0,0,1,1,0l.2.2,2.48-2.48a.08.08,0,0,1,0,0L9,31.21a.28.28,0,0,1,0-.4L26.5,13.35a1.58,1.58,0,0,1,0-2.21l2.09-2.09a1.94,1.94,0,0,1,2.73,0l3.43,3.43L37.23,10l-.18-.18a.72.72,0,0,1,0-1l.38-.37a.71.71,0,0,1,1,0l.18.18L45,2.21a.72.72,0,0,1,1,0L47.79,4A.71.71,0,0,1,47.79,5Z" style="fill: #484848"/>
  </g>
</svg>
