<svg xmlns="http://www.w3.org/2000/svg" width="50" height="50" viewBox="0 0 50 50">
  <title>icon_exhaust_system_active</title>
  <g>
    <rect width="50" height="50" style="fill: #e51313;opacity: 0"/>
    <path d="M45.24,4.52a.71.71,0,0,1,0,1l-5.36,5.36,2.44,2.43a1.06,1.06,0,0,1,0,1.48L18.44,38.65a1,1,0,0,1-1.47,0L15.8,37.49l-5,5a3.34,3.34,0,0,0-.93,3l.28,2.27a.69.69,0,0,1-.6.78L6,49a.69.69,0,0,1-.77-.6L5,46.24a8.22,8.22,0,0,1,2.31-7.18l5-5L7.79,29.48a1.06,1.06,0,0,1,0-1.48L31.67,4.13a1,1,0,0,1,1.47,0l2.44,2.43L40.94,1.2a.69.69,0,0,1,1,0Z" style="fill: #e51313"/>
  </g>
</svg>
