<svg xmlns="http://www.w3.org/2000/svg" width="50" height="50" viewBox="0 0 50 50">
  <title>icon_cheap_tuning_active</title>
  <g>
    <rect width="50" height="50" style="fill: #e51313;opacity: 0"/>
    <path d="M41.86,6.28l-.09-.09c-.09-.09-.09-.09-.18-.09S38.17,6,37,9.07a8.34,8.34,0,0,1-2.43,3.6c-.18-.09-.36-.18-.54,0l-4.41,3a.44.44,0,0,0-.09.63l1.35,2.07a.44.44,0,0,0,.63.09l4.41-3a.6.6,0,0,0,.18-.63,6.2,6.2,0,0,1,.72-.27c-6.3,10.81-1.53,16-1.08,16.48,3,3.24,3.88,6.66,2.62,9.54-1.63,3.16-5.68,5.05-11.44,5.05q-4.45,0-6.21-2.16a5.16,5.16,0,0,1-1-3.88H21.6a1.71,1.71,0,0,0,1.53-1.44v-.27h2.79a2.19,2.19,0,0,0,2.16-2.16L29.61,4.57A2.2,2.2,0,0,0,27.45,2.4H10.16A2.14,2.14,0,0,0,8,4.57L9.44,35.72a2.19,2.19,0,0,0,2.16,2.16h2.88v.27A1.71,1.71,0,0,0,16,39.59h2a7.26,7.26,0,0,0,1.45,5c1.53,1.89,4,2.79,7.56,2.79,6.48,0,11.17-2.25,12.88-6.22,1.53-3.42.45-7.74-3-11.43-.18-.18-4.32-4.59,1.45-14.41a2.78,2.78,0,0,1,.18.72.4.4,0,0,0-.36.54l.45,5.31a.5.5,0,0,0,.54.45l2.43-.18a.5.5,0,0,0,.45-.54l-.45-5.31a.39.39,0,0,0-.36-.36c-.18-.54-.18-1.89,1.17-4.32C44,8.89,41.86,6.28,41.86,6.28Zm-17.92,24-1.71,1.71a.68.68,0,0,1-.36.18.68.68,0,0,1-.36-.18.67.67,0,0,1,0-.81l1.62-1.62-1.62-1.62a.57.57,0,1,1,.81-.81L24,28.79A1.21,1.21,0,0,1,23.94,30.23Zm1-9c0,.09-.09.09-.18.09a16.37,16.37,0,0,1-3,0,.31.31,0,0,1-.18-.09,1.75,1.75,0,0,1,0-1.35c0-.09.09-.09.18-.09a16.37,16.37,0,0,1,3,0,.31.31,0,0,1,.18.09A1.76,1.76,0,0,1,24.93,21.22ZM12.14,16.45a15.66,15.66,0,0,1,0-8.64A1,1,0,0,1,13,7.09a63.62,63.62,0,0,1,11.71,0,1.1,1.1,0,0,1,.81.72,15.66,15.66,0,0,1,0,8.64,1,1,0,0,1-.81.72,63.62,63.62,0,0,1-11.71,0A1,1,0,0,1,12.14,16.45Zm.54,4.77a1.76,1.76,0,0,1,0-1.35c0-.09.09-.09.18-.09a16.37,16.37,0,0,1,3,0,.31.31,0,0,1,.18.09,1.75,1.75,0,0,1,0,1.35c0,.09-.09.09-.18.09a16.37,16.37,0,0,1-3,0A.31.31,0,0,1,12.68,21.22Zm3.51,10.09a.55.55,0,0,1,0,.72.68.68,0,0,1-.36.18.68.68,0,0,1-.36-.18l-1.71-1.71A.91.91,0,0,1,13.67,29l1.71-1.71a.67.67,0,0,1,.81,0c.27.18.18.54,0,.81l-1.62,1.62Zm1.08-10a.31.31,0,0,1-.18-.09,1.76,1.76,0,0,1,0-1.35c0-.09.09-.09.18-.09a16.48,16.48,0,0,1,3,0,.31.31,0,0,1,.18.09,1.76,1.76,0,0,1,0,1.35c0,.09-.09.09-.18.09A16.48,16.48,0,0,1,17.27,21.31ZM39,11.77a7.09,7.09,0,0,1,2.25-4.68A7.25,7.25,0,0,1,39,11.77Z" style="fill: #e51313"/>
  </g>
</svg>
