<svg xmlns="http://www.w3.org/2000/svg" display="none">
    <symbol id="icon-klima" viewBox="0 0 50 50">
        <g>
            <path d="M45.72,35.08,40,31.85,45.12,29a.54.54,0,0,0,.2-.74l-.83-1.39a.56.56,0,0,0-.75-.19L37.2,30.3l-1.58-.88V20.59l1.59-.89,6.53,3.65a.56.56,0,0,0,.75-.19l.83-1.39a.53.53,0,0,0-.2-.73L40,18.16l5.75-3.23a.52.52,0,0,0,.21-.73l-.83-1.39a.56.56,0,0,0-.75-.19l-5.76,3.23V10.07A.54.54,0,0,0,38,9.53H36.39a.55.55,0,0,0-.55.54v7.32l-1.58.89-7.87-4.41V12.08L32.9,8.42a.53.53,0,0,0,.2-.73L32.27,6.3a.55.55,0,0,0-.75-.2L26.38,9V2.53A.54.54,0,0,0,25.83,2H24.18a.54.54,0,0,0-.55.54V9L18.48,6.1a.56.56,0,0,0-.76.2L16.9,7.68a.54.54,0,0,0,.2.74l6.53,3.67v1.78l-7.86,4.4-1.6-.89V10.07a.55.55,0,0,0-.55-.54H12a.55.55,0,0,0-.56.53v5.77L5.66,12.61a.57.57,0,0,0-.76.19l-.82,1.39a.52.52,0,0,0,.2.73L10,18.15,4.88,21a.54.54,0,0,0-.2.74l.83,1.38a.55.55,0,0,0,.75.2L12.8,19.7l1.59.89V29.4l-1.6.9L6.26,26.65a.55.55,0,0,0-.75.2l-.83,1.38a.54.54,0,0,0,.2.74L10,31.84,4.28,35.07a.53.53,0,0,0-.21.73l.83,1.39a.56.56,0,0,0,.75.2l5.77-3.23v5.78a.54.54,0,0,0,.55.53h1.65a.54.54,0,0,0,.55-.53V32.61l1.59-.89,7.86,4.41v1.79L17.1,41.58a.53.53,0,0,0-.2.73l.83,1.4a.56.56,0,0,0,.75.19L23.62,41v6.46a.54.54,0,0,0,.55.53h1.65a.54.54,0,0,0,.55-.53V41l5.15,2.9a.57.57,0,0,0,.76-.19l.82-1.4a.53.53,0,0,0-.2-.73l-6.53-3.67V36.14l7.87-4.41,1.59.89v7.31a.55.55,0,0,0,.55.54h1.66a.54.54,0,0,0,.55-.53V34.17l5.75,3.23a.58.58,0,0,0,.76-.2l.82-1.39A.53.53,0,0,0,45.72,35.08ZM25,33.82l-7.86-4.41V20.59L25,16.18l7.87,4.41v8.82Z"/>
        </g>
    </symbol>
    <symbol id="tire-service" viewBox="0 0 50 50">
        <g>
            <path d="M25,8.38A16.62,16.62,0,1,0,41.62,25,16.62,16.62,0,0,0,25,8.38Zm9.39,5.1a14.85,14.85,0,0,1,5.3,9.18C37,23,32,23.28,31,21.57S32.81,15.63,34.39,13.48ZM25,10.13a14.76,14.76,0,0,1,5.33,1c-1.07,2.44-3.34,7-5.31,7s-4.25-4.59-5.31-7A15,15,0,0,1,25,10.13ZM22.42,25A2.58,2.58,0,1,1,25,27.58,2.57,2.57,0,0,1,22.42,25Zm.92,4.6a1.35,1.35,0,1,1-.3-1.88A1.34,1.34,0,0,1,23.34,29.6Zm.31-9.24A1.35,1.35,0,1,1,25,21.71,1.35,1.35,0,0,1,23.65,20.36ZM27,27.72a1.35,1.35,0,1,1,1.59,2.18A1.35,1.35,0,0,1,27,27.72ZM15.63,13.45c1.58,2.15,4.43,6.41,3.44,8.12S13,23,10.32,22.66A14.84,14.84,0,0,1,15.63,13.45Zm0,23.1a14.83,14.83,0,0,1-5.32-9.19c2.64-.29,7.76-.63,8.75,1.09S17.22,34.41,15.64,36.55Zm3.63-13.38a1.35,1.35,0,1,1,.87,1.7A1.34,1.34,0,0,1,19.27,23.17ZM25,39.87a14.78,14.78,0,0,1-5.29-1c1.07-2.45,3.34-7,5.31-7s4.23,4.56,5.3,7A14.91,14.91,0,0,1,25,39.87Zm4.86-15a1.35,1.35,0,1,1,.87-1.7A1.35,1.35,0,0,1,29.86,24.87Zm4.52,11.66C32.8,34.38,30,30.15,31,28.44s6.05-1.38,8.71-1.08A14.81,14.81,0,0,1,34.38,36.53ZM47.76,25.88a.24.24,0,0,0,.24-.24V24.36a.24.24,0,0,0-.24-.24h0v0h0a.24.24,0,0,0,.22-.26l-.1-1.27a.24.24,0,0,0-.26-.22h0v0h0a.25.25,0,0,0,.2-.28l-.2-1.26a.25.25,0,0,0-.28-.2h0v0h0a.24.24,0,0,0,.18-.29L47.22,19a.25.25,0,0,0-.29-.18h0v0h0a.24.24,0,0,0,.15-.3l-.39-1.21a.25.25,0,0,0-.31-.16h0v0h0a.24.24,0,0,0,.13-.31L46,15.61a.25.25,0,0,0-.32-.13h0l0,0h0a.24.24,0,0,0,.1-.32L45.2,14a.23.23,0,0,0-.32-.1h0v0h0a.23.23,0,0,0,.08-.33l-.66-1.09a.25.25,0,0,0-.34-.08h0l0,0h0A.25.25,0,0,0,44,12l-.75-1a.24.24,0,0,0-.33-.06h0l0,0h0a.23.23,0,0,0,0-.34l-.82-1a.25.25,0,0,0-.34,0l0,0,0,0h0a.23.23,0,0,0,0-.34l-.9-.9a.24.24,0,0,0-.34,0h0l0,0h0a.24.24,0,0,0,0-.34l-1-.83a.24.24,0,0,0-.34,0v0s0,0,0,0v0A.23.23,0,0,0,39,6.77L38,6a.23.23,0,0,0-.33.05v0l0,0h0a.25.25,0,0,0-.08-.34l-1.08-.66a.24.24,0,0,0-.34.08h0l0,0h0A.24.24,0,0,0,36,4.8l-1.13-.58a.24.24,0,0,0-.33.1h0A.25.25,0,0,0,34.39,4l-1.18-.48a.23.23,0,0,0-.31.13h0a.25.25,0,0,0-.16-.31L31.5,2.93a.24.24,0,0,0-.3.15v0h0a.26.26,0,0,0-.18-.3l-1.24-.29a.24.24,0,0,0-.29.17v0h0a.25.25,0,0,0-.2-.28L28,2.18a.25.25,0,0,0-.28.2v0h0v0a.24.24,0,0,0-.22-.26L26.17,2a.24.24,0,0,0-.26.22v0h0v0A.24.24,0,0,0,25.64,2H24.36a.24.24,0,0,0-.24.24v0h0v0A.24.24,0,0,0,23.83,2l-1.27.1a.24.24,0,0,0-.22.26v0h0v0a.25.25,0,0,0-.28-.2l-1.26.2a.25.25,0,0,0-.2.28h0a.23.23,0,0,0-.29-.18L19,2.78a.25.25,0,0,0-.18.3h0a.24.24,0,0,0-.3-.15l-1.21.39a.25.25,0,0,0-.16.31h0a.24.24,0,0,0-.31-.13L15.61,4a.25.25,0,0,0-.13.32h0l0,0v0a.24.24,0,0,0-.33-.1L14,4.8a.24.24,0,0,0-.11.32v0h0a.24.24,0,0,0-.34-.08l-1.08.66a.25.25,0,0,0-.08.34h0l0,0v0A.25.25,0,0,0,12,6l-1,.75a.24.24,0,0,0-.06.34h0l0,0v0a.24.24,0,0,0-.34,0l-1,.82a.25.25,0,0,0,0,.35h0l0,0h0a.23.23,0,0,0-.34,0l-.9.9a.23.23,0,0,0,0,.34h0l0,0h0a.26.26,0,0,0-.35,0l-.82,1a.24.24,0,0,0,0,.34h0l0,0h0a.23.23,0,0,0-.33.06L6,12a.23.23,0,0,0,.05.33h0v0h0a.24.24,0,0,0-.33.08l-.66,1.09a.23.23,0,0,0,.08.33h0s0,0,0,0h0a.25.25,0,0,0-.33.11l-.57,1.13a.24.24,0,0,0,.1.33h0s0,0,0,0h0a.25.25,0,0,0-.32.13l-.48,1.18a.24.24,0,0,0,.13.31h0v0h0a.25.25,0,0,0-.31.16L2.93,18.5a.24.24,0,0,0,.15.3h0v0h0a.26.26,0,0,0-.3.18l-.29,1.24a.24.24,0,0,0,.18.29h0v0h0a.25.25,0,0,0-.28.2L2.18,22a.25.25,0,0,0,.21.28h0v0h0a.24.24,0,0,0-.26.22L2,23.83a.24.24,0,0,0,.22.26h0v0h0a.24.24,0,0,0-.24.24v1.28a.24.24,0,0,0,.24.24h0v0h0a.24.24,0,0,0-.22.26l.1,1.27a.24.24,0,0,0,.26.22h0v0h0a.25.25,0,0,0-.2.28l.2,1.26a.25.25,0,0,0,.28.2h0v0h0a.24.24,0,0,0-.18.29L2.78,31a.26.26,0,0,0,.3.18h0v0h0a.24.24,0,0,0-.15.3l.39,1.21a.25.25,0,0,0,.31.16h0v0h0a.24.24,0,0,0-.13.31L4,34.39a.24.24,0,0,0,.31.13h0l0,0h0a.25.25,0,0,0-.1.33L4.8,36a.23.23,0,0,0,.32.1h0s0,0,0,0h0a.24.24,0,0,0-.08.34l.66,1.08a.25.25,0,0,0,.34.08h0l0,0h0A.24.24,0,0,0,6,38l.75,1a.24.24,0,0,0,.34.06h0l0,0h0a.24.24,0,0,0,0,.34l.82,1a.25.25,0,0,0,.35,0h0l0,0h0a.23.23,0,0,0,0,.34l.9.9a.23.23,0,0,0,.34,0h0l0,0h0a.25.25,0,0,0,0,.35l1,.82a.24.24,0,0,0,.34,0v0l0,0v0a.23.23,0,0,0,.06.33L12,44a.23.23,0,0,0,.33,0h0v0a.24.24,0,0,0,.08.33l1.08.66a.24.24,0,0,0,.34-.08h0l0,0h0a.25.25,0,0,0,.11.33l1.13.57a.24.24,0,0,0,.33-.1h0a.25.25,0,0,0,.13.32l1.18.48a.23.23,0,0,0,.31-.13h0a.25.25,0,0,0,.16.31l1.21.39a.24.24,0,0,0,.3-.15h0v0a.24.24,0,0,0,.18.29l1.24.29a.24.24,0,0,0,.29-.18h0a.25.25,0,0,0,.2.28l1.26.2a.25.25,0,0,0,.28-.2v0h0v0a.24.24,0,0,0,.22.26l1.27.1a.24.24,0,0,0,.26-.22v0h0v0a.24.24,0,0,0,.24.24h1.28a.24.24,0,0,0,.24-.24v0h0v0a.24.24,0,0,0,.26.22l1.27-.1a.24.24,0,0,0,.22-.26v0h0v0a.25.25,0,0,0,.28.2l1.26-.2a.25.25,0,0,0,.2-.28h0a.23.23,0,0,0,.29.18L31,47.22a.25.25,0,0,0,.18-.29v0h0v0a.24.24,0,0,0,.3.15l1.21-.39a.25.25,0,0,0,.16-.31h0a.24.24,0,0,0,.31.13L34.39,46a.25.25,0,0,0,.13-.32h0l0,0v0a.23.23,0,0,0,.32.1L36,45.2a.23.23,0,0,0,.1-.32v0h0a.23.23,0,0,0,.33.08l1.09-.66a.25.25,0,0,0,.08-.34h0l0,0v0A.25.25,0,0,0,38,44l1-.75a.25.25,0,0,0,.06-.34h0l0,0h0a.23.23,0,0,0,.34,0l1-.82a.25.25,0,0,0,0-.35h0l0,0h0a.23.23,0,0,0,.34,0l.9-.9a.25.25,0,0,0,0-.34h0l0,0h0a.24.24,0,0,0,.34,0l.83-1a.24.24,0,0,0,0-.34h0l0,0h0a.24.24,0,0,0,.34-.06L44,38a.23.23,0,0,0-.06-.33h0l0,0h0a.24.24,0,0,0,.33-.08l.67-1.09a.24.24,0,0,0-.08-.33h0v0h0A.25.25,0,0,0,45.2,36l.58-1.13a.25.25,0,0,0-.11-.33h0v0h0a.24.24,0,0,0,.31-.13l.49-1.18a.24.24,0,0,0-.13-.31h0v0h0a.24.24,0,0,0,.3-.16l.4-1.21a.24.24,0,0,0-.16-.3h0v0h0a.24.24,0,0,0,.29-.18l.3-1.24a.24.24,0,0,0-.18-.29h0v0h0a.24.24,0,0,0,.27-.2l.2-1.26a.25.25,0,0,0-.2-.28h0v0h0a.24.24,0,0,0,.25-.22L48,26.17a.25.25,0,0,0-.23-.26h0v0ZM42.29,25A17.29,17.29,0,1,1,25,7.71,17.29,17.29,0,0,1,42.29,25Z"/>
        </g>
    </symbol>
    <symbol id="steering-wheel" viewBox="0 0 50 50">
        <g>
            <path d="M25,48A23,23,0,1,0,2,25,23,23,0,0,0,25,48Zm0-18.75A4.25,4.25,0,1,1,29.25,25,4.25,4.25,0,0,1,25,29.25Zm3.28,13.3V34.13a5.57,5.57,0,0,1,5.57-5.57h8.63A17.9,17.9,0,0,1,28.28,42.55Zm-21-20.08a17.85,17.85,0,0,1,35.34,0h0C37.36,22.47,31.68,18,25,18S12.49,22.47,7.34,22.47Zm8.82,6.09a5.57,5.57,0,0,1,5.57,5.57v8.42a17.9,17.9,0,0,1-14.21-14Z"/>
        </g>
    </symbol>
    <symbol id="electric" viewBox="0 0 50 50">
        <g>
            <path d="M42.33,16.59H37.87V3.1A1.11,1.11,0,0,0,36.76,2H32.11A1.11,1.11,0,0,0,31,3.1V16.59H19V3.1A1.11,1.11,0,0,0,17.89,2H13.24a1.11,1.11,0,0,0-1.11,1.1V16.59H7.67A2.67,2.67,0,0,0,5,19.25V40.92a2.67,2.67,0,0,0,2.67,2.65H9.86v2.12A2.32,2.32,0,0,0,12.18,48H37.82a2.32,2.32,0,0,0,2.32-2.31V43.57h2.19A2.67,2.67,0,0,0,45,40.92V19.25A2.67,2.67,0,0,0,42.33,16.59ZM15.57,7.79a1.72,1.72,0,1,1,1.72-1.71A1.71,1.71,0,0,1,15.57,7.79Zm6,34,3.84-9.72h-5.5l4.05-11h4.39l-3,7.84h4.83Zm12.88-34a1.72,1.72,0,1,1,1.73-1.71A1.71,1.71,0,0,1,34.43,7.79Z"/>
        </g>
    </symbol>
    <symbol id="filter" viewBox="0 0 50 50">
        <g>
            <path d="M11,48H40a2.05,2.05,0,0,0,2-2V45a2.05,2.05,0,0,0-2-2V7a2.05,2.05,0,0,0,2-2V4a2.05,2.05,0,0,0-2-2H11A2,2,0,0,0,9,3.93V5a2.05,2.05,0,0,0,2,2V43a2.05,2.05,0,0,0-2,2v1.07A2,2,0,0,0,11,48ZM37,7h1V43H37ZM35,7h1V43H35ZM33,7h1V43H33ZM31,7h1V43H31ZM29,7h1V43H29ZM27,7h1V43H27ZM25,7h1V43H25ZM23,7h1V43H23ZM21,7h1V43H21ZM15,7h1V43H15ZM13,7h1V43H13Zm5,36H17V7h1Zm2,0H19V7h1Z"/>
        </g>
    </symbol>
    <symbol id="engine" viewBox="0 0 50 50">
        <g>
            <path d="M7.54,35.39a.87.87,0,0,1-.86-.87V27H4.94v5.1a1.47,1.47,0,1,1-2.94,0V18.63a1.47,1.47,0,1,1,2.94,0v5.1H6.68V18.65a.86.86,0,0,1,.86-.87h3.38l2.66-3.06a.85.85,0,0,1,.64-.3h4V13h-2a1.5,1.5,0,0,1,0-3H28a1.5,1.5,0,0,1,0,3H26v1.43h4.57a.89.89,0,0,1,.64.29l2.15,2.45h3.88a.86.86,0,0,1,.86.87v5.14h1.66V19.61a.86.86,0,0,1,.86-.88h5a.84.84,0,0,1,.73.42c.07.11,1.7,2.87,1.7,9.43S46.37,37.9,46.3,38a.84.84,0,0,1-.73.42H41.16a.87.87,0,0,1-.86-.87v-4H37.47v5.56a.87.87,0,0,1-.86.87H20.41a.87.87,0,0,1-.51-.17L14,35.39Z"/>
        </g>
    </symbol>
    <symbol id="cheap-tuning" viewBox="0 0 50 50">
        <g>
            <path d="M41.86,6.28l-.09-.09c-.09-.09-.09-.09-.18-.09S38.17,6,37,9.07a8.34,8.34,0,0,1-2.43,3.6c-.18-.09-.36-.18-.54,0l-4.41,3a.44.44,0,0,0-.09.63l1.35,2.07a.44.44,0,0,0,.63.09l4.41-3a.6.6,0,0,0,.18-.63,6.2,6.2,0,0,1,.72-.27c-6.3,10.81-1.53,16-1.08,16.48,3,3.24,3.88,6.66,2.62,9.54-1.63,3.16-5.68,5.05-11.44,5.05q-4.45,0-6.21-2.16a5.16,5.16,0,0,1-1-3.88H21.6a1.71,1.71,0,0,0,1.53-1.44v-.27h2.79a2.19,2.19,0,0,0,2.16-2.16L29.61,4.57A2.2,2.2,0,0,0,27.45,2.4H10.16A2.14,2.14,0,0,0,8,4.57L9.44,35.72a2.19,2.19,0,0,0,2.16,2.16h2.88v.27A1.71,1.71,0,0,0,16,39.59h2a7.26,7.26,0,0,0,1.45,5c1.53,1.89,4,2.79,7.56,2.79,6.48,0,11.17-2.25,12.88-6.22,1.53-3.42.45-7.74-3-11.43-.18-.18-4.32-4.59,1.45-14.41a2.78,2.78,0,0,1,.18.72.4.4,0,0,0-.36.54l.45,5.31a.5.5,0,0,0,.54.45l2.43-.18a.5.5,0,0,0,.45-.54l-.45-5.31a.39.39,0,0,0-.36-.36c-.18-.54-.18-1.89,1.17-4.32C44,8.89,41.86,6.28,41.86,6.28Zm-17.92,24-1.71,1.71a.68.68,0,0,1-.36.18.68.68,0,0,1-.36-.18.67.67,0,0,1,0-.81l1.62-1.62-1.62-1.62a.57.57,0,1,1,.81-.81L24,28.79A1.21,1.21,0,0,1,23.94,30.23Zm1-9c0,.09-.09.09-.18.09a16.37,16.37,0,0,1-3,0,.31.31,0,0,1-.18-.09,1.75,1.75,0,0,1,0-1.35c0-.09.09-.09.18-.09a16.37,16.37,0,0,1,3,0,.31.31,0,0,1,.18.09A1.76,1.76,0,0,1,24.93,21.22ZM12.14,16.45a15.66,15.66,0,0,1,0-8.64A1,1,0,0,1,13,7.09a63.62,63.62,0,0,1,11.71,0,1.1,1.1,0,0,1,.81.72,15.66,15.66,0,0,1,0,8.64,1,1,0,0,1-.81.72,63.62,63.62,0,0,1-11.71,0A1,1,0,0,1,12.14,16.45Zm.54,4.77a1.76,1.76,0,0,1,0-1.35c0-.09.09-.09.18-.09a16.37,16.37,0,0,1,3,0,.31.31,0,0,1,.18.09,1.75,1.75,0,0,1,0,1.35c0,.09-.09.09-.18.09a16.37,16.37,0,0,1-3,0A.31.31,0,0,1,12.68,21.22Zm3.51,10.09a.55.55,0,0,1,0,.72.68.68,0,0,1-.36.18.68.68,0,0,1-.36-.18l-1.71-1.71A.91.91,0,0,1,13.67,29l1.71-1.71a.67.67,0,0,1,.81,0c.27.18.18.54,0,.81l-1.62,1.62Zm1.08-10a.31.31,0,0,1-.18-.09,1.76,1.76,0,0,1,0-1.35c0-.09.09-.09.18-.09a16.48,16.48,0,0,1,3,0,.31.31,0,0,1,.18.09,1.76,1.76,0,0,1,0,1.35c0,.09-.09.09-.18.09A16.48,16.48,0,0,1,17.27,21.31ZM39,11.77a7.09,7.09,0,0,1,2.25-4.68A7.25,7.25,0,0,1,39,11.77Z"/>
        </g>
    </symbol>
    <symbol id="generator" viewBox="0 0 50 50">
        <g>
            <path d="M46.53,28.33,44.85,30a.66.66,0,0,1-.92.1l-2.59-2.57-17,16.95a2.55,2.55,0,0,1-3.6,0l-2.59-2.57L5,28.82,2.22,26.11a.78.78,0,0,1,0-1.08l1.39-1.37a.76.76,0,0,1,1.08,0l2.73,2.71L23.8,10.09,19.52,5.83a.65.65,0,0,1,.11-.91l1.68-1.67a.66.66,0,0,1,.92-.11L33.13,14l2.46-2.44L31.47,7.43a.26.26,0,0,1,0-.36l1.05-1a.27.27,0,0,1,.37,0L35.2,8.25h0a1.5,1.5,0,0,0,1.38-1.37h0L34.32,4.61a.25.25,0,0,1,0-.37l1-1a.27.27,0,0,1,.37,0L47.94,15.27a.26.26,0,0,1,0,.36l-1,1a.26.26,0,0,1-.37,0L44.26,14.5h0a1.37,1.37,0,0,0-1.37,1.37h0L45.1,18.1a.26.26,0,0,1,0,.36L44,19.5a.27.27,0,0,1-.37,0l-4.15-4.12L37,17.87l9.6,9.54A.66.66,0,0,1,46.53,28.33Z"/>
        </g>
    </symbol>
    <symbol id="exhaust-system" viewBox="0 0 50 50">
        <g>
            <path d="M45.24,4.52a.71.71,0,0,1,0,1l-5.36,5.36,2.44,2.43a1.06,1.06,0,0,1,0,1.48L18.44,38.65a1,1,0,0,1-1.47,0L15.8,37.49l-5,5a3.34,3.34,0,0,0-.93,3l.28,2.27a.69.69,0,0,1-.6.78L6,49a.69.69,0,0,1-.77-.6L5,46.24a8.22,8.22,0,0,1,2.31-7.18l5-5L7.79,29.48a1.06,1.06,0,0,1,0-1.48L31.67,4.13a1,1,0,0,1,1.47,0l2.44,2.43L40.94,1.2a.69.69,0,0,1,1,0Z"/>
        </g>
    </symbol>
    <symbol id="diagnostics" viewBox="0 0 50 50">
        <g>
            <path d="M46.15,8H3.85A1.89,1.89,0,0,0,2,9.92V40.07A1.89,1.89,0,0,0,3.85,42h42.3A1.89,1.89,0,0,0,48,40.07V9.92A1.89,1.89,0,0,0,46.15,8ZM5.71,25.07h.94v-.14H5.71V22.44h.94v-.15H5.71V19.8h.94v-.15H5.71V17.16h.94V17H5.71V14.53h.94v-.15H5.71V11.85H44.29v2.53h-.94v.14h.94V17h-.94v.15h.94v2.49h-.94v.15h.94v2.49h-.94v.15h.94v2.49h-.94v.14h.94v.06l-.86,2.1-3.09-6.09a.77.77,0,0,0-1.44.13l-1.16,3.66H36.68v.14h1l-.78,2.49h-.23v.15h.18l-.28.89L35,22.44h.58v-.15H35l-.42-1.65A.78.78,0,0,0,33,20.55l-.66,1.74h-.15v.15h.09L31.74,24,31,19.8h.08v-.15H31l-.42-2.49h.52V17h-.54l-.42-2.48h1v-.15h-1l0-.09a.79.79,0,0,0-.7-.67.77.77,0,0,0-.8.52l-.09.24h-.75v.15h.7l-1.87,5.12H25.56v.15h1l-.9,2.49h-.09v.15h0l-1.86,5.12h-.4v.15h.34l-1.23,3.38L22,27.71h.27v-.15h-.29l-.37-2.48h.66v-.15h-.68l-.36-2.49h1v-.15H21.15l-.83-5.73a.81.81,0,0,0-.72-.69.78.78,0,0,0-.81.58l-1.68,5.84h-.45v.15h.41l-1.26,4.37-.29-1.73h0v-.15h-.06l-.41-2.49h.47v-.15h-.5l-.2-1.24a.8.8,0,0,0-.71-.67.79.79,0,0,0-.8.53l-.48,1.38h-.65v.15h.6l-1.19,3.4-1-3.4h.45v-.15h-.49l-.46-1.58a.79.79,0,0,0-.73-.59.81.81,0,0,0-.76.54l-.55,1.63H7.76v.15h.3C7.53,24,6.91,25.8,6.31,27.56h-.6Zm0,2.64h.55l-.55,1.61ZM44.29,30.2h-.94v.15h.94v2.49h-.94V33h.94v2.48h-.94v.15h.94v2.53H5.71V35.62h.94v-.15H5.71v-1.2C5.8,34,6,33.54,6.14,33h.51v-.15H6.19c.43-1.3,1-3.14,1.73-5.13h.95v-.15H8c.28-.81.57-1.65.85-2.49h0v-.14h0c.16-.46.31-.91.46-1.36l1.14,4H10v.15h.53l.27,1a.79.79,0,0,0,.73.58.76.76,0,0,0,.76-.53l.36-1h.68v-.14h-.63l1.12-3.21,1,5.84h-.34v.15h.36l0,.16a.79.79,0,0,0,.73.67.8.8,0,0,0,.8-.58l.83-2.89h.58v-.15h-.54l2.06-7.16.28,1.89h-.68v.15h.7L20,24.93H18.89v.14H20l1.13,7.77h0V33h0l.21,1.42a.78.78,0,0,0,1.51.17L23.43,33h1v-.15h-1l.91-2.49h.06V30.2l1.86-5.13h.36v-.14h-.3l1.86-5.13h.67v-.15h-.61l.78-2.14,1.24,7.42H30v.14h.32l.34,2a.81.81,0,0,0,.26.47H30v.15h1.11v0a1,1,0,0,0,.24.07.79.79,0,0,0,.81-.51L33,25.07h.34v-.14h-.28l.57-1.49,1.06,4.12h-.24v.15h.28l.64,2.49h-.92v.15h1l.34,1.31a.77.77,0,0,0,1.5.05l.43-1.36h.11V30.2h-.06l1.62-5.13H40v-.14h-.63l.42-1.33,2,4h-.69v.15h.77l.91,1.79a.79.79,0,0,0,.72.43.77.77,0,0,0,.69-.49l.07-.17ZM22.22,14.52H21.11v-.14h1.11Zm-11.12,0H10v-.14H11.1Zm-2.23,0H7.76v-.14H8.87Zm31.14,0H38.9v-.14H40Zm-2.22,0H36.68v-.14h1.11Zm-20,0H16.66v-.14h1.11Zm17.8,0H34.45v-.14h1.12ZM20,14.52H18.88v-.14H20Zm-6.68,0H12.21v-.14h1.11Zm28.92,0H41.13v-.14h1.11Zm-26.69,0H14.43v-.14h1.12Zm11.12,0H25.56v-.14h1.11Zm-2.23,0H23.33v-.14h1.11Zm8.9,0H32.23v-.14h1.11Zm4.45,2.64H36.68V17h1.11Zm-11.12,0H25.56V17h1.11Zm-11.12,0H14.43V17h1.12Zm-2.23,0H12.21V17h1.11Zm-4.45,0H7.76V17H8.87Zm24.47,0H32.23V17h1.11Zm-8.9,0H23.33V17h1.11Zm-13.34,0H10V17H11.1Zm28.91,0H38.9V17H40Zm-4.44,0H34.45V17h1.12Zm-13.35,0H21.11V17h1.11Zm-4.45,0H16.66V17h1.11Zm24.47,0H41.13V17h1.11ZM8.87,19.8H7.76v-.15H8.87Zm2.23,0H10v-.15H11.1Zm24.47,0H34.45v-.15h1.12Zm-22.25,0H12.21v-.15h1.11Zm2.23,0H14.43v-.15h1.12Zm2.22,0H16.66v-.15h1.11Zm4.45,0H21.11v-.15h1.11Zm20,0H41.13v-.15h1.11Zm-17.8,0H23.33v-.15h1.11ZM40,19.8H38.9v-.15H40Zm-6.67,0H32.23v-.15h1.11Zm4.45,0H36.68v-.15h1.11ZM24.44,22.44H23.33v-.15h1.11Zm17.8,0H41.13v-.15h1.11Zm-14.46-.15h1.11v.15H27.78Zm10,.15H36.68v-.15h1.11Zm-10,2.49h1.11v.14H27.78Zm-3.34.14H23.33v-.14h1.11ZM38.9,27.56H40v.15H38.9Zm-11.12,0h1.11v.15H27.78Zm-8.9,0H20v.15H18.88Zm13.35,0h1.11v.15H32.23Zm-6.67,0h1.11v.15H25.56ZM41.13,30.2h1.11v.15H41.13Zm-13.35,0h1.11v.15H27.78Zm-11.12,0h1.11v.15H16.66Zm2.22,0H20v.15H18.88Zm6.68,0h1.11v.15H25.56Zm4.44,0h1.12v.15H30Zm8.9,0H40v.15H38.9Zm-6.67,0h1.11v.15H32.23Zm-24.47,0H8.87v.15H7.76Zm4.45,0h1.11v.15H12.21ZM10,30.2H11.1v.15H10Zm24.46,2.64h1.12V33H34.45Zm6.68,0h1.11V33H41.13Zm-33.37,0H8.87V33H7.76Zm24.47,0h1.11V33H32.23Zm6.67,0H40V33H38.9Zm-2.22,0h1.11V33H36.68Zm-22.25,0h1.12V33H14.43Zm4.45,0H20V33H18.88Zm-2.22,0h1.11V33H16.66Zm8.9,0h1.11V33H25.56Zm4.44,0h1.12V33H30Zm-20,0H11.1V33H10Zm17.79,0h1.11V33H27.78Zm-15.57,0h1.11V33H12.21Zm4.45,2.63h1.11v.15H16.66Zm15.57,0h1.11v.15H32.23Zm-2.23,0h1.12v.15H30Zm-2.22,0h1.11v.15H27.78Zm6.67,0h1.12v.15H34.45Zm6.68,0h1.11v.15H41.13Zm-33.37,0H8.87v.15H7.76Zm31.14,0H40v.15H38.9Zm-2.22,0h1.11v.15H36.68Zm-24.47,0h1.11v.15H12.21Zm-2.22,0H11.1v.15H10Zm4.44,0h1.12v.15H14.43Zm6.68,0h1.11v.15H21.11Zm2.22,0h1.11v.15H23.33Zm-4.45,0H20v.15H18.88Zm6.68,0h1.11v.15H25.56Z"/>
        </g>
    </symbol>
    <symbol id="suspension" viewBox="0 0 50 50">
        <g>
            <path d="M48,40.11,46.74,43.5a.74.74,0,0,1-1,.45l-4.35-1.6c-.09.25-.6.29-1.14.09s-.9-.56-.82-.81L35.13,40a.76.76,0,0,1-.45-1l1.22-3.38a.74.74,0,0,1,1-.46l3.36,1.24V26.06H11.67a3.77,3.77,0,0,1-1.95,2.55.57.57,0,0,0-.26.44v8h4.63a.75.75,0,0,1,.74.75v3.61a.75.75,0,0,1-.74.76H9.46c0,.26-.47.48-1,.48s-1-.22-1-.48H2.75A.75.75,0,0,1,2,41.38V37.77A.75.75,0,0,1,2.75,37H7.37v-8h0a.57.57,0,0,0-.26-.47,4.17,4.17,0,0,1,0-7.22.55.55,0,0,0,.26-.47h0V13H2.75A.75.75,0,0,1,2,12.23V8.62a.75.75,0,0,1,.75-.76H7.37c0-.26.48-.48,1-.48s1,.22,1,.48h4.63a.75.75,0,0,1,.74.76v3.61a.75.75,0,0,1-.74.75H9.46v8a.55.55,0,0,0,.25.43,3.79,3.79,0,0,1,2,2.56H40.21V12.78L35,10.86a.75.75,0,0,1-.44-1L35.77,6.5a.73.73,0,0,1,1-.45l4.35,1.6c.09-.25.6-.29,1.14-.09s.9.56.82.81L47.38,10a.76.76,0,0,1,.45,1l-1.22,3.38a.73.73,0,0,1-1,.45L42.3,13.55V37.22l5.21,1.93A.74.74,0,0,1,48,40.11Z"/>
        </g>
    </symbol>
    <symbol id="transmission" viewBox="0 0 50 50">
        <g>
            <path d="M30.26,14A8.53,8.53,0,0,1,28,13.62l.08-1.31a5.16,5.16,0,0,0,2.17.53c1.07,0,2.4-.42,2.4-1.68,0-1.47-1.19-1.88-2.46-1.88h-.86V8.12h.79c1,0,2.44-.35,2.44-1.61S31.66,5,30.63,5a4.71,4.71,0,0,0-2.19.54l-.09-1.26a7.87,7.87,0,0,1,2.47-.44c1.74,0,3.24.82,3.24,2.69a2.36,2.36,0,0,1-2.12,2.24v0a2.4,2.4,0,0,1,2.2,2.44C34.14,13.46,32.21,14,30.26,14ZM17.59,5.76V14H19V4.14H17.74l-2.41,2,.75.94Zm29.41,5a3.09,3.09,0,0,0-3.19-3.05,5.11,5.11,0,0,0-1.27.14l.08-2.64h4.1V4H41.29l-.08,5.18a4.52,4.52,0,0,1,1.9-.36,2.1,2.1,0,0,1,2.39,2.1,2.09,2.09,0,0,1-2.3,1.95,3.87,3.87,0,0,1-2.05-.49l0,1.32a6,6,0,0,0,2.12.33C45.28,14,47,12.87,47,10.71ZM32.76,42.46H34v1.15H32.76v2.25H31.34V43.61H26.75V42.46l4-6.46h2Zm-1.42-5.3h0l-3.08,5.3h3.1ZM4.41,14H3V4.14H5.42c1.94,0,3.82.31,3.82,2.67a2.29,2.29,0,0,1-2,2.24v0c.44.17.65.38,1,1L10,14H8.42L6.91,10.58c-.44-1-.9-1-1.65-1H4.41Zm0-5.62h1.2c1.35,0,2.14-.6,2.14-1.54s-.68-1.46-2-1.46H4.41ZM47,42.93a3.05,3.05,0,0,1-3.16,3.27c-2.76,0-3.32-2.49-3.32-4.73,0-2.67.87-5.47,4-5.47a6.79,6.79,0,0,1,2,.31l-.2,1.26a3.73,3.73,0,0,0-1.75-.41c-1.84,0-2.73,1.69-2.75,3.59l0,0a2.92,2.92,0,0,1,2.17-.9A2.85,2.85,0,0,1,47,42.93Zm-1.5,0A1.75,1.75,0,1,0,42,43,1.91,1.91,0,0,0,43.75,45,1.84,1.84,0,0,0,45.5,43Zm-27.5.3c1.09-1.09,2.86-2.84,2.86-4.48,0-1.85-1.43-2.81-3.21-2.81a6.6,6.6,0,0,0-2.58.58l.14,1.21a5,5,0,0,1,2.26-.63,1.7,1.7,0,0,1,1.89,1.57c0,1.59-1.75,3.19-2.84,4.2-.62.59-1.26,1.14-1.76,1.59V46H21V44.84H16.27C16.75,44.4,17.45,43.81,18,43.26ZM17,32a1,1,0,0,0,2,0V26H30v6a1,1,0,0,0,2,0V26H43v6a1,1,0,0,0,2,0V18a1,1,0,0,0-2,0v6H32V18a1,1,0,0,0-2,0v6H19V18a1,1,0,0,0-2,0v6H6V20a1.06,1.06,0,0,0-1-1,1.06,1.06,0,0,0-1,1v5a1.06,1.06,0,0,0,1,1H17Z"/>
        </g>
    </symbol>
    <symbol id="fuel-filter" viewBox="0 0 50 50">
        <g>
            <path d="M47.79,5,41.4,11.38l.2.2a.72.72,0,0,1,0,1l-.38.38a.71.71,0,0,1-1,0l-.2-.21-2.48,2.48L41,18.71a1.94,1.94,0,0,1,0,2.73L38.9,23.51a1.57,1.57,0,0,1-2.23,0L19.21,41a.3.3,0,0,1-.41,0l-3.48-3.48,0,0L12.81,40l.18.18a.72.72,0,0,1,0,1l-.37.37a.72.72,0,0,1-1,0l-.18-.18L5,47.79a.71.71,0,0,1-1,0L2.25,46a.72.72,0,0,1,0-1l6.39-6.39-.2-.2a.72.72,0,0,1,0-1L8.82,37a.71.71,0,0,1,1,0l.2.2,2.48-2.48a.08.08,0,0,1,0,0L9,31.21a.28.28,0,0,1,0-.4L26.5,13.35a1.58,1.58,0,0,1,0-2.21l2.09-2.09a1.94,1.94,0,0,1,2.73,0l3.43,3.43L37.23,10l-.18-.18a.72.72,0,0,1,0-1l.38-.37a.71.71,0,0,1,1,0l.18.18L45,2.21a.72.72,0,0,1,1,0L47.79,4A.71.71,0,0,1,47.79,5Z"/>
        </g>
    </symbol>
    <symbol id="cooling-system" viewBox="0 0 50 50">
        <g>
            <path d="M44.27,12.5A10,10,0,0,0,37,9.61a10,10,0,0,0-6.29,2.06c-3.23,2.57-3.74,5.49-4,7.91A5.84,5.84,0,0,0,25,19.34a5.38,5.38,0,0,0-1.14.12c-.53-2.54-.71-5.56.5-7.94,1.34-2.63,1.45-5.23.28-7.14A5.13,5.13,0,0,0,20.13,2C17.73,2,15,3.32,12.5,5.73,9,9,8.64,15.52,11.67,19.33c2.57,3.23,5.49,3.74,7.91,4A5.84,5.84,0,0,0,19.34,25a5.47,5.47,0,0,0,.12,1.15,18.67,18.67,0,0,1-3.62.4,9.54,9.54,0,0,1-4.32-.91,9,9,0,0,0-4.1-1.08,5.16,5.16,0,0,0-5,3.05c-1.2,2.79,0,6.49,3.28,9.89A10.07,10.07,0,0,0,13,40.38a10.1,10.1,0,0,0,6.29-2.05c3.23-2.57,3.74-5.49,4-7.91a5.84,5.84,0,0,0,1.63.24,5.38,5.38,0,0,0,1.14-.12c.53,2.54.71,5.56-.5,7.94-1.34,2.63-1.44,5.23-.28,7.14A5.13,5.13,0,0,0,29.87,48c2.4,0,5.11-1.32,7.63-3.73,3.47-3.31,3.86-9.79.83-13.6-2.57-3.23-5.49-3.74-7.91-4A5.84,5.84,0,0,0,30.66,25a5.47,5.47,0,0,0-.12-1.15,18.49,18.49,0,0,1,3.62-.4,9.41,9.41,0,0,1,4.32.91,9,9,0,0,0,4.1,1.08,5.16,5.16,0,0,0,5-3.05C48.75,19.6,47.52,15.9,44.27,12.5ZM25,28a3,3,0,1,1,3-3A3,3,0,0,1,25,28Z"/>
        </g>
    </symbol>
    <symbol id="brake-system" viewBox="0 0 50 50">
        <g>
            <path d="M46.36,18.34c2,2.51,2.23,6.66,2.23,6.66s-.2,4.15-2.23,6.66a17.31,17.31,0,0,0-2.78,4.72,9.62,9.62,0,0,1-2.44,3.85c-1.6,1.3-4.47.56-4.47.56A3.7,3.7,0,0,1,33.83,38c-.72-2.48,1-4.63,1.69-5.92a40.22,40.22,0,0,0,2-4.14,9.55,9.55,0,0,0,.6-3,9.55,9.55,0,0,0-.6-3,42.42,42.42,0,0,0-2-4.14c-.65-1.29-2.41-3.44-1.69-5.92a3.73,3.73,0,0,1,2.84-2.76s2.87-.74,4.47.56a9.62,9.62,0,0,1,2.44,3.85A17.31,17.31,0,0,0,46.36,18.34ZM32.7,38.45a7.24,7.24,0,0,1,1.16-5.77,12.76,12.76,0,1,1-.3-15.74,6.78,6.78,0,0,1-.86-5.24A5,5,0,0,1,36.52,8a9.54,9.54,0,0,1,1-.16,22,22,0,1,0-.16,34.37c-.38,0-.67-.11-.8-.14A5,5,0,0,1,32.7,38.45ZM35,25A11.19,11.19,0,1,1,23.85,13.81,11.2,11.2,0,0,1,35,25Zm-6.29-4.9a1.33,1.33,0,1,0,0-1.88A1.33,1.33,0,0,0,28.75,20.1Zm-6.23-3.35a1.33,1.33,0,1,0,1.33-1.33A1.34,1.34,0,0,0,22.52,16.75ZM17.08,20.1a1.33,1.33,0,1,0,0-1.88A1.33,1.33,0,0,0,17.08,20.1ZM16.93,25a1.33,1.33,0,1,0-1.33,1.33A1.32,1.32,0,0,0,16.93,25Zm2,4.9a1.33,1.33,0,1,0,0,1.88A1.33,1.33,0,0,0,19,29.9Zm6.22,3.35a1.33,1.33,0,1,0-1.33,1.33A1.33,1.33,0,0,0,25.18,33.25ZM28.51,25a4.66,4.66,0,1,0-4.66,4.66A4.66,4.66,0,0,0,28.51,25Zm2.12,4.9a1.33,1.33,0,1,0,0,1.88A1.33,1.33,0,0,0,30.63,29.9Zm1.48-6.23A1.33,1.33,0,1,0,33.44,25,1.33,1.33,0,0,0,32.11,23.67Z"/>
        </g>
    </symbol>
    <symbol id="batterie" viewBox="0 0 50 50">
        <g>
            <path d="M4.06,42.38H45.94A2.06,2.06,0,0,0,48,40.32V14.46a2.06,2.06,0,0,0-2.06-2.06H41.57V10.05a1,1,0,1,0,0-2.06H35.21a1,1,0,1,0,0,2.06V12.4H14.79V10.05a1,1,0,1,0,0-2.06H8.43a1,1,0,0,0,0,2.06V12.4H4.06A2.06,2.06,0,0,0,2,14.46V40.32A2.06,2.06,0,0,0,4.06,42.38ZM31,21.67h3.87V17.8H37.7v3.87h3.87v2.86H37.7V28.4H34.84V24.53H31Zm-22.54,0H19v2.86H8.43Z"/>
        </g>
    </symbol>
    <symbol id="vacancy-man" viewBox="0 0 50 50">
        <g>
            <path d="M34.19,3.92A38.61,38.61,0,0,0,25,3c-3.45,0-3.83,0-8.74.88a1.94,1.94,0,0,0-1.78,1.81v5.19a.56.56,0,0,0,.56.55H35a.56.56,0,0,0,.56-.55V5.25A1.43,1.43,0,0,0,34.19,3.92ZM27.35,9h-4.7a1.48,1.48,0,0,1-1.48-1.48,1.74,1.74,0,0,1,1.76-1.71h4.14a1.74,1.74,0,0,1,1.76,1.71A1.48,1.48,0,0,1,27.35,9Zm9.06,8.36a1.27,1.27,0,0,1-.68,1.23l-.06,1.89v0a15,15,0,0,1-1.58,5.56,6.5,6.5,0,0,0-.77,3c0,2.13.16,3.29,1.25,4.82a8.74,8.74,0,0,1,.48.88,4.57,4.57,0,0,1,.48,2v8.31A1.9,1.9,0,0,1,33.61,47H16.39a1.9,1.9,0,0,1-1.91-1.87V36.77a4.55,4.55,0,0,1,.42-1.92l.54-1a7.08,7.08,0,0,0,1.28-4.82c0-.18,0-.36,0-.54a5.44,5.44,0,0,0-.64-2.26,14.65,14.65,0,0,1-1.7-5.77l-.06-1.71a.27.27,0,0,0-.11-.2,1.46,1.46,0,0,1-.68-1.32,1.16,1.16,0,0,1,.67-1.12.27.27,0,0,0,.12-.21V14.48a.26.26,0,0,1,.26-.25h20.9a.26.26,0,0,1,.26.25V16a.24.24,0,0,0,.11.2A1.24,1.24,0,0,1,36.41,17.36ZM12,39.86v5.52A1.64,1.64,0,0,1,10.34,47H6.89a3.47,3.47,0,0,1-3.5-3.43A3.42,3.42,0,0,1,5.33,40.5L9.6,38.41A1.66,1.66,0,0,1,12,39.86Zm34.61,3.71A3.47,3.47,0,0,1,43.11,47H39.66A1.64,1.64,0,0,1,38,45.38V39.86a1.66,1.66,0,0,1,2.4-1.45l4.27,2.09A3.42,3.42,0,0,1,46.61,43.57Z"/>
        </g>
    </symbol>
</svg>